%TF.GenerationSoftware,KiCad,Pcbnew,6.0.11*%
%TF.CreationDate,2023-03-20T20:23:43+01:00*%
%TF.ProjectId,teletype-180824-no-slots,74656c65-7479-4706-952d-313830383234,rev?*%
%TF.SameCoordinates,Original*%
%TF.FileFunction,Soldermask,Bot*%
%TF.FilePolarity,Negative*%
%FSLAX46Y46*%
G04 Gerber Fmt 4.6, Leading zero omitted, Abs format (unit mm)*
G04 Created by KiCad (PCBNEW 6.0.11) date 2023-03-20 20:23:43*
%MOMM*%
%LPD*%
G01*
G04 APERTURE LIST*
G04 Aperture macros list*
%AMRoundRect*
0 Rectangle with rounded corners*
0 $1 Rounding radius*
0 $2 $3 $4 $5 $6 $7 $8 $9 X,Y pos of 4 corners*
0 Add a 4 corners polygon primitive as box body*
4,1,4,$2,$3,$4,$5,$6,$7,$8,$9,$2,$3,0*
0 Add four circle primitives for the rounded corners*
1,1,$1+$1,$2,$3*
1,1,$1+$1,$4,$5*
1,1,$1+$1,$6,$7*
1,1,$1+$1,$8,$9*
0 Add four rect primitives between the rounded corners*
20,1,$1+$1,$2,$3,$4,$5,0*
20,1,$1+$1,$4,$5,$6,$7,0*
20,1,$1+$1,$6,$7,$8,$9,0*
20,1,$1+$1,$8,$9,$2,$3,0*%
%AMFreePoly0*
4,1,17,0.351552,0.797921,0.797921,0.351552,0.812800,0.315631,0.812800,-0.315631,0.797921,-0.351552,0.351552,-0.797921,0.315631,-0.812800,-0.315631,-0.812800,-0.351552,-0.797921,-0.797921,-0.351552,-0.812800,-0.315631,-0.812800,0.315631,-0.797921,0.351552,-0.351552,0.797921,-0.315631,0.812800,0.315631,0.812800,0.351552,0.797921,0.351552,0.797921,$1*%
%AMFreePoly1*
4,1,17,0.693485,1.623421,1.623421,0.693485,1.638300,0.657564,1.638300,-0.657564,1.623421,-0.693485,0.693485,-1.623421,0.657564,-1.638300,-0.657564,-1.638300,-0.693485,-1.623421,-1.623421,-0.693485,-1.638300,-0.657564,-1.638300,0.657564,-1.623421,0.693485,-0.693485,1.623421,-0.657564,1.638300,0.657564,1.638300,0.693485,1.623421,0.693485,1.623421,$1*%
%AMFreePoly2*
4,1,17,0.346581,0.785921,0.785921,0.346581,0.800800,0.310660,0.800800,-0.310660,0.785921,-0.346581,0.346581,-0.785921,0.310660,-0.800800,-0.310660,-0.800800,-0.346581,-0.785921,-0.785921,-0.346581,-0.800800,-0.310660,-0.800800,0.310660,-0.785921,0.346581,-0.346581,0.785921,-0.310660,0.800800,0.310660,0.800800,0.346581,0.785921,0.346581,0.785921,$1*%
%AMFreePoly3*
4,1,17,0.404157,0.924921,0.924921,0.404157,0.939800,0.368236,0.939800,-0.368236,0.924921,-0.404157,0.404157,-0.924921,0.368236,-0.939800,-0.368236,-0.939800,-0.404157,-0.924921,-0.924921,-0.404157,-0.939800,-0.368236,-0.939800,0.368236,-0.924921,0.404157,-0.404157,0.924921,-0.368236,0.939800,0.368236,0.939800,0.404157,0.924921,0.404157,0.924921,$1*%
G04 Aperture macros list end*
%ADD10RoundRect,0.050800X1.000000X0.800000X-1.000000X0.800000X-1.000000X-0.800000X1.000000X-0.800000X0*%
%ADD11RoundRect,0.050800X1.397000X-0.635000X1.397000X0.635000X-1.397000X0.635000X-1.397000X-0.635000X0*%
%ADD12FreePoly0,90.000000*%
%ADD13FreePoly1,90.000000*%
%ADD14RoundRect,0.050800X0.939800X-0.939800X0.939800X0.939800X-0.939800X0.939800X-0.939800X-0.939800X0*%
%ADD15FreePoly1,0.000000*%
%ADD16C,1.401600*%
%ADD17O,3.149600X1.625600*%
%ADD18C,2.286000*%
%ADD19FreePoly2,180.000000*%
%ADD20RoundRect,0.050800X0.750000X0.750000X-0.750000X0.750000X-0.750000X-0.750000X0.750000X-0.750000X0*%
%ADD21C,1.524000*%
%ADD22O,1.625600X3.149600*%
%ADD23FreePoly3,0.000000*%
G04 APERTURE END LIST*
D10*
%TO.C,SW40*%
X111171968Y-142502891D03*
X105771968Y-142502891D03*
%TD*%
D11*
%TO.C,J40*%
X113576100Y-138245850D03*
X113576100Y-135705850D03*
X113576100Y-133165850D03*
X113576100Y-130625850D03*
X113576100Y-128085850D03*
X113576100Y-125545850D03*
%TD*%
D12*
%TO.C,JP2*%
X110401100Y-116020850D03*
X107861100Y-116020850D03*
X110401100Y-118560850D03*
X107861100Y-118560850D03*
X110401100Y-121100850D03*
X107861100Y-121100850D03*
%TD*%
D13*
%TO.C,P1*%
X176486100Y-63633350D03*
X185286100Y-63633350D03*
D14*
X178386100Y-70333350D03*
X180886100Y-70333350D03*
X183386100Y-70333350D03*
%TD*%
D15*
%TO.C,USB0*%
X112941100Y-153780850D03*
D13*
X119516100Y-157965850D03*
X106366100Y-157955850D03*
D16*
X116441100Y-158560850D03*
X113941100Y-158560850D03*
X111941100Y-158560850D03*
X109441100Y-158560850D03*
%TD*%
D17*
%TO.C,POP0*%
X129527300Y-158921450D03*
X123024900Y-158921450D03*
X129527300Y-154400250D03*
X123024900Y-154400250D03*
%TD*%
D18*
%TO.C,U$1*%
X110001100Y-148700850D03*
X187001100Y-148700850D03*
D19*
X124371100Y-106200850D03*
X126911100Y-106200850D03*
X129451100Y-106200850D03*
X131991100Y-106200850D03*
X134531100Y-106200850D03*
X137071100Y-106200850D03*
X139611100Y-106200850D03*
X142151100Y-106200850D03*
X144691100Y-106200850D03*
X147231100Y-106200850D03*
X149771100Y-106200850D03*
X152311100Y-106200850D03*
X154851100Y-106200850D03*
X157391100Y-106200850D03*
X159931100Y-106200850D03*
X162471100Y-106200850D03*
X165011100Y-106200850D03*
X167551100Y-106200850D03*
X170091100Y-106200850D03*
D20*
X172631100Y-106200850D03*
%TD*%
D21*
%TO.C,X1*%
X187948600Y-125103350D03*
X185408600Y-125103350D03*
X187948600Y-127643350D03*
X185408600Y-127643350D03*
X187948600Y-130183350D03*
X185408600Y-130183350D03*
X187948600Y-132723350D03*
X185408600Y-132723350D03*
X187948600Y-135263350D03*
X185408600Y-135263350D03*
%TD*%
D12*
%TO.C,JP1*%
X117386100Y-116020850D03*
X114846100Y-116020850D03*
X117386100Y-118560850D03*
X114846100Y-118560850D03*
X117386100Y-121100850D03*
X114846100Y-121100850D03*
%TD*%
D22*
%TO.C,IC2*%
X163106100Y-156660850D03*
X165646100Y-156660850D03*
X168186100Y-156660850D03*
%TD*%
D23*
%TO.C,J1*%
X111036100Y-60345850D03*
X111036100Y-52045850D03*
X111036100Y-62595850D03*
%TD*%
%TO.C,J2*%
X117703600Y-73680850D03*
X117703600Y-65380850D03*
X117703600Y-75930850D03*
%TD*%
%TO.C,J3*%
X124371100Y-60345850D03*
X124371100Y-52045850D03*
X124371100Y-62595850D03*
%TD*%
%TO.C,J4*%
X131038600Y-73680850D03*
X131038600Y-65380850D03*
X131038600Y-75930850D03*
%TD*%
%TO.C,J9*%
X137706100Y-87015850D03*
X137706100Y-78715850D03*
X137706100Y-89265850D03*
%TD*%
%TO.C,J10*%
X151041100Y-87015850D03*
X151041100Y-78715850D03*
X151041100Y-89265850D03*
%TD*%
%TO.C,J11*%
X164376100Y-87015850D03*
X164376100Y-78715850D03*
X164376100Y-89265850D03*
%TD*%
%TO.C,J12*%
X177711100Y-87015850D03*
X177711100Y-78715850D03*
X177711100Y-89265850D03*
%TD*%
%TO.C,J13*%
X144373600Y-100350850D03*
X144373600Y-92050850D03*
X144373600Y-102600850D03*
%TD*%
%TO.C,J14*%
X157708600Y-100350850D03*
X157708600Y-92050850D03*
X157708600Y-102600850D03*
%TD*%
%TO.C,J15*%
X171043600Y-100350850D03*
X171043600Y-92050850D03*
X171043600Y-102600850D03*
%TD*%
%TO.C,J16*%
X184378600Y-100350850D03*
X184378600Y-92050850D03*
X184378600Y-102600850D03*
%TD*%
%TO.C,J17*%
X164376100Y-60345850D03*
X164376100Y-52045850D03*
X164376100Y-62595850D03*
%TD*%
%TO.C,J5*%
X137706100Y-60345850D03*
X137706100Y-52045850D03*
X137706100Y-62595850D03*
%TD*%
%TO.C,J6*%
X144373600Y-73680850D03*
X144373600Y-65380850D03*
X144373600Y-75930850D03*
%TD*%
%TO.C,J7*%
X151041100Y-60345850D03*
X151041100Y-52045850D03*
X151041100Y-62595850D03*
%TD*%
%TO.C,J8*%
X157708600Y-73680850D03*
X157708600Y-65380850D03*
X157708600Y-75930850D03*
%TD*%
M02*
