%TF.GenerationSoftware,KiCad,Pcbnew,6.0.11*%
%TF.CreationDate,2023-03-20T20:23:43+01:00*%
%TF.ProjectId,teletype-180824-no-slots,74656c65-7479-4706-952d-313830383234,rev?*%
%TF.SameCoordinates,Original*%
%TF.FileFunction,Legend,Bot*%
%TF.FilePolarity,Positive*%
%FSLAX46Y46*%
G04 Gerber Fmt 4.6, Leading zero omitted, Abs format (unit mm)*
G04 Created by KiCad (PCBNEW 6.0.11) date 2023-03-20 20:23:43*
%MOMM*%
%LPD*%
G01*
G04 APERTURE LIST*
%ADD10C,0.121920*%
%ADD11C,0.231648*%
%ADD12C,0.140208*%
%ADD13C,0.137160*%
%ADD14C,0.093472*%
%ADD15C,0.114300*%
%ADD16C,0.304800*%
%ADD17C,0.152400*%
%ADD18C,0.203200*%
G04 APERTURE END LIST*
D10*
X120841008Y-119369779D02*
X120755857Y-119412354D01*
X120585556Y-119412354D01*
X120500406Y-119369779D01*
X120457830Y-119284629D01*
X120457830Y-119242053D01*
X120500406Y-119156903D01*
X120585556Y-119114328D01*
X120713282Y-119114328D01*
X120798432Y-119071752D01*
X120841008Y-118986602D01*
X120841008Y-118944027D01*
X120798432Y-118858876D01*
X120713282Y-118816301D01*
X120585556Y-118816301D01*
X120500406Y-118858876D01*
X119691476Y-119369779D02*
X119776627Y-119412354D01*
X119946928Y-119412354D01*
X120032078Y-119369779D01*
X120074653Y-119327204D01*
X120117228Y-119242053D01*
X120117228Y-118986602D01*
X120074653Y-118901451D01*
X120032078Y-118858876D01*
X119946928Y-118816301D01*
X119776627Y-118816301D01*
X119691476Y-118858876D01*
X119180573Y-119412354D02*
X119265724Y-119369779D01*
X119308299Y-119284629D01*
X119308299Y-118518274D01*
X120883583Y-116276301D02*
X120883583Y-117000080D01*
X120926158Y-117085230D01*
X120968733Y-117127806D01*
X121053884Y-117170381D01*
X121181609Y-117170381D01*
X121266760Y-117127806D01*
X120883583Y-116829779D02*
X120968733Y-116872354D01*
X121139034Y-116872354D01*
X121224185Y-116829779D01*
X121266760Y-116787204D01*
X121309335Y-116702053D01*
X121309335Y-116446602D01*
X121266760Y-116361451D01*
X121224185Y-116318876D01*
X121139034Y-116276301D01*
X120968733Y-116276301D01*
X120883583Y-116318876D01*
X120457830Y-116276301D02*
X120457830Y-116872354D01*
X120457830Y-116361451D02*
X120415255Y-116318876D01*
X120330105Y-116276301D01*
X120202379Y-116276301D01*
X120117228Y-116318876D01*
X120074653Y-116404027D01*
X120074653Y-116872354D01*
X119265724Y-116872354D02*
X119265724Y-115978274D01*
X119265724Y-116829779D02*
X119350874Y-116872354D01*
X119521175Y-116872354D01*
X119606326Y-116829779D01*
X119648901Y-116787204D01*
X119691476Y-116702053D01*
X119691476Y-116446602D01*
X119648901Y-116361451D01*
X119606326Y-116318876D01*
X119521175Y-116276301D01*
X119350874Y-116276301D01*
X119265724Y-116318876D01*
X121224185Y-121909779D02*
X121139034Y-121952354D01*
X120968733Y-121952354D01*
X120883583Y-121909779D01*
X120841008Y-121824629D01*
X120841008Y-121782053D01*
X120883583Y-121696903D01*
X120968733Y-121654328D01*
X121096459Y-121654328D01*
X121181609Y-121611752D01*
X121224185Y-121526602D01*
X121224185Y-121484027D01*
X121181609Y-121398876D01*
X121096459Y-121356301D01*
X120968733Y-121356301D01*
X120883583Y-121398876D01*
X120074653Y-121952354D02*
X120074653Y-121058274D01*
X120074653Y-121909779D02*
X120159804Y-121952354D01*
X120330105Y-121952354D01*
X120415255Y-121909779D01*
X120457830Y-121867204D01*
X120500406Y-121782053D01*
X120500406Y-121526602D01*
X120457830Y-121441451D01*
X120415255Y-121398876D01*
X120330105Y-121356301D01*
X120159804Y-121356301D01*
X120074653Y-121398876D01*
X119265724Y-121952354D02*
X119265724Y-121484027D01*
X119308299Y-121398876D01*
X119393449Y-121356301D01*
X119563750Y-121356301D01*
X119648901Y-121398876D01*
X119265724Y-121909779D02*
X119350874Y-121952354D01*
X119563750Y-121952354D01*
X119648901Y-121909779D01*
X119691476Y-121824629D01*
X119691476Y-121739478D01*
X119648901Y-121654328D01*
X119563750Y-121611752D01*
X119350874Y-121611752D01*
X119265724Y-121569177D01*
X117577228Y-133382354D02*
X117577228Y-132786301D01*
X117577228Y-132956602D02*
X117534653Y-132871451D01*
X117492078Y-132828876D01*
X117406928Y-132786301D01*
X117321777Y-132786301D01*
X117108901Y-133382354D02*
X116640573Y-132786301D01*
X117108901Y-132786301D02*
X116640573Y-133382354D01*
X117662379Y-135326301D02*
X117321777Y-135326301D01*
X117534653Y-135028274D02*
X117534653Y-135794629D01*
X117492078Y-135879779D01*
X117406928Y-135922354D01*
X117321777Y-135922354D01*
X117108901Y-135922354D02*
X116640573Y-135326301D01*
X117108901Y-135326301D02*
X116640573Y-135922354D01*
X118343583Y-125166301D02*
X118343583Y-125890080D01*
X118386158Y-125975230D01*
X118428733Y-126017806D01*
X118513884Y-126060381D01*
X118641609Y-126060381D01*
X118726760Y-126017806D01*
X118343583Y-125719779D02*
X118428733Y-125762354D01*
X118599034Y-125762354D01*
X118684185Y-125719779D01*
X118726760Y-125677204D01*
X118769335Y-125592053D01*
X118769335Y-125336602D01*
X118726760Y-125251451D01*
X118684185Y-125208876D01*
X118599034Y-125166301D01*
X118428733Y-125166301D01*
X118343583Y-125208876D01*
X117917830Y-125166301D02*
X117917830Y-125762354D01*
X117917830Y-125251451D02*
X117875255Y-125208876D01*
X117790105Y-125166301D01*
X117662379Y-125166301D01*
X117577228Y-125208876D01*
X117534653Y-125294027D01*
X117534653Y-125762354D01*
X116725724Y-125762354D02*
X116725724Y-124868274D01*
X116725724Y-125719779D02*
X116810874Y-125762354D01*
X116981175Y-125762354D01*
X117066326Y-125719779D01*
X117108901Y-125677204D01*
X117151476Y-125592053D01*
X117151476Y-125336602D01*
X117108901Y-125251451D01*
X117066326Y-125208876D01*
X116981175Y-125166301D01*
X116810874Y-125166301D01*
X116725724Y-125208876D01*
D11*
X190491064Y-144185313D02*
X189196776Y-144185313D01*
X187498024Y-144832457D02*
X188468740Y-144832457D01*
X187983382Y-144832457D02*
X187983382Y-143133705D01*
X188145168Y-143376383D01*
X188306954Y-143538169D01*
X188468740Y-143619062D01*
X186850881Y-143295490D02*
X186769988Y-143214598D01*
X186608202Y-143133705D01*
X186203737Y-143133705D01*
X186041951Y-143214598D01*
X185961058Y-143295490D01*
X185880165Y-143457276D01*
X185880165Y-143619062D01*
X185961058Y-143861741D01*
X186931774Y-144832457D01*
X185880165Y-144832457D01*
X185313915Y-143699955D02*
X184909450Y-144832457D01*
X184504985Y-143699955D01*
D12*
%TO.C,J40*%
X117993218Y-137627154D02*
X117993218Y-138434148D01*
X118047017Y-138595547D01*
X118154616Y-138703146D01*
X118316015Y-138756946D01*
X118423615Y-138756946D01*
X116971025Y-138003751D02*
X116971025Y-138756946D01*
X117240023Y-137573354D02*
X117509021Y-138380349D01*
X116809626Y-138380349D01*
X116164031Y-137627154D02*
X116056431Y-137627154D01*
X115948832Y-137680954D01*
X115895032Y-137734753D01*
X115841233Y-137842352D01*
X115787433Y-138057551D01*
X115787433Y-138326549D01*
X115841233Y-138541747D01*
X115895032Y-138649347D01*
X115948832Y-138703146D01*
X116056431Y-138756946D01*
X116164031Y-138756946D01*
X116271630Y-138703146D01*
X116325429Y-138649347D01*
X116379229Y-138541747D01*
X116433029Y-138326549D01*
X116433029Y-138057551D01*
X116379229Y-137842352D01*
X116325429Y-137734753D01*
X116271630Y-137680954D01*
X116164031Y-137627154D01*
D13*
%TO.C,JP2*%
X109799132Y-122130880D02*
X109799132Y-122758623D01*
X109840981Y-122884171D01*
X109924680Y-122967870D01*
X110050229Y-123009720D01*
X110133928Y-123009720D01*
X109380636Y-123009720D02*
X109380636Y-122130880D01*
X109045840Y-122130880D01*
X108962141Y-122172730D01*
X108920292Y-122214579D01*
X108878442Y-122298278D01*
X108878442Y-122423827D01*
X108920292Y-122507526D01*
X108962141Y-122549375D01*
X109045840Y-122591225D01*
X109380636Y-122591225D01*
X108543646Y-122214579D02*
X108501796Y-122172730D01*
X108418097Y-122130880D01*
X108208850Y-122130880D01*
X108125151Y-122172730D01*
X108083301Y-122214579D01*
X108041452Y-122298278D01*
X108041452Y-122381977D01*
X108083301Y-122507526D01*
X108585495Y-123009720D01*
X108041452Y-123009720D01*
D14*
%TO.C,X1*%
X190606310Y-140572182D02*
X191782838Y-141356534D01*
X190606310Y-141356534D02*
X191782838Y-140572182D01*
X191782838Y-142421011D02*
X191782838Y-141748710D01*
X191782838Y-142084861D02*
X190606310Y-142084861D01*
X190774386Y-141972810D01*
X190886436Y-141860760D01*
X190942461Y-141748710D01*
D15*
%TO.C,JP1*%
X116578047Y-122194561D02*
X116578047Y-122838633D01*
X116620985Y-122967447D01*
X116706861Y-123053323D01*
X116835675Y-123096261D01*
X116921552Y-123096261D01*
X116148666Y-123096261D02*
X116148666Y-122194561D01*
X115805161Y-122194561D01*
X115719285Y-122237500D01*
X115676347Y-122280438D01*
X115633409Y-122366314D01*
X115633409Y-122495128D01*
X115676347Y-122581004D01*
X115719285Y-122623942D01*
X115805161Y-122666880D01*
X116148666Y-122666880D01*
X114774647Y-123096261D02*
X115289904Y-123096261D01*
X115032275Y-123096261D02*
X115032275Y-122194561D01*
X115118152Y-122323376D01*
X115204028Y-122409252D01*
X115289904Y-122452190D01*
D16*
%TO.C,SW40*%
X108471968Y-141867891D02*
X108471968Y-142502891D01*
X108471968Y-142502891D02*
X107836968Y-142502891D01*
X109106968Y-142502891D02*
X108471968Y-142502891D01*
X107836968Y-143137891D02*
X107201968Y-143137891D01*
X109741968Y-143137891D02*
X109106968Y-143137891D01*
X105455668Y-141391591D02*
X105455668Y-140756591D01*
X105455668Y-144249191D02*
X105455668Y-143614191D01*
X111488268Y-144249191D02*
X105455668Y-144249191D01*
X111488268Y-143614191D02*
X111488268Y-144249191D01*
X111488268Y-140756591D02*
X111488268Y-141391591D01*
X105455668Y-140756591D02*
X111488268Y-140756591D01*
%TO.C,J40*%
X104686100Y-139515850D02*
X112306100Y-139515850D01*
X104686100Y-124275850D02*
X104686100Y-139515850D01*
X112306100Y-124275850D02*
X104686100Y-124275850D01*
D17*
%TO.C,JP2*%
X106591100Y-116655850D02*
X106591100Y-115385850D01*
X111036100Y-114750850D02*
X107226100Y-114750850D01*
X111671100Y-115385850D02*
X111036100Y-114750850D01*
X111671100Y-116655850D02*
X111671100Y-115385850D01*
X111036100Y-117290850D02*
X111671100Y-116655850D01*
X106591100Y-115385850D02*
X107226100Y-114750850D01*
X107226100Y-117290850D02*
X106591100Y-116655850D01*
X106591100Y-121735850D02*
X106591100Y-120465850D01*
X106591100Y-119195850D02*
X106591100Y-117925850D01*
X111036100Y-117290850D02*
X107226100Y-117290850D01*
X111036100Y-119830850D02*
X107226100Y-119830850D01*
X111671100Y-117925850D02*
X111036100Y-117290850D01*
X111671100Y-119195850D02*
X111671100Y-117925850D01*
X111036100Y-119830850D02*
X111671100Y-119195850D01*
X111671100Y-120465850D02*
X111036100Y-119830850D01*
X111671100Y-121735850D02*
X111671100Y-120465850D01*
X111036100Y-122370850D02*
X111671100Y-121735850D01*
X107226100Y-122370850D02*
X111036100Y-122370850D01*
X106591100Y-117925850D02*
X107226100Y-117290850D01*
X107226100Y-119830850D02*
X106591100Y-119195850D01*
X106591100Y-120465850D02*
X107226100Y-119830850D01*
X107226100Y-122370850D02*
X106591100Y-121735850D01*
D18*
%TO.C,X1*%
X183403600Y-139058350D02*
X189953600Y-139058350D01*
X183403600Y-132066350D02*
X183403600Y-139058350D01*
X183403600Y-121308350D02*
X183403600Y-128300350D01*
X189953600Y-121308350D02*
X183403600Y-121308350D01*
X189953600Y-139058350D02*
X189953600Y-121308350D01*
X182478600Y-140183350D02*
X190878600Y-140183350D01*
X182478600Y-132066350D02*
X182478600Y-140183350D01*
X182478600Y-128300350D02*
X182478600Y-132066350D01*
X184028600Y-132066350D02*
X182478600Y-132066350D01*
X184028600Y-128300350D02*
X184028600Y-132066350D01*
X182478600Y-128300350D02*
X184028600Y-128300350D01*
X182478600Y-125724350D02*
X182478600Y-128300350D01*
X182778600Y-125724350D02*
X182478600Y-125724350D01*
X182778600Y-124245350D02*
X182778600Y-125724350D01*
X182478600Y-124245350D02*
X182778600Y-124245350D01*
X182478600Y-120183350D02*
X182478600Y-124245350D01*
X190878600Y-120183350D02*
X182478600Y-120183350D01*
X190878600Y-140183350D02*
X190878600Y-120183350D01*
D17*
%TO.C,JP1*%
X113576100Y-116655850D02*
X113576100Y-115385850D01*
X118021100Y-114750850D02*
X114211100Y-114750850D01*
X118656100Y-115385850D02*
X118021100Y-114750850D01*
X118656100Y-116655850D02*
X118656100Y-115385850D01*
X118021100Y-117290850D02*
X118656100Y-116655850D01*
X113576100Y-115385850D02*
X114211100Y-114750850D01*
X114211100Y-117290850D02*
X113576100Y-116655850D01*
X113576100Y-121735850D02*
X113576100Y-120465850D01*
X113576100Y-119195850D02*
X113576100Y-117925850D01*
X118021100Y-117290850D02*
X114211100Y-117290850D01*
X118021100Y-119830850D02*
X114211100Y-119830850D01*
X118656100Y-117925850D02*
X118021100Y-117290850D01*
X118656100Y-119195850D02*
X118656100Y-117925850D01*
X118021100Y-119830850D02*
X118656100Y-119195850D01*
X118656100Y-120465850D02*
X118021100Y-119830850D01*
X118656100Y-121735850D02*
X118656100Y-120465850D01*
X118021100Y-122370850D02*
X118656100Y-121735850D01*
X114211100Y-122370850D02*
X118021100Y-122370850D01*
X113576100Y-117925850D02*
X114211100Y-117290850D01*
X114211100Y-119830850D02*
X113576100Y-119195850D01*
X113576100Y-120465850D02*
X114211100Y-119830850D01*
X114211100Y-122370850D02*
X113576100Y-121735850D01*
%TD*%
M02*
