%TF.GenerationSoftware,KiCad,Pcbnew,6.0.11*%
%TF.CreationDate,2023-03-20T20:23:42+01:00*%
%TF.ProjectId,teletype-180824-no-slots,74656c65-7479-4706-952d-313830383234,rev?*%
%TF.SameCoordinates,Original*%
%TF.FileFunction,Copper,L4,Bot*%
%TF.FilePolarity,Positive*%
%FSLAX46Y46*%
G04 Gerber Fmt 4.6, Leading zero omitted, Abs format (unit mm)*
G04 Created by KiCad (PCBNEW 6.0.11) date 2023-03-20 20:23:42*
%MOMM*%
%LPD*%
G01*
G04 APERTURE LIST*
G04 Aperture macros list*
%AMOutline5P*
0 Free polygon, 5 corners , with rotation*
0 The origin of the aperture is its center*
0 number of corners: always 5*
0 $1 to $10 corner X, Y*
0 $11 Rotation angle, in degrees counterclockwise*
0 create outline with 5 corners*
4,1,5,$1,$2,$3,$4,$5,$6,$7,$8,$9,$10,$1,$2,$11*%
%AMOutline6P*
0 Free polygon, 6 corners , with rotation*
0 The origin of the aperture is its center*
0 number of corners: always 6*
0 $1 to $12 corner X, Y*
0 $13 Rotation angle, in degrees counterclockwise*
0 create outline with 6 corners*
4,1,6,$1,$2,$3,$4,$5,$6,$7,$8,$9,$10,$11,$12,$1,$2,$13*%
%AMOutline7P*
0 Free polygon, 7 corners , with rotation*
0 The origin of the aperture is its center*
0 number of corners: always 7*
0 $1 to $14 corner X, Y*
0 $15 Rotation angle, in degrees counterclockwise*
0 create outline with 7 corners*
4,1,7,$1,$2,$3,$4,$5,$6,$7,$8,$9,$10,$11,$12,$13,$14,$1,$2,$15*%
%AMOutline8P*
0 Free polygon, 8 corners , with rotation*
0 The origin of the aperture is its center*
0 number of corners: always 8*
0 $1 to $16 corner X, Y*
0 $17 Rotation angle, in degrees counterclockwise*
0 create outline with 8 corners*
4,1,8,$1,$2,$3,$4,$5,$6,$7,$8,$9,$10,$11,$12,$13,$14,$15,$16,$1,$2,$17*%
G04 Aperture macros list end*
%ADD10C,0.213360*%
%TA.AperFunction,NonConductor*%
%ADD11C,0.213360*%
%TD*%
%TA.AperFunction,SMDPad,CuDef*%
%ADD12R,2.000000X1.600000*%
%TD*%
%TA.AperFunction,SMDPad,CuDef*%
%ADD13R,2.794000X1.270000*%
%TD*%
%TA.AperFunction,ComponentPad*%
%ADD14Outline8P,-0.762000X0.315631X-0.315631X0.762000X0.315631X0.762000X0.762000X0.315631X0.762000X-0.315631X0.315631X-0.762000X-0.315631X-0.762000X-0.762000X-0.315631X90.000000*%
%TD*%
%TA.AperFunction,ComponentPad*%
%ADD15Outline8P,-1.587500X0.657564X-0.657564X1.587500X0.657564X1.587500X1.587500X0.657564X1.587500X-0.657564X0.657564X-1.587500X-0.657564X-1.587500X-1.587500X-0.657564X90.000000*%
%TD*%
%TA.AperFunction,ComponentPad*%
%ADD16R,1.879600X1.879600*%
%TD*%
%TA.AperFunction,ComponentPad*%
%ADD17Outline8P,-1.587500X0.657564X-0.657564X1.587500X0.657564X1.587500X1.587500X0.657564X1.587500X-0.657564X0.657564X-1.587500X-0.657564X-1.587500X-1.587500X-0.657564X0.000000*%
%TD*%
%TA.AperFunction,ComponentPad*%
%ADD18C,1.300000*%
%TD*%
%TA.AperFunction,ComponentPad*%
%ADD19O,3.048000X1.524000*%
%TD*%
%TA.AperFunction,ComponentPad*%
%ADD20Outline8P,-0.750000X0.310660X-0.310660X0.750000X0.310660X0.750000X0.750000X0.310660X0.750000X-0.310660X0.310660X-0.750000X-0.310660X-0.750000X-0.750000X-0.310660X180.000000*%
%TD*%
%TA.AperFunction,ComponentPad*%
%ADD21R,1.500000X1.500000*%
%TD*%
%TA.AperFunction,ComponentPad*%
%ADD22C,1.422400*%
%TD*%
%TA.AperFunction,ComponentPad*%
%ADD23O,1.524000X3.048000*%
%TD*%
%TA.AperFunction,ComponentPad*%
%ADD24Outline8P,-0.889000X0.368236X-0.368236X0.889000X0.368236X0.889000X0.889000X0.368236X0.889000X-0.368236X0.368236X-0.889000X-0.368236X-0.889000X-0.889000X-0.368236X0.000000*%
%TD*%
%TA.AperFunction,ViaPad*%
%ADD25C,0.660400*%
%TD*%
%TA.AperFunction,ViaPad*%
%ADD26C,0.787400*%
%TD*%
%TA.AperFunction,ViaPad*%
%ADD27C,0.906400*%
%TD*%
%TA.AperFunction,ViaPad*%
%ADD28C,1.206400*%
%TD*%
%TA.AperFunction,ViaPad*%
%ADD29C,1.006400*%
%TD*%
%TA.AperFunction,Conductor*%
%ADD30C,0.254000*%
%TD*%
%TA.AperFunction,Conductor*%
%ADD31C,0.203200*%
%TD*%
%TA.AperFunction,Conductor*%
%ADD32C,0.406400*%
%TD*%
%TA.AperFunction,Conductor*%
%ADD33C,0.609600*%
%TD*%
G04 APERTURE END LIST*
D10*
D11*
X191169882Y-155972273D02*
X191169882Y-154929180D01*
X191169882Y-155078193D02*
X191095376Y-155003686D01*
X190946362Y-154929180D01*
X190722842Y-154929180D01*
X190573829Y-155003686D01*
X190499322Y-155152700D01*
X190499322Y-155972273D01*
X190499322Y-155152700D02*
X190424816Y-155003686D01*
X190275802Y-154929180D01*
X190052282Y-154929180D01*
X189903269Y-155003686D01*
X189828762Y-155152700D01*
X189828762Y-155972273D01*
X188860176Y-155972273D02*
X189009189Y-155897766D01*
X189083696Y-155823260D01*
X189158202Y-155674246D01*
X189158202Y-155227206D01*
X189083696Y-155078193D01*
X189009189Y-155003686D01*
X188860176Y-154929180D01*
X188636656Y-154929180D01*
X188487642Y-155003686D01*
X188413136Y-155078193D01*
X188338629Y-155227206D01*
X188338629Y-155674246D01*
X188413136Y-155823260D01*
X188487642Y-155897766D01*
X188636656Y-155972273D01*
X188860176Y-155972273D01*
X187668069Y-154929180D02*
X187668069Y-155972273D01*
X187668069Y-155078193D02*
X187593562Y-155003686D01*
X187444549Y-154929180D01*
X187221029Y-154929180D01*
X187072016Y-155003686D01*
X186997509Y-155152700D01*
X186997509Y-155972273D01*
X186028922Y-155972273D02*
X186177936Y-155897766D01*
X186252442Y-155823260D01*
X186326949Y-155674246D01*
X186326949Y-155227206D01*
X186252442Y-155078193D01*
X186177936Y-155003686D01*
X186028922Y-154929180D01*
X185805402Y-154929180D01*
X185656389Y-155003686D01*
X185581882Y-155078193D01*
X185507376Y-155227206D01*
X185507376Y-155674246D01*
X185581882Y-155823260D01*
X185656389Y-155897766D01*
X185805402Y-155972273D01*
X186028922Y-155972273D01*
X184836816Y-155972273D02*
X184836816Y-154929180D01*
X184836816Y-155078193D02*
X184762309Y-155003686D01*
X184613296Y-154929180D01*
X184389776Y-154929180D01*
X184240762Y-155003686D01*
X184166256Y-155152700D01*
X184166256Y-155972273D01*
X184166256Y-155152700D02*
X184091749Y-155003686D01*
X183942736Y-154929180D01*
X183719216Y-154929180D01*
X183570202Y-155003686D01*
X183495696Y-155152700D01*
X183495696Y-155972273D01*
X182154576Y-155897766D02*
X182303589Y-155972273D01*
X182601616Y-155972273D01*
X182750629Y-155897766D01*
X182825136Y-155748753D01*
X182825136Y-155152700D01*
X182750629Y-155003686D01*
X182601616Y-154929180D01*
X182303589Y-154929180D01*
X182154576Y-155003686D01*
X182080069Y-155152700D01*
X182080069Y-155301713D01*
X182825136Y-155450726D01*
X181409509Y-155823260D02*
X181335002Y-155897766D01*
X181409509Y-155972273D01*
X181484016Y-155897766D01*
X181409509Y-155823260D01*
X181409509Y-155972273D01*
X180440922Y-155972273D02*
X180589936Y-155897766D01*
X180664442Y-155823260D01*
X180738949Y-155674246D01*
X180738949Y-155227206D01*
X180664442Y-155078193D01*
X180589936Y-155003686D01*
X180440922Y-154929180D01*
X180217402Y-154929180D01*
X180068389Y-155003686D01*
X179993882Y-155078193D01*
X179919376Y-155227206D01*
X179919376Y-155674246D01*
X179993882Y-155823260D01*
X180068389Y-155897766D01*
X180217402Y-155972273D01*
X180440922Y-155972273D01*
X179248816Y-155972273D02*
X179248816Y-154929180D01*
X179248816Y-155227206D02*
X179174309Y-155078193D01*
X179099802Y-155003686D01*
X178950789Y-154929180D01*
X178801776Y-154929180D01*
X177609669Y-154929180D02*
X177609669Y-156195793D01*
X177684176Y-156344806D01*
X177758682Y-156419313D01*
X177907696Y-156493820D01*
X178131216Y-156493820D01*
X178280229Y-156419313D01*
X177609669Y-155897766D02*
X177758682Y-155972273D01*
X178056709Y-155972273D01*
X178205722Y-155897766D01*
X178280229Y-155823260D01*
X178354736Y-155674246D01*
X178354736Y-155227206D01*
X178280229Y-155078193D01*
X178205722Y-155003686D01*
X178056709Y-154929180D01*
X177758682Y-154929180D01*
X177609669Y-155003686D01*
X191393402Y-157448250D02*
X190797349Y-157448250D01*
X191169882Y-156926703D02*
X191169882Y-158267823D01*
X191095376Y-158416836D01*
X190946362Y-158491343D01*
X190797349Y-158491343D01*
X189679749Y-158416836D02*
X189828762Y-158491343D01*
X190126789Y-158491343D01*
X190275802Y-158416836D01*
X190350309Y-158267823D01*
X190350309Y-157671770D01*
X190275802Y-157522756D01*
X190126789Y-157448250D01*
X189828762Y-157448250D01*
X189679749Y-157522756D01*
X189605242Y-157671770D01*
X189605242Y-157820783D01*
X190350309Y-157969796D01*
X188711162Y-158491343D02*
X188860176Y-158416836D01*
X188934682Y-158267823D01*
X188934682Y-156926703D01*
X187519056Y-158416836D02*
X187668069Y-158491343D01*
X187966096Y-158491343D01*
X188115109Y-158416836D01*
X188189616Y-158267823D01*
X188189616Y-157671770D01*
X188115109Y-157522756D01*
X187966096Y-157448250D01*
X187668069Y-157448250D01*
X187519056Y-157522756D01*
X187444549Y-157671770D01*
X187444549Y-157820783D01*
X188189616Y-157969796D01*
X186997509Y-157448250D02*
X186401456Y-157448250D01*
X186773989Y-156926703D02*
X186773989Y-158267823D01*
X186699482Y-158416836D01*
X186550469Y-158491343D01*
X186401456Y-158491343D01*
X186028922Y-157448250D02*
X185656389Y-158491343D01*
X185283856Y-157448250D02*
X185656389Y-158491343D01*
X185805402Y-158863876D01*
X185879909Y-158938383D01*
X186028922Y-159012890D01*
X184687802Y-157448250D02*
X184687802Y-159012890D01*
X184687802Y-157522756D02*
X184538789Y-157448250D01*
X184240762Y-157448250D01*
X184091749Y-157522756D01*
X184017242Y-157597263D01*
X183942736Y-157746276D01*
X183942736Y-158193316D01*
X184017242Y-158342330D01*
X184091749Y-158416836D01*
X184240762Y-158491343D01*
X184538789Y-158491343D01*
X184687802Y-158416836D01*
X182676122Y-158416836D02*
X182825136Y-158491343D01*
X183123162Y-158491343D01*
X183272176Y-158416836D01*
X183346682Y-158267823D01*
X183346682Y-157671770D01*
X183272176Y-157522756D01*
X183123162Y-157448250D01*
X182825136Y-157448250D01*
X182676122Y-157522756D01*
X182601616Y-157671770D01*
X182601616Y-157820783D01*
X183346682Y-157969796D01*
X181111482Y-158491343D02*
X182005562Y-158491343D01*
X181558522Y-158491343D02*
X181558522Y-156926703D01*
X181707536Y-157150223D01*
X181856549Y-157299236D01*
X182005562Y-157373743D01*
X180217402Y-157597263D02*
X180366416Y-157522756D01*
X180440922Y-157448250D01*
X180515429Y-157299236D01*
X180515429Y-157224730D01*
X180440922Y-157075716D01*
X180366416Y-157001210D01*
X180217402Y-156926703D01*
X179919376Y-156926703D01*
X179770362Y-157001210D01*
X179695856Y-157075716D01*
X179621349Y-157224730D01*
X179621349Y-157299236D01*
X179695856Y-157448250D01*
X179770362Y-157522756D01*
X179919376Y-157597263D01*
X180217402Y-157597263D01*
X180366416Y-157671770D01*
X180440922Y-157746276D01*
X180515429Y-157895290D01*
X180515429Y-158193316D01*
X180440922Y-158342330D01*
X180366416Y-158416836D01*
X180217402Y-158491343D01*
X179919376Y-158491343D01*
X179770362Y-158416836D01*
X179695856Y-158342330D01*
X179621349Y-158193316D01*
X179621349Y-157895290D01*
X179695856Y-157746276D01*
X179770362Y-157671770D01*
X179919376Y-157597263D01*
X178652762Y-156926703D02*
X178503749Y-156926703D01*
X178354736Y-157001210D01*
X178280229Y-157075716D01*
X178205722Y-157224730D01*
X178131216Y-157522756D01*
X178131216Y-157895290D01*
X178205722Y-158193316D01*
X178280229Y-158342330D01*
X178354736Y-158416836D01*
X178503749Y-158491343D01*
X178652762Y-158491343D01*
X178801776Y-158416836D01*
X178876282Y-158342330D01*
X178950789Y-158193316D01*
X179025296Y-157895290D01*
X179025296Y-157522756D01*
X178950789Y-157224730D01*
X178876282Y-157075716D01*
X178801776Y-157001210D01*
X178652762Y-156926703D01*
X177237136Y-157597263D02*
X177386149Y-157522756D01*
X177460656Y-157448250D01*
X177535162Y-157299236D01*
X177535162Y-157224730D01*
X177460656Y-157075716D01*
X177386149Y-157001210D01*
X177237136Y-156926703D01*
X176939109Y-156926703D01*
X176790096Y-157001210D01*
X176715589Y-157075716D01*
X176641082Y-157224730D01*
X176641082Y-157299236D01*
X176715589Y-157448250D01*
X176790096Y-157522756D01*
X176939109Y-157597263D01*
X177237136Y-157597263D01*
X177386149Y-157671770D01*
X177460656Y-157746276D01*
X177535162Y-157895290D01*
X177535162Y-158193316D01*
X177460656Y-158342330D01*
X177386149Y-158416836D01*
X177237136Y-158491343D01*
X176939109Y-158491343D01*
X176790096Y-158416836D01*
X176715589Y-158342330D01*
X176641082Y-158193316D01*
X176641082Y-157895290D01*
X176715589Y-157746276D01*
X176790096Y-157671770D01*
X176939109Y-157597263D01*
X176045029Y-157075716D02*
X175970522Y-157001210D01*
X175821509Y-156926703D01*
X175448976Y-156926703D01*
X175299962Y-157001210D01*
X175225456Y-157075716D01*
X175150949Y-157224730D01*
X175150949Y-157373743D01*
X175225456Y-157597263D01*
X176119536Y-158491343D01*
X175150949Y-158491343D01*
X173809829Y-157448250D02*
X173809829Y-158491343D01*
X174182362Y-156852196D02*
X174554896Y-157969796D01*
X173586309Y-157969796D01*
D12*
%TO.P,SW40,2*%
%TO.N,RESET*%
X111171968Y-142502891D03*
%TO.P,SW40,1*%
%TO.N,GND*%
X105771968Y-142502891D03*
%TD*%
D13*
%TO.P,J40,6*%
%TO.N,N/C*%
X113576100Y-138245850D03*
%TO.P,J40,5*%
%TO.N,TX*%
X113576100Y-135705850D03*
%TO.P,J40,4*%
%TO.N,RX*%
X113576100Y-133165850D03*
%TO.P,J40,3*%
%TO.N,N/C*%
X113576100Y-130625850D03*
%TO.P,J40,2*%
%TO.N,GND*%
X113576100Y-128085850D03*
%TO.P,J40,1*%
X113576100Y-125545850D03*
%TD*%
D14*
%TO.P,JP2,6*%
%TO.N,GND*%
X110401100Y-116020850D03*
%TO.P,JP2,5*%
X107861100Y-116020850D03*
%TO.P,JP2,4*%
%TO.N,SCL*%
X110401100Y-118560850D03*
%TO.P,JP2,3*%
X107861100Y-118560850D03*
%TO.P,JP2,2*%
%TO.N,SDA*%
X110401100Y-121100850D03*
%TO.P,JP2,1*%
X107861100Y-121100850D03*
%TD*%
D15*
%TO.P,P1,P$5*%
%TO.N,N/C*%
X176486100Y-63633350D03*
%TO.P,P1,P$4*%
X185286100Y-63633350D03*
D16*
%TO.P,P1,P$3*%
%TO.N,AGND*%
X178386100Y-70333350D03*
%TO.P,P1,P$2*%
%TO.N,N$12*%
X180886100Y-70333350D03*
%TO.P,P1,P$1*%
%TO.N,+3V3*%
X183386100Y-70333350D03*
%TD*%
D17*
%TO.P,USB0,M4*%
%TO.N,GND*%
X112941100Y-153780850D03*
D15*
%TO.P,USB0,M2*%
X119516100Y-157965850D03*
%TO.P,USB0,M1*%
X106366100Y-157955850D03*
D18*
%TO.P,USB0,GND*%
X116441100Y-158560850D03*
%TO.P,USB0,3*%
%TO.N,DP*%
X113941100Y-158560850D03*
%TO.P,USB0,2*%
%TO.N,DM*%
X111941100Y-158560850D03*
%TO.P,USB0,1*%
%TO.N,VBUS*%
X109441100Y-158560850D03*
%TD*%
D19*
%TO.P,POP0,4*%
%TO.N,GND*%
X129527300Y-158921450D03*
%TO.P,POP0,3*%
X123024900Y-158921450D03*
%TO.P,POP0,2*%
%TO.N,NMI*%
X129527300Y-154400250D03*
%TO.P,POP0,1*%
X123024900Y-154400250D03*
%TD*%
D20*
%TO.P,U$1,20*%
%TO.N,GND*%
X124371100Y-106200850D03*
%TO.P,U$1,19*%
X126911100Y-106200850D03*
%TO.P,U$1,18*%
%TO.N,N/C*%
X129451100Y-106200850D03*
%TO.P,U$1,17*%
%TO.N,CS2*%
X131991100Y-106200850D03*
%TO.P,U$1,16*%
%TO.N,OLED-RES*%
X134531100Y-106200850D03*
%TO.P,U$1,15*%
%TO.N,N/C*%
X137071100Y-106200850D03*
%TO.P,U$1,14*%
%TO.N,GND*%
X139611100Y-106200850D03*
%TO.P,U$1,13*%
X142151100Y-106200850D03*
%TO.P,U$1,12*%
X144691100Y-106200850D03*
%TO.P,U$1,11*%
X147231100Y-106200850D03*
%TO.P,U$1,10*%
X149771100Y-106200850D03*
%TO.P,U$1,9*%
X152311100Y-106200850D03*
%TO.P,U$1,8*%
%TO.N,MOSI*%
X154851100Y-106200850D03*
%TO.P,U$1,7*%
%TO.N,SCK*%
X157391100Y-106200850D03*
%TO.P,U$1,6*%
%TO.N,GND*%
X159931100Y-106200850D03*
%TO.P,U$1,5*%
X162471100Y-106200850D03*
%TO.P,U$1,4*%
%TO.N,OLED-DC*%
X165011100Y-106200850D03*
%TO.P,U$1,3*%
%TO.N,N/C*%
X167551100Y-106200850D03*
%TO.P,U$1,2*%
%TO.N,+3V3*%
X170091100Y-106200850D03*
D21*
%TO.P,U$1,1*%
%TO.N,GND*%
X172631100Y-106200850D03*
%TD*%
D22*
%TO.P,X1,10*%
%TO.N,+IN*%
X187948600Y-125103350D03*
%TO.P,X1,9*%
X185408600Y-125103350D03*
%TO.P,X1,8*%
%TO.N,GND*%
X187948600Y-127643350D03*
%TO.P,X1,7*%
X185408600Y-127643350D03*
%TO.P,X1,6*%
X187948600Y-130183350D03*
%TO.P,X1,5*%
X185408600Y-130183350D03*
%TO.P,X1,4*%
X187948600Y-132723350D03*
%TO.P,X1,3*%
X185408600Y-132723350D03*
%TO.P,X1,2*%
%TO.N,-IN*%
X187948600Y-135263350D03*
%TO.P,X1,1*%
X185408600Y-135263350D03*
%TD*%
D14*
%TO.P,JP1,6*%
%TO.N,GND*%
X117386100Y-116020850D03*
%TO.P,JP1,5*%
X114846100Y-116020850D03*
%TO.P,JP1,4*%
%TO.N,SCL*%
X117386100Y-118560850D03*
%TO.P,JP1,3*%
X114846100Y-118560850D03*
%TO.P,JP1,2*%
%TO.N,SDA*%
X117386100Y-121100850D03*
%TO.P,JP1,1*%
X114846100Y-121100850D03*
%TD*%
D23*
%TO.P,IC2,3*%
%TO.N,+5V*%
X163106100Y-156660850D03*
%TO.P,IC2,2*%
%TO.N,GND*%
X165646100Y-156660850D03*
%TO.P,IC2,1*%
%TO.N,+12V*%
X168186100Y-156660850D03*
%TD*%
D24*
%TO.P,J1,TS*%
%TO.N,N/C*%
X111036100Y-60345850D03*
%TO.P,J1,TIP*%
%TO.N,N$38*%
X111036100Y-52045850D03*
%TO.P,J1,SLEEVE*%
%TO.N,GND*%
X111036100Y-62595850D03*
%TD*%
%TO.P,J2,TS*%
%TO.N,N/C*%
X117703600Y-73680850D03*
%TO.P,J2,TIP*%
%TO.N,N$35*%
X117703600Y-65380850D03*
%TO.P,J2,SLEEVE*%
%TO.N,GND*%
X117703600Y-75930850D03*
%TD*%
%TO.P,J3,TS*%
%TO.N,N/C*%
X124371100Y-60345850D03*
%TO.P,J3,TIP*%
%TO.N,N$36*%
X124371100Y-52045850D03*
%TO.P,J3,SLEEVE*%
%TO.N,GND*%
X124371100Y-62595850D03*
%TD*%
%TO.P,J4,TS*%
%TO.N,N/C*%
X131038600Y-73680850D03*
%TO.P,J4,TIP*%
%TO.N,N$37*%
X131038600Y-65380850D03*
%TO.P,J4,SLEEVE*%
%TO.N,GND*%
X131038600Y-75930850D03*
%TD*%
%TO.P,J9,TS*%
%TO.N,N/C*%
X137706100Y-87015850D03*
%TO.P,J9,TIP*%
%TO.N,N$8*%
X137706100Y-78715850D03*
%TO.P,J9,SLEEVE*%
%TO.N,GND*%
X137706100Y-89265850D03*
%TD*%
%TO.P,J10,TS*%
%TO.N,N/C*%
X151041100Y-87015850D03*
%TO.P,J10,TIP*%
%TO.N,N$9*%
X151041100Y-78715850D03*
%TO.P,J10,SLEEVE*%
%TO.N,GND*%
X151041100Y-89265850D03*
%TD*%
%TO.P,J11,TS*%
%TO.N,N/C*%
X164376100Y-87015850D03*
%TO.P,J11,TIP*%
%TO.N,N$10*%
X164376100Y-78715850D03*
%TO.P,J11,SLEEVE*%
%TO.N,GND*%
X164376100Y-89265850D03*
%TD*%
%TO.P,J12,TS*%
%TO.N,N/C*%
X177711100Y-87015850D03*
%TO.P,J12,TIP*%
%TO.N,N$11*%
X177711100Y-78715850D03*
%TO.P,J12,SLEEVE*%
%TO.N,GND*%
X177711100Y-89265850D03*
%TD*%
%TO.P,J13,TS*%
%TO.N,N/C*%
X144373600Y-100350850D03*
%TO.P,J13,TIP*%
%TO.N,N$32*%
X144373600Y-92050850D03*
%TO.P,J13,SLEEVE*%
%TO.N,GND*%
X144373600Y-102600850D03*
%TD*%
%TO.P,J14,TS*%
%TO.N,N/C*%
X157708600Y-100350850D03*
%TO.P,J14,TIP*%
%TO.N,N$34*%
X157708600Y-92050850D03*
%TO.P,J14,SLEEVE*%
%TO.N,GND*%
X157708600Y-102600850D03*
%TD*%
%TO.P,J15,TS*%
%TO.N,N/C*%
X171043600Y-100350850D03*
%TO.P,J15,TIP*%
%TO.N,N$21*%
X171043600Y-92050850D03*
%TO.P,J15,SLEEVE*%
%TO.N,GND*%
X171043600Y-102600850D03*
%TD*%
%TO.P,J16,TS*%
%TO.N,N/C*%
X184378600Y-100350850D03*
%TO.P,J16,TIP*%
%TO.N,N$22*%
X184378600Y-92050850D03*
%TO.P,J16,SLEEVE*%
%TO.N,GND*%
X184378600Y-102600850D03*
%TD*%
%TO.P,J17,TS*%
%TO.N,GND*%
X164376100Y-60345850D03*
%TO.P,J17,TIP*%
%TO.N,N$33*%
X164376100Y-52045850D03*
%TO.P,J17,SLEEVE*%
%TO.N,GND*%
X164376100Y-62595850D03*
%TD*%
%TO.P,J5,TS*%
%TO.N,N/C*%
X137706100Y-60345850D03*
%TO.P,J5,TIP*%
%TO.N,N$39*%
X137706100Y-52045850D03*
%TO.P,J5,SLEEVE*%
%TO.N,GND*%
X137706100Y-62595850D03*
%TD*%
%TO.P,J6,TS*%
%TO.N,N/C*%
X144373600Y-73680850D03*
%TO.P,J6,TIP*%
%TO.N,N$40*%
X144373600Y-65380850D03*
%TO.P,J6,SLEEVE*%
%TO.N,GND*%
X144373600Y-75930850D03*
%TD*%
%TO.P,J7,TS*%
%TO.N,N/C*%
X151041100Y-60345850D03*
%TO.P,J7,TIP*%
%TO.N,N$43*%
X151041100Y-52045850D03*
%TO.P,J7,SLEEVE*%
%TO.N,GND*%
X151041100Y-62595850D03*
%TD*%
%TO.P,J8,TS*%
%TO.N,N/C*%
X157708600Y-73680850D03*
%TO.P,J8,TIP*%
%TO.N,N$44*%
X157708600Y-65380850D03*
%TO.P,J8,SLEEVE*%
%TO.N,GND*%
X157708600Y-75930850D03*
%TD*%
D25*
%TO.N,A07*%
X165646100Y-66490850D03*
X153898600Y-135388350D03*
X113576100Y-82365850D03*
%TO.N,A06*%
X159296100Y-53155850D03*
X115798600Y-106178350D03*
X119291100Y-109670850D03*
X150723600Y-137293350D03*
X107861100Y-81095850D03*
%TO.N,A05*%
X152311100Y-66490850D03*
X149771100Y-137928350D03*
X113576100Y-83635850D03*
%TO.N,A04*%
X145961100Y-53155850D03*
X119926100Y-112210850D03*
D26*
X115798600Y-108083350D03*
D25*
X148501100Y-137928350D03*
X107861100Y-82365850D03*
%TO.N,A03*%
X138976100Y-66490850D03*
X147231100Y-137928350D03*
X113576100Y-84905850D03*
%TO.N,A02*%
X132626100Y-53155850D03*
X118021100Y-112528350D03*
X115798600Y-110623350D03*
X150406100Y-140150850D03*
X107861100Y-83635850D03*
%TO.N,A01*%
X125641100Y-66490850D03*
X149136100Y-140468350D03*
X113576100Y-86175850D03*
%TO.N,A00*%
X119291100Y-53155850D03*
X149136100Y-141738350D03*
X107861100Y-84905850D03*
%TO.N,CS2*%
X130721100Y-108400850D03*
X155486100Y-133483350D03*
%TO.N,OLED-RES*%
X129451100Y-111258350D03*
X150406100Y-126180850D03*
%TO.N,OLED-DC*%
X160883600Y-110305850D03*
%TO.N,RG8*%
X124371100Y-98875850D03*
X180568600Y-89985850D03*
%TO.N,RG7*%
X135483600Y-91573350D03*
X167233600Y-89985850D03*
%TO.N,RG6*%
X137388600Y-92208350D03*
X153898600Y-89985850D03*
%TO.N,N$28*%
X179616100Y-104273350D03*
X135166100Y-101415850D03*
%TO.N,N$23*%
X128181100Y-92525850D03*
X177711100Y-97605850D03*
%TO.N,N$15*%
X133896100Y-92525850D03*
X164376100Y-97605850D03*
%TO.N,N$13*%
X140246100Y-96335850D03*
X151041100Y-97605850D03*
%TO.N,N$7*%
X123101100Y-78555850D03*
X184378600Y-84588350D03*
%TO.N,N$6*%
X122148600Y-87445850D03*
X171043600Y-84588350D03*
%TO.N,N$5*%
X132626100Y-86810850D03*
X157708600Y-84588350D03*
%TO.N,N$3*%
X132626100Y-81095850D03*
X144373600Y-84588350D03*
%TO.N,N$4*%
X131991100Y-116655850D03*
X146913600Y-119830850D03*
%TO.N,AGND*%
X169773600Y-55060850D03*
D27*
X177076100Y-52838350D03*
X189776100Y-117608350D03*
D25*
X140563600Y-111575850D03*
X151041100Y-111575850D03*
D26*
X145643600Y-114750850D03*
D25*
X134531100Y-114750850D03*
X137071100Y-114433350D03*
D26*
X147866100Y-114433350D03*
D25*
X178028600Y-116655850D03*
X179616100Y-111575850D03*
%TO.N,B11*%
X124371100Y-112210850D03*
X124371100Y-117925850D03*
X145643600Y-136658350D03*
X122148600Y-82365850D03*
%TO.N,B10*%
X120878600Y-118560850D03*
X120878600Y-107448350D03*
X145643600Y-140150850D03*
X122148600Y-84905850D03*
%TO.N,B09*%
X122148600Y-121100850D03*
X122148600Y-107448350D03*
X144691100Y-140785850D03*
X124053600Y-84905850D03*
%TO.N,CV-OUT3*%
X128498600Y-97605850D03*
X144373600Y-109988350D03*
%TO.N,CV-OUT2*%
X129451100Y-96018350D03*
X147231100Y-109988350D03*
%TO.N,CV-OUT1*%
X133261100Y-109353350D03*
X130403600Y-95065850D03*
%TO.N,CV-OUT0*%
X135801100Y-109353350D03*
X130403600Y-97605850D03*
%TO.N,CV-IN1*%
X186601100Y-83635850D03*
X186601100Y-110305850D03*
%TO.N,CV-IN0*%
X187871100Y-87445850D03*
X185331100Y-109353350D03*
%TO.N,N$2*%
X129768600Y-152533350D03*
D26*
X137388600Y-155390850D03*
D25*
X138976100Y-149675850D03*
X142786100Y-143643350D03*
%TO.N,N$1*%
X130721100Y-151580850D03*
D26*
X138976100Y-154438350D03*
D25*
X140246100Y-149675850D03*
X143738600Y-142690850D03*
%TO.N,CS1*%
X143103600Y-122688350D03*
X174853600Y-112528350D03*
%TO.N,-12V*%
X125323600Y-96335850D03*
X118973600Y-83635850D03*
D27*
X175171100Y-135070850D03*
D25*
%TO.N,+12V*%
X133578600Y-96335850D03*
X127228600Y-83635850D03*
D27*
X179616100Y-125545850D03*
D25*
%TO.N,RX*%
X148183600Y-142373350D03*
X115798600Y-133165850D03*
%TO.N,B08*%
X123101100Y-108400850D03*
X123101100Y-123640850D03*
X144691100Y-142055850D03*
X124053600Y-82365850D03*
%TO.N,TX*%
X115798600Y-135705850D03*
%TO.N,SCK*%
X141516100Y-122053350D03*
X136118600Y-120148350D03*
X143103600Y-120148350D03*
%TO.N,NMI*%
X139293600Y-135229600D03*
X137071100Y-147135850D03*
%TO.N,RESET*%
X125958600Y-143325850D03*
X150088600Y-146818350D03*
X112941100Y-142690850D03*
%TO.N,+3V3*%
X138658600Y-72205850D03*
X151993600Y-72205850D03*
X165328600Y-72205850D03*
X125323600Y-72205850D03*
X158661100Y-58870850D03*
X145326100Y-58870850D03*
X131991100Y-58870850D03*
X118656100Y-58870850D03*
X126593600Y-132213350D03*
D27*
X173266100Y-52838350D03*
D25*
X182156100Y-117925850D03*
X116433600Y-140785850D03*
D26*
X139928600Y-155390850D03*
D27*
X159613600Y-131895850D03*
D25*
X153263600Y-132213350D03*
X182791100Y-109035850D03*
X138341100Y-118878350D03*
X148818600Y-118878350D03*
%TO.N,SDA*%
X122466100Y-133165850D03*
X142468600Y-141103350D03*
%TO.N,SCL*%
X121196100Y-131260850D03*
X142468600Y-142373350D03*
%TO.N,MOSI*%
X150088600Y-120783350D03*
X143738600Y-118878350D03*
%TO.N,MISO*%
X145961100Y-123640850D03*
X184061100Y-112210850D03*
D28*
%TO.N,+5V*%
X111671100Y-144595850D03*
X135801100Y-158565850D03*
X133896100Y-158565850D03*
D27*
X121831100Y-148723350D03*
D25*
%TO.N,USB-VBOF*%
X132308600Y-149675850D03*
X149771100Y-143643350D03*
%TO.N,USB-OC*%
X152311100Y-145548350D03*
D27*
X121831100Y-145865850D03*
D25*
X129768600Y-149358350D03*
D26*
%TO.N,VBUS*%
X128181100Y-149675850D03*
D25*
X135483600Y-150628350D03*
X144691100Y-143325850D03*
D27*
X121831100Y-147135850D03*
D25*
%TO.N,VDDIN*%
X157391100Y-128085850D03*
X148501100Y-131895850D03*
%TO.N,VDDOUT*%
X148501100Y-135229600D03*
X144373600Y-146818350D03*
X153898600Y-139515850D03*
X146596100Y-146818350D03*
%TO.N,VDDIO*%
X151358600Y-146818350D03*
X155803600Y-128085850D03*
X142151100Y-131895850D03*
X139611100Y-143960850D03*
%TO.N,GND*%
X156756100Y-148405850D03*
X185331100Y-89985850D03*
X143738600Y-78238350D03*
X157073600Y-78238350D03*
X170408600Y-78238350D03*
X183743600Y-78238350D03*
X130086100Y-83635850D03*
X163106100Y-67125850D03*
X149771100Y-67125850D03*
X136436100Y-67125850D03*
X123101100Y-67125850D03*
X156121100Y-53790850D03*
X142786100Y-53790850D03*
X129451100Y-53790850D03*
X116116100Y-53790850D03*
D27*
X178981100Y-130308350D03*
X175171100Y-131578350D03*
X175171100Y-129990850D03*
D25*
X136436100Y-96335850D03*
X122466100Y-96335850D03*
X114846100Y-140785850D03*
D26*
X116751100Y-145230850D03*
D29*
X106591100Y-140785850D03*
D26*
X134531100Y-156343350D03*
D27*
X168821100Y-123323350D03*
D26*
X163741100Y-135388350D03*
D25*
X148183600Y-146818350D03*
X145326100Y-128085850D03*
X148501100Y-128085850D03*
X116116100Y-83635850D03*
X107861100Y-86175850D03*
D27*
X189776100Y-121418350D03*
D25*
X115798600Y-126180850D03*
X115798600Y-128085850D03*
X151358600Y-150628350D03*
X140246100Y-147770850D03*
X151041100Y-133324600D03*
X157708600Y-138880850D03*
X142151100Y-128085850D03*
X151676100Y-128085850D03*
X137706100Y-139515850D03*
X153581100Y-143960850D03*
X145008600Y-150628350D03*
X142151100Y-146500850D03*
X145326100Y-131895850D03*
D27*
X126276100Y-149040850D03*
%TD*%
D30*
%TO.N,A07*%
X162153600Y-69983350D02*
X165646100Y-66490850D01*
D31*
X118656100Y-107765850D02*
X137388600Y-126498350D01*
X118656100Y-103955850D02*
X118656100Y-107765850D01*
X115481100Y-100780850D02*
X118656100Y-103955850D01*
X142786100Y-126498350D02*
X137388600Y-126498350D01*
X143738600Y-127450850D02*
X142786100Y-126498350D01*
X143738600Y-128403350D02*
X143738600Y-127450850D01*
X150723600Y-135388350D02*
X143738600Y-128403350D01*
X153898600Y-135388350D02*
X150723600Y-135388350D01*
X115481100Y-100145850D02*
X115481100Y-100780850D01*
D30*
X115481100Y-87763350D02*
X115481100Y-100145850D01*
X115798600Y-87445850D02*
X115481100Y-87763350D01*
X115798600Y-84588350D02*
X115798600Y-87445850D01*
X113576100Y-82365850D02*
X115798600Y-84588350D01*
X113576100Y-75380850D02*
X113576100Y-82365850D01*
X118973600Y-69983350D02*
X113576100Y-75380850D01*
X162153600Y-69983350D02*
X118973600Y-69983350D01*
%TO.N,A06*%
X155486100Y-56965850D02*
X159296100Y-53155850D01*
D31*
X115798600Y-103638350D02*
X115798600Y-106178350D01*
X136753600Y-127133350D02*
X119291100Y-109670850D01*
X142468600Y-127133350D02*
X136753600Y-127133350D01*
X143103600Y-127768350D02*
X142468600Y-127133350D01*
X143103600Y-128403350D02*
X143103600Y-127768350D01*
X150723600Y-136023350D02*
X143103600Y-128403350D01*
X150723600Y-137293350D02*
X150723600Y-136023350D01*
X112941100Y-100780850D02*
X115798600Y-103638350D01*
X112941100Y-98875850D02*
X112941100Y-100780850D01*
X110401100Y-96335850D02*
X112941100Y-98875850D01*
D30*
X110401100Y-83635850D02*
X110401100Y-96335850D01*
X107861100Y-81095850D02*
X110401100Y-83635850D01*
X107226100Y-80460850D02*
X107861100Y-81095850D01*
X107226100Y-62045850D02*
X107226100Y-80460850D01*
X112306100Y-56965850D02*
X107226100Y-62045850D01*
X155486100Y-56965850D02*
X112306100Y-56965850D01*
%TO.N,A05*%
X149453600Y-69348350D02*
X152311100Y-66490850D01*
D31*
X119608600Y-110623350D02*
X137071100Y-128085850D01*
X118973600Y-110623350D02*
X119608600Y-110623350D01*
X118021100Y-109670850D02*
X118973600Y-110623350D01*
X118021100Y-103955850D02*
X118021100Y-109670850D01*
X140881100Y-128085850D02*
X137071100Y-128085850D01*
X144373600Y-131578350D02*
X140881100Y-128085850D01*
X144373600Y-132530850D02*
X144373600Y-131578350D01*
X149771100Y-137928350D02*
X144373600Y-132530850D01*
X114846100Y-100780850D02*
X118021100Y-103955850D01*
X114846100Y-100145850D02*
X114846100Y-100780850D01*
D30*
X114846100Y-87445850D02*
X114846100Y-100145850D01*
X115163600Y-87128350D02*
X114846100Y-87445850D01*
X115163600Y-85223350D02*
X115163600Y-87128350D01*
X113576100Y-83635850D02*
X115163600Y-85223350D01*
X112623600Y-82683350D02*
X113576100Y-83635850D01*
X112623600Y-75063350D02*
X112623600Y-82683350D01*
X118338600Y-69348350D02*
X112623600Y-75063350D01*
X149453600Y-69348350D02*
X118338600Y-69348350D01*
%TO.N,A04*%
X142786100Y-56330850D02*
X145961100Y-53155850D01*
D31*
X121196100Y-112845850D02*
X137071100Y-128720850D01*
X120561100Y-112845850D02*
X121196100Y-112845850D01*
X119926100Y-112210850D02*
X120561100Y-112845850D01*
X114846100Y-107130850D02*
X115798600Y-108083350D01*
X114846100Y-103320850D02*
X114846100Y-107130850D01*
X140881100Y-128720850D02*
X137071100Y-128720850D01*
X143738600Y-131578350D02*
X140881100Y-128720850D01*
X143738600Y-132848350D02*
X143738600Y-131578350D01*
X147231100Y-136340850D02*
X143738600Y-132848350D01*
X147231100Y-136658350D02*
X147231100Y-136340850D01*
X148501100Y-137928350D02*
X147231100Y-136658350D01*
X112306100Y-100780850D02*
X114846100Y-103320850D01*
X112306100Y-99510850D02*
X112306100Y-100780850D01*
X109766100Y-96970850D02*
X112306100Y-99510850D01*
X109766100Y-96335850D02*
X109766100Y-96970850D01*
D30*
X109766100Y-84270850D02*
X109766100Y-96335850D01*
X107861100Y-82365850D02*
X109766100Y-84270850D01*
X106591100Y-81095850D02*
X107861100Y-82365850D01*
X106591100Y-61410850D02*
X106591100Y-81095850D01*
X111671100Y-56330850D02*
X106591100Y-61410850D01*
X142786100Y-56330850D02*
X111671100Y-56330850D01*
%TO.N,A03*%
X136753600Y-68713350D02*
X138976100Y-66490850D01*
D31*
X124371100Y-116655850D02*
X137071100Y-129355850D01*
X122466100Y-116655850D02*
X124371100Y-116655850D01*
X118973600Y-113163350D02*
X122466100Y-116655850D01*
X118973600Y-112210850D02*
X118973600Y-113163350D01*
X117386100Y-110623350D02*
X118973600Y-112210850D01*
X117386100Y-103955850D02*
X117386100Y-110623350D01*
X140881100Y-129355850D02*
X137071100Y-129355850D01*
X143103600Y-131578350D02*
X140881100Y-129355850D01*
X143103600Y-132848350D02*
X143103600Y-131578350D01*
X146596100Y-136340850D02*
X143103600Y-132848350D01*
X146596100Y-137293350D02*
X146596100Y-136340850D01*
X147231100Y-137928350D02*
X146596100Y-137293350D01*
X114211100Y-100780850D02*
X117386100Y-103955850D01*
X114211100Y-100145850D02*
X114211100Y-100780850D01*
D30*
X114211100Y-86810850D02*
X114211100Y-100145850D01*
X114528600Y-86493350D02*
X114211100Y-86810850D01*
X114528600Y-85858350D02*
X114528600Y-86493350D01*
X113576100Y-84905850D02*
X114528600Y-85858350D01*
X111988600Y-83318350D02*
X113576100Y-84905850D01*
X111988600Y-74428350D02*
X111988600Y-83318350D01*
X117703600Y-68713350D02*
X111988600Y-74428350D01*
X136753600Y-68713350D02*
X117703600Y-68713350D01*
%TO.N,A02*%
X130086100Y-55695850D02*
X132626100Y-53155850D01*
D31*
X118021100Y-113163350D02*
X118021100Y-112528350D01*
X127863600Y-123005850D02*
X118021100Y-113163350D01*
X129451100Y-123005850D02*
X127863600Y-123005850D01*
X137071100Y-130625850D02*
X129451100Y-123005850D01*
X114211100Y-109035850D02*
X115798600Y-110623350D01*
X114211100Y-103320850D02*
X114211100Y-109035850D01*
X138976100Y-130625850D02*
X137071100Y-130625850D01*
X143421100Y-135070850D02*
X138976100Y-130625850D01*
X143421100Y-136975850D02*
X143421100Y-135070850D01*
X144373600Y-137928350D02*
X143421100Y-136975850D01*
X145961100Y-137928350D02*
X144373600Y-137928350D01*
X147548600Y-139515850D02*
X145961100Y-137928350D01*
X149771100Y-139515850D02*
X147548600Y-139515850D01*
X150406100Y-140150850D02*
X149771100Y-139515850D01*
X111671100Y-100780850D02*
X114211100Y-103320850D01*
X111671100Y-100145850D02*
X111671100Y-100780850D01*
X109131100Y-97605850D02*
X111671100Y-100145850D01*
X109131100Y-96335850D02*
X109131100Y-97605850D01*
D30*
X109131100Y-84905850D02*
X109131100Y-96335850D01*
X107861100Y-83635850D02*
X109131100Y-84905850D01*
X105956100Y-81730850D02*
X107861100Y-83635850D01*
X105956100Y-60775850D02*
X105956100Y-81730850D01*
X111036100Y-55695850D02*
X105956100Y-60775850D01*
X130086100Y-55695850D02*
X111036100Y-55695850D01*
%TO.N,A01*%
X124053600Y-68078350D02*
X125641100Y-66490850D01*
D31*
X129451100Y-123640850D02*
X137071100Y-131260850D01*
X127863600Y-123640850D02*
X129451100Y-123640850D01*
X116751100Y-112528350D02*
X127863600Y-123640850D01*
X116751100Y-103955850D02*
X116751100Y-112528350D01*
X138976100Y-131260850D02*
X137071100Y-131260850D01*
X142786100Y-135070850D02*
X138976100Y-131260850D01*
X142786100Y-136975850D02*
X142786100Y-135070850D01*
X144373600Y-138563350D02*
X142786100Y-136975850D01*
X145961100Y-138563350D02*
X144373600Y-138563350D01*
X147866100Y-140468350D02*
X145961100Y-138563350D01*
X149136100Y-140468350D02*
X147866100Y-140468350D01*
X113576100Y-100780850D02*
X116751100Y-103955850D01*
X113576100Y-100145850D02*
X113576100Y-100780850D01*
D30*
X113576100Y-86175850D02*
X113576100Y-100145850D01*
X111353600Y-83953350D02*
X113576100Y-86175850D01*
X111353600Y-73793350D02*
X111353600Y-83953350D01*
X117068600Y-68078350D02*
X111353600Y-73793350D01*
X124053600Y-68078350D02*
X117068600Y-68078350D01*
%TO.N,A00*%
X117386100Y-55060850D02*
X119291100Y-53155850D01*
D31*
X129451100Y-124275850D02*
X137071100Y-131895850D01*
X127863600Y-124275850D02*
X129451100Y-124275850D01*
X113576100Y-109988350D02*
X127863600Y-124275850D01*
X113576100Y-103320850D02*
X113576100Y-109988350D01*
X138976100Y-131895850D02*
X137071100Y-131895850D01*
X142151100Y-135070850D02*
X138976100Y-131895850D01*
X142151100Y-136975850D02*
X142151100Y-135070850D01*
X144373600Y-139198350D02*
X142151100Y-136975850D01*
X145961100Y-139198350D02*
X144373600Y-139198350D01*
X147866100Y-141103350D02*
X145961100Y-139198350D01*
X148501100Y-141103350D02*
X147866100Y-141103350D01*
X149136100Y-141738350D02*
X148501100Y-141103350D01*
X108496100Y-98240850D02*
X113576100Y-103320850D01*
X108496100Y-96335850D02*
X108496100Y-98240850D01*
D30*
X108496100Y-88080850D02*
X108496100Y-96335850D01*
X106908600Y-86493350D02*
X108496100Y-88080850D01*
X106908600Y-85858350D02*
X106908600Y-86493350D01*
X107861100Y-84905850D02*
X106908600Y-85858350D01*
X105321100Y-82365850D02*
X107861100Y-84905850D01*
X105321100Y-60140850D02*
X105321100Y-82365850D01*
X110401100Y-55060850D02*
X105321100Y-60140850D01*
X117386100Y-55060850D02*
X110401100Y-55060850D01*
D31*
%TO.N,CS2*%
X130721100Y-117290850D02*
X130721100Y-108400850D01*
X138341100Y-124910850D02*
X130721100Y-117290850D01*
X151041100Y-124910850D02*
X138341100Y-124910850D01*
X154533600Y-128403350D02*
X151041100Y-124910850D01*
X154533600Y-132530850D02*
X154533600Y-128403350D01*
X155486100Y-133483350D02*
X154533600Y-132530850D01*
%TO.N,OLED-RES*%
X129451100Y-116655850D02*
X129451100Y-111258350D01*
X138341100Y-125545850D02*
X129451100Y-116655850D01*
X149771100Y-125545850D02*
X138341100Y-125545850D01*
X150406100Y-126180850D02*
X149771100Y-125545850D01*
%TO.N,OLED-DC*%
X164988600Y-106200850D02*
X160883600Y-110305850D01*
X165011100Y-106200850D02*
X164988600Y-106200850D01*
D30*
%TO.N,RG8*%
X124371100Y-95065850D02*
X124371100Y-98875850D01*
X128181100Y-91255850D02*
X124371100Y-95065850D01*
X133896100Y-91255850D02*
X128181100Y-91255850D01*
X137388600Y-94748350D02*
X133896100Y-91255850D01*
X175806100Y-94748350D02*
X137388600Y-94748350D01*
X180568600Y-89985850D02*
X175806100Y-94748350D01*
%TO.N,RG7*%
X138023600Y-94113350D02*
X135483600Y-91573350D01*
X163106100Y-94113350D02*
X138023600Y-94113350D01*
X167233600Y-89985850D02*
X163106100Y-94113350D01*
%TO.N,RG6*%
X138658600Y-93478350D02*
X137388600Y-92208350D01*
X150406100Y-93478350D02*
X138658600Y-93478350D01*
X153898600Y-89985850D02*
X150406100Y-93478350D01*
%TO.N,N$28*%
X135166100Y-101415850D02*
X138023600Y-104273350D01*
X179616100Y-104273350D02*
X138023600Y-104273350D01*
%TO.N,N$23*%
X129451100Y-92525850D02*
X128181100Y-92525850D01*
X132308600Y-95383350D02*
X129451100Y-92525850D01*
X132308600Y-96970850D02*
X132308600Y-95383350D01*
X133261100Y-97923350D02*
X132308600Y-96970850D01*
X148183600Y-97923350D02*
X133261100Y-97923350D01*
X149771100Y-99510850D02*
X148183600Y-97923350D01*
X152311100Y-99510850D02*
X149771100Y-99510850D01*
X152946100Y-98875850D02*
X152311100Y-99510850D01*
X176441100Y-98875850D02*
X152946100Y-98875850D01*
X177711100Y-97605850D02*
X176441100Y-98875850D01*
%TO.N,N$15*%
X134531100Y-93160850D02*
X133896100Y-92525850D01*
X134531100Y-96653350D02*
X134531100Y-93160850D01*
X135166100Y-97288350D02*
X134531100Y-96653350D01*
X148818600Y-97288350D02*
X135166100Y-97288350D01*
X150406100Y-98875850D02*
X148818600Y-97288350D01*
X151676100Y-98875850D02*
X150406100Y-98875850D01*
X152946100Y-97605850D02*
X151676100Y-98875850D01*
X164376100Y-97605850D02*
X152946100Y-97605850D01*
%TO.N,N$13*%
X149771100Y-96335850D02*
X151041100Y-97605850D01*
X140246100Y-96335850D02*
X149771100Y-96335850D01*
%TO.N,N$7*%
X133896100Y-78555850D02*
X123101100Y-78555850D01*
X135483600Y-80143350D02*
X133896100Y-78555850D01*
X179933600Y-80143350D02*
X135483600Y-80143350D01*
X184378600Y-84588350D02*
X179933600Y-80143350D01*
%TO.N,N$6*%
X125006100Y-79825850D02*
X133896100Y-79825850D01*
X123101100Y-81730850D02*
X125006100Y-79825850D01*
X123101100Y-86493350D02*
X123101100Y-81730850D01*
X122148600Y-87445850D02*
X123101100Y-86493350D01*
X134848600Y-80778350D02*
X133896100Y-79825850D01*
X167233600Y-80778350D02*
X134848600Y-80778350D01*
X171043600Y-84588350D02*
X167233600Y-80778350D01*
%TO.N,N$5*%
X152311100Y-85540850D02*
X153263600Y-84588350D01*
X135166100Y-85540850D02*
X152311100Y-85540850D01*
X133896100Y-86810850D02*
X135166100Y-85540850D01*
X132626100Y-86810850D02*
X133896100Y-86810850D01*
X157708600Y-84588350D02*
X153263600Y-84588350D01*
%TO.N,N$3*%
X132626100Y-81095850D02*
X134213600Y-81095850D01*
X137706100Y-84588350D02*
X134213600Y-81095850D01*
X144373600Y-84588350D02*
X137706100Y-84588350D01*
D31*
%TO.N,N$4*%
X143738600Y-116655850D02*
X146913600Y-119830850D01*
X131991100Y-116655850D02*
X143738600Y-116655850D01*
%TO.N,B11*%
X125006100Y-117925850D02*
X124371100Y-117925850D01*
X137071100Y-129990850D02*
X125006100Y-117925850D01*
X119291100Y-107130850D02*
X124371100Y-112210850D01*
X119291100Y-103955850D02*
X119291100Y-107130850D01*
X117386100Y-102050850D02*
X119291100Y-103955850D01*
X138976100Y-129990850D02*
X137071100Y-129990850D01*
X145643600Y-136658350D02*
X138976100Y-129990850D01*
X117386100Y-100145850D02*
X117386100Y-102050850D01*
D30*
X117386100Y-91255850D02*
X117386100Y-100145850D01*
X120561100Y-88080850D02*
X117386100Y-91255850D01*
X120561100Y-83953350D02*
X120561100Y-88080850D01*
X122148600Y-82365850D02*
X120561100Y-83953350D01*
D31*
%TO.N,B10*%
X127228600Y-124910850D02*
X120878600Y-118560850D01*
X129451100Y-124910850D02*
X127228600Y-124910850D01*
X137071100Y-132530850D02*
X129451100Y-124910850D01*
X138976100Y-132530850D02*
X137071100Y-132530850D01*
X141516100Y-135070850D02*
X138976100Y-132530850D01*
X141516100Y-136975850D02*
X141516100Y-135070850D01*
X144373600Y-139833350D02*
X141516100Y-136975850D01*
X145326100Y-139833350D02*
X144373600Y-139833350D01*
X145643600Y-140150850D02*
X145326100Y-139833350D01*
X120878600Y-104273350D02*
X120878600Y-107448350D01*
X118021100Y-101415850D02*
X120878600Y-104273350D01*
X118021100Y-100145850D02*
X118021100Y-101415850D01*
D30*
X118021100Y-91890850D02*
X118021100Y-100145850D01*
X121196100Y-88715850D02*
X118021100Y-91890850D01*
X121196100Y-86810850D02*
X121196100Y-88715850D01*
X122148600Y-85858350D02*
X121196100Y-86810850D01*
X122148600Y-84905850D02*
X122148600Y-85858350D01*
D31*
%TO.N,B09*%
X126593600Y-125545850D02*
X129451100Y-125545850D01*
X122148600Y-121100850D02*
X126593600Y-125545850D01*
X137071100Y-133165850D02*
X129451100Y-125545850D01*
X138976100Y-133165850D02*
X137071100Y-133165850D01*
X140881100Y-135070850D02*
X138976100Y-133165850D01*
X140881100Y-136975850D02*
X140881100Y-135070850D01*
X144691100Y-140785850D02*
X140881100Y-136975850D01*
X122148600Y-104273350D02*
X122148600Y-107448350D01*
X118656100Y-100780850D02*
X122148600Y-104273350D01*
X118656100Y-100145850D02*
X118656100Y-100780850D01*
D30*
X118656100Y-92525850D02*
X118656100Y-100145850D01*
X124053600Y-87128350D02*
X118656100Y-92525850D01*
X124053600Y-84905850D02*
X124053600Y-87128350D01*
D31*
%TO.N,CV-OUT3*%
X138976100Y-109988350D02*
X144373600Y-109988350D01*
X135801100Y-106813350D02*
X138976100Y-109988350D01*
X135801100Y-104590850D02*
X135801100Y-106813350D01*
X128816100Y-97605850D02*
X135801100Y-104590850D01*
X128498600Y-97605850D02*
X128816100Y-97605850D01*
%TO.N,CV-OUT2*%
X145961100Y-108718350D02*
X147231100Y-109988350D01*
X139928600Y-108718350D02*
X145961100Y-108718350D01*
X138341100Y-107130850D02*
X139928600Y-108718350D01*
X138341100Y-105860850D02*
X138341100Y-107130850D01*
X131356100Y-98875850D02*
X138341100Y-105860850D01*
X131356100Y-96970850D02*
X131356100Y-98875850D01*
X130403600Y-96018350D02*
X131356100Y-96970850D01*
X129451100Y-96018350D02*
X130403600Y-96018350D01*
%TO.N,CV-OUT1*%
X130721100Y-106813350D02*
X133261100Y-109353350D01*
X130721100Y-104590850D02*
X130721100Y-106813350D01*
X126276100Y-100145850D02*
X130721100Y-104590850D01*
X126276100Y-96970850D02*
X126276100Y-100145850D01*
X128181100Y-95065850D02*
X126276100Y-96970850D01*
X130403600Y-95065850D02*
X128181100Y-95065850D01*
%TO.N,CV-OUT0*%
X129768600Y-97605850D02*
X130403600Y-97605850D01*
X128816100Y-96653350D02*
X129768600Y-97605850D01*
X127863600Y-96653350D02*
X128816100Y-96653350D01*
X127228600Y-97288350D02*
X127863600Y-96653350D01*
X127228600Y-99510850D02*
X127228600Y-97288350D01*
X133261100Y-105543350D02*
X127228600Y-99510850D01*
X133261100Y-106813350D02*
X133261100Y-105543350D01*
X135801100Y-109353350D02*
X133261100Y-106813350D01*
D30*
%TO.N,CV-IN1*%
X186601100Y-106495850D02*
X186601100Y-83635850D01*
X184061100Y-109035850D02*
X186601100Y-106495850D01*
X184061100Y-109670850D02*
X184061100Y-109035850D01*
X184696100Y-110305850D02*
X184061100Y-109670850D01*
X186601100Y-110305850D02*
X184696100Y-110305850D01*
%TO.N,CV-IN0*%
X187236100Y-107448350D02*
X185331100Y-109353350D01*
X187236100Y-88080850D02*
X187236100Y-107448350D01*
X187871100Y-87445850D02*
X187236100Y-88080850D01*
D31*
%TO.N,N$2*%
X130403600Y-152533350D02*
X129768600Y-152533350D01*
X133261100Y-155390850D02*
X130403600Y-152533350D01*
X137388600Y-155390850D02*
X133261100Y-155390850D01*
X139928600Y-148723350D02*
X138976100Y-149675850D01*
X140563600Y-148723350D02*
X139928600Y-148723350D01*
X141198600Y-148088350D02*
X140563600Y-148723350D01*
X141198600Y-146183350D02*
X141198600Y-148088350D01*
X142786100Y-144595850D02*
X141198600Y-146183350D01*
X142786100Y-143643350D02*
X142786100Y-144595850D01*
%TO.N,N$1*%
X133578600Y-154438350D02*
X130721100Y-151580850D01*
X138976100Y-154438350D02*
X133578600Y-154438350D01*
X143738600Y-146183350D02*
X140246100Y-149675850D01*
X143738600Y-142690850D02*
X143738600Y-146183350D01*
%TO.N,CS1*%
X160883600Y-112528350D02*
X174853600Y-112528350D01*
X150723600Y-122688350D02*
X160883600Y-112528350D01*
X143103600Y-122688350D02*
X150723600Y-122688350D01*
%TO.N,RX*%
X117386100Y-133165850D02*
X115798600Y-133165850D01*
X133896100Y-149675850D02*
X117386100Y-133165850D01*
X133896100Y-150310850D02*
X133896100Y-149675850D01*
X135166100Y-151580850D02*
X133896100Y-150310850D01*
X145326100Y-151580850D02*
X135166100Y-151580850D01*
X147389850Y-149517100D02*
X145326100Y-151580850D01*
X147389850Y-146342100D02*
X147389850Y-149517100D01*
X148183600Y-145548350D02*
X147389850Y-146342100D01*
X148183600Y-142373350D02*
X148183600Y-145548350D01*
X113576100Y-133165850D02*
X115798600Y-133165850D01*
%TO.N,B08*%
X123101100Y-108400850D02*
X123101100Y-103955850D01*
X125641100Y-126180850D02*
X123101100Y-123640850D01*
X129451100Y-126180850D02*
X125641100Y-126180850D01*
X137071100Y-133800850D02*
X129451100Y-126180850D01*
X138976100Y-133800850D02*
X137071100Y-133800850D01*
X140246100Y-135070850D02*
X138976100Y-133800850D01*
X140246100Y-137610850D02*
X140246100Y-135070850D01*
X144691100Y-142055850D02*
X140246100Y-137610850D01*
X119291100Y-100145850D02*
X123101100Y-103955850D01*
D30*
X119291100Y-93160850D02*
X119291100Y-100145850D01*
X125006100Y-87445850D02*
X119291100Y-93160850D01*
X125006100Y-83318350D02*
X125006100Y-87445850D01*
X124053600Y-82365850D02*
X125006100Y-83318350D01*
D31*
%TO.N,TX*%
X113576100Y-135705850D02*
X115798600Y-135705850D01*
%TO.N,SCK*%
X144691100Y-121735850D02*
X143103600Y-120148350D01*
X150406100Y-121735850D02*
X144691100Y-121735850D01*
X157391100Y-114750850D02*
X150406100Y-121735850D01*
X157391100Y-106200850D02*
X157391100Y-114750850D01*
X141516100Y-122053350D02*
X141516100Y-120148350D01*
X141516100Y-120148350D02*
X136118600Y-120148350D01*
X143103600Y-120148350D02*
X141516100Y-120148350D01*
%TO.N,NMI*%
X138658600Y-143643350D02*
X138658600Y-145548350D01*
X139293600Y-143008350D02*
X138658600Y-143643350D01*
X139293600Y-135229600D02*
X139293600Y-143008350D01*
X138658600Y-145548350D02*
X137071100Y-147135850D01*
%TO.N,RESET*%
X131038600Y-148405850D02*
X125958600Y-143325850D01*
X131038600Y-149675850D02*
X131038600Y-148405850D01*
X134213600Y-152850850D02*
X131038600Y-149675850D01*
X146596100Y-152850850D02*
X134213600Y-152850850D01*
X150088600Y-149358350D02*
X146596100Y-152850850D01*
X150088600Y-146818350D02*
X150088600Y-149358350D01*
D32*
X111359928Y-142690850D02*
X111171968Y-142502891D01*
X112941100Y-142690850D02*
X111359928Y-142690850D01*
%TO.N,+3V3*%
X175806100Y-69030850D02*
X183386100Y-69030850D01*
X172631100Y-72205850D02*
X175806100Y-69030850D01*
X165328600Y-72205850D02*
X172631100Y-72205850D01*
X151993600Y-72205850D02*
X165328600Y-72205850D01*
X138658600Y-72205850D02*
X151993600Y-72205850D01*
X125323600Y-72205850D02*
X138658600Y-72205850D01*
X158661100Y-58870850D02*
X176441100Y-58870850D01*
X145326100Y-58870850D02*
X158661100Y-58870850D01*
X131991100Y-58870850D02*
X145326100Y-58870850D01*
X118656100Y-58870850D02*
X131991100Y-58870850D01*
D33*
X176441100Y-56013350D02*
X173266100Y-52838350D01*
X176441100Y-58870850D02*
X176441100Y-56013350D01*
X183386100Y-65815850D02*
X176441100Y-58870850D01*
X183386100Y-69030850D02*
X183386100Y-65815850D01*
X183386100Y-70333350D02*
X183386100Y-69030850D01*
X163423600Y-128085850D02*
X159613600Y-131895850D01*
X175171100Y-128085850D02*
X163423600Y-128085850D01*
X191046100Y-112210850D02*
X175171100Y-128085850D01*
X191046100Y-78555850D02*
X191046100Y-112210850D01*
X183623600Y-71133350D02*
X191046100Y-78555850D01*
X183386100Y-70333350D02*
X183623600Y-71133350D01*
D30*
%TO.N,SDA*%
X110401100Y-121100850D02*
X107861100Y-121100850D01*
X114846100Y-121100850D02*
X110401100Y-121100850D01*
X117386100Y-121100850D02*
X114846100Y-121100850D01*
X118656100Y-122370850D02*
X117386100Y-121100850D01*
X118656100Y-123005850D02*
X118656100Y-122370850D01*
D31*
X122466100Y-126815850D02*
X118656100Y-123005850D01*
X122466100Y-133165850D02*
X122466100Y-126815850D01*
X122466100Y-136340850D02*
X122466100Y-133165850D01*
X134213600Y-148088350D02*
X122466100Y-136340850D01*
X137388600Y-148088350D02*
X134213600Y-148088350D01*
X140563600Y-144913350D02*
X137388600Y-148088350D01*
X140563600Y-143008350D02*
X140563600Y-144913350D01*
X142468600Y-141103350D02*
X140563600Y-143008350D01*
D30*
%TO.N,SCL*%
X117386100Y-118560850D02*
X114846100Y-118560850D01*
X114846100Y-118560850D02*
X110401100Y-118560850D01*
X107861100Y-118560850D02*
X110401100Y-118560850D01*
X105956100Y-120465850D02*
X107861100Y-118560850D01*
D31*
X105956100Y-122370850D02*
X105956100Y-120465850D01*
X106591100Y-123005850D02*
X105956100Y-122370850D01*
X117386100Y-123005850D02*
X106591100Y-123005850D01*
X121196100Y-126815850D02*
X117386100Y-123005850D01*
X121196100Y-131260850D02*
X121196100Y-126815850D01*
X121196100Y-136023350D02*
X121196100Y-131260850D01*
X133896100Y-148723350D02*
X121196100Y-136023350D01*
X137706100Y-148723350D02*
X133896100Y-148723350D01*
X141198600Y-145230850D02*
X137706100Y-148723350D01*
X141198600Y-143643350D02*
X141198600Y-145230850D01*
X142468600Y-142373350D02*
X141198600Y-143643350D01*
%TO.N,MOSI*%
X154851100Y-116020850D02*
X154851100Y-106200850D01*
X150088600Y-120783350D02*
X154851100Y-116020850D01*
X146596100Y-120783350D02*
X150088600Y-120783350D01*
X144691100Y-118878350D02*
X146596100Y-120783350D01*
X143738600Y-118878350D02*
X144691100Y-118878350D01*
%TO.N,MISO*%
X151041100Y-123640850D02*
X145961100Y-123640850D01*
X160566100Y-114115850D02*
X151041100Y-123640850D01*
X182156100Y-114115850D02*
X160566100Y-114115850D01*
X184061100Y-112210850D02*
X182156100Y-114115850D01*
%TO.N,USB-VBOF*%
X132308600Y-149675850D02*
X134848600Y-152215850D01*
X145961100Y-152215850D02*
X134848600Y-152215850D01*
X149136100Y-149040850D02*
X145961100Y-152215850D01*
X149136100Y-146500850D02*
X149136100Y-149040850D01*
X149771100Y-145865850D02*
X149136100Y-146500850D01*
X149771100Y-143643350D02*
X149771100Y-145865850D01*
%TO.N,USB-OC*%
X129768600Y-149358350D02*
X133896100Y-153485850D01*
X147231100Y-153485850D02*
X133896100Y-153485850D01*
X152311100Y-148088350D02*
X147231100Y-153485850D01*
X152311100Y-145548350D02*
X152311100Y-148088350D01*
D30*
X126276100Y-145865850D02*
X121831100Y-145865850D01*
X129768600Y-149358350D02*
X126276100Y-145865850D01*
D31*
%TO.N,VBUS*%
X125641100Y-147135850D02*
X121831100Y-147135850D01*
X128181100Y-149675850D02*
X125641100Y-147135850D01*
X141833600Y-150628350D02*
X135483600Y-150628350D01*
X145326100Y-147135850D02*
X141833600Y-150628350D01*
X145326100Y-143960850D02*
X145326100Y-147135850D01*
X144691100Y-143325850D02*
X145326100Y-143960850D01*
D32*
%TO.N,GND*%
X105771968Y-141554219D02*
X106591100Y-140785850D01*
X105771968Y-142502891D02*
X105771968Y-141554219D01*
D31*
X115163600Y-125545850D02*
X115798600Y-126180850D01*
X113576100Y-125545850D02*
X115163600Y-125545850D01*
X113576100Y-128085850D02*
X115798600Y-128085850D01*
%TD*%
M02*
