%TF.GenerationSoftware,KiCad,Pcbnew,6.0.11*%
%TF.CreationDate,2023-03-20T20:23:43+01:00*%
%TF.ProjectId,teletype-180824-no-slots,74656c65-7479-4706-952d-313830383234,rev?*%
%TF.SameCoordinates,Original*%
%TF.FileFunction,Soldermask,Top*%
%TF.FilePolarity,Negative*%
%FSLAX46Y46*%
G04 Gerber Fmt 4.6, Leading zero omitted, Abs format (unit mm)*
G04 Created by KiCad (PCBNEW 6.0.11) date 2023-03-20 20:23:43*
%MOMM*%
%LPD*%
G01*
G04 APERTURE LIST*
G04 Aperture macros list*
%AMRoundRect*
0 Rectangle with rounded corners*
0 $1 Rounding radius*
0 $2 $3 $4 $5 $6 $7 $8 $9 X,Y pos of 4 corners*
0 Add a 4 corners polygon primitive as box body*
4,1,4,$2,$3,$4,$5,$6,$7,$8,$9,$2,$3,0*
0 Add four circle primitives for the rounded corners*
1,1,$1+$1,$2,$3*
1,1,$1+$1,$4,$5*
1,1,$1+$1,$6,$7*
1,1,$1+$1,$8,$9*
0 Add four rect primitives between the rounded corners*
20,1,$1+$1,$2,$3,$4,$5,0*
20,1,$1+$1,$4,$5,$6,$7,0*
20,1,$1+$1,$6,$7,$8,$9,0*
20,1,$1+$1,$8,$9,$2,$3,0*%
%AMFreePoly0*
4,1,17,0.351552,0.797921,0.797921,0.351552,0.812800,0.315631,0.812800,-0.315631,0.797921,-0.351552,0.351552,-0.797921,0.315631,-0.812800,-0.315631,-0.812800,-0.351552,-0.797921,-0.797921,-0.351552,-0.812800,-0.315631,-0.812800,0.315631,-0.797921,0.351552,-0.351552,0.797921,-0.315631,0.812800,0.315631,0.812800,0.351552,0.797921,0.351552,0.797921,$1*%
%AMFreePoly1*
4,1,17,0.693485,1.623421,1.623421,0.693485,1.638300,0.657564,1.638300,-0.657564,1.623421,-0.693485,0.693485,-1.623421,0.657564,-1.638300,-0.657564,-1.638300,-0.693485,-1.623421,-1.623421,-0.693485,-1.638300,-0.657564,-1.638300,0.657564,-1.623421,0.693485,-0.693485,1.623421,-0.657564,1.638300,0.657564,1.638300,0.693485,1.623421,0.693485,1.623421,$1*%
%AMFreePoly2*
4,1,17,0.346581,0.785921,0.785921,0.346581,0.800800,0.310660,0.800800,-0.310660,0.785921,-0.346581,0.346581,-0.785921,0.310660,-0.800800,-0.310660,-0.800800,-0.346581,-0.785921,-0.785921,-0.346581,-0.800800,-0.310660,-0.800800,0.310660,-0.785921,0.346581,-0.346581,0.785921,-0.310660,0.800800,0.310660,0.800800,0.346581,0.785921,0.346581,0.785921,$1*%
%AMFreePoly3*
4,1,17,0.404157,0.924921,0.924921,0.404157,0.939800,0.368236,0.939800,-0.368236,0.924921,-0.404157,0.404157,-0.924921,0.368236,-0.939800,-0.368236,-0.939800,-0.404157,-0.924921,-0.924921,-0.404157,-0.939800,-0.368236,-0.939800,0.368236,-0.924921,0.404157,-0.404157,0.924921,-0.368236,0.939800,0.368236,0.939800,0.404157,0.924921,0.404157,0.924921,$1*%
G04 Aperture macros list end*
%ADD10C,1.500000*%
%ADD11RoundRect,0.050800X0.140000X0.750000X-0.140000X0.750000X-0.140000X-0.750000X0.140000X-0.750000X0*%
%ADD12RoundRect,0.050800X0.750000X0.140000X-0.750000X0.140000X-0.750000X-0.140000X0.750000X-0.140000X0*%
%ADD13RoundRect,0.050800X-0.300000X0.300000X-0.300000X-0.300000X0.300000X-0.300000X0.300000X0.300000X0*%
%ADD14RoundRect,0.050800X0.300000X-0.300000X0.300000X0.300000X-0.300000X0.300000X-0.300000X-0.300000X0*%
%ADD15RoundRect,0.050800X1.100000X-0.300000X1.100000X0.300000X-1.100000X0.300000X-1.100000X-0.300000X0*%
%ADD16RoundRect,0.050800X0.300000X0.300000X-0.300000X0.300000X-0.300000X-0.300000X0.300000X-0.300000X0*%
%ADD17RoundRect,0.050800X-0.300000X-0.300000X0.300000X-0.300000X0.300000X0.300000X-0.300000X0.300000X0*%
%ADD18RoundRect,0.050800X-0.950000X0.700000X-0.950000X-0.700000X0.950000X-0.700000X0.950000X0.700000X0*%
%ADD19RoundRect,0.050800X0.400000X-0.450000X0.400000X0.450000X-0.400000X0.450000X-0.400000X-0.450000X0*%
%ADD20RoundRect,0.050800X-0.400000X0.450000X-0.400000X-0.450000X0.400000X-0.450000X0.400000X0.450000X0*%
%ADD21RoundRect,0.050800X0.450000X0.400000X-0.450000X0.400000X-0.450000X-0.400000X0.450000X-0.400000X0*%
%ADD22RoundRect,0.050800X-1.800000X-1.100000X1.800000X-1.100000X1.800000X1.100000X-1.800000X1.100000X0*%
%ADD23RoundRect,0.050800X-0.609600X-1.117600X0.609600X-1.117600X0.609600X1.117600X-0.609600X1.117600X0*%
%ADD24RoundRect,0.050800X0.700000X0.950000X-0.700000X0.950000X-0.700000X-0.950000X0.700000X-0.950000X0*%
%ADD25RoundRect,0.050800X0.950000X-0.700000X0.950000X0.700000X-0.950000X0.700000X-0.950000X-0.700000X0*%
%ADD26RoundRect,0.050800X0.800000X0.901500X-0.800000X0.901500X-0.800000X-0.901500X0.800000X-0.901500X0*%
%ADD27RoundRect,0.050800X0.150000X0.750000X-0.150000X0.750000X-0.150000X-0.750000X0.150000X-0.750000X0*%
%ADD28RoundRect,0.050800X-0.750000X0.150000X-0.750000X-0.150000X0.750000X-0.150000X0.750000X0.150000X0*%
%ADD29RoundRect,0.050800X-0.700000X-0.950000X0.700000X-0.950000X0.700000X0.950000X-0.700000X0.950000X0*%
%ADD30RoundRect,0.050800X0.500000X0.700000X-0.500000X0.700000X-0.500000X-0.700000X0.500000X-0.700000X0*%
%ADD31FreePoly0,90.000000*%
%ADD32RoundRect,0.050800X0.965200X-2.667000X0.965200X2.667000X-0.965200X2.667000X-0.965200X-2.667000X0*%
%ADD33FreePoly1,90.000000*%
%ADD34RoundRect,0.050800X0.939800X-0.939800X0.939800X0.939800X-0.939800X0.939800X-0.939800X-0.939800X0*%
%ADD35FreePoly1,0.000000*%
%ADD36C,1.401600*%
%ADD37O,3.149600X1.625600*%
%ADD38C,2.286000*%
%ADD39FreePoly2,180.000000*%
%ADD40RoundRect,0.050800X0.750000X0.750000X-0.750000X0.750000X-0.750000X-0.750000X0.750000X-0.750000X0*%
%ADD41RoundRect,0.050800X-1.100000X0.300000X-1.100000X-0.300000X1.100000X-0.300000X1.100000X0.300000X0*%
%ADD42RoundRect,0.050800X-0.350000X-0.450000X0.350000X-0.450000X0.350000X0.450000X-0.350000X0.450000X0*%
%ADD43RoundRect,0.050800X-0.450000X0.350000X-0.450000X-0.350000X0.450000X-0.350000X0.450000X0.350000X0*%
%ADD44RoundRect,0.050800X0.450000X-0.350000X0.450000X0.350000X-0.450000X0.350000X-0.450000X-0.350000X0*%
%ADD45RoundRect,0.050800X-0.600000X-0.600000X0.600000X-0.600000X0.600000X0.600000X-0.600000X0.600000X0*%
%ADD46RoundRect,0.050800X0.350000X0.450000X-0.350000X0.450000X-0.350000X-0.450000X0.350000X-0.450000X0*%
%ADD47RoundRect,0.050800X-0.500000X-0.700000X0.500000X-0.700000X0.500000X0.700000X-0.500000X0.700000X0*%
%ADD48RoundRect,0.050800X-0.700000X0.450000X-0.700000X-0.450000X0.700000X-0.450000X0.700000X0.450000X0*%
%ADD49C,1.524000*%
%ADD50RoundRect,0.050800X0.700000X-0.500000X0.700000X0.500000X-0.700000X0.500000X-0.700000X-0.500000X0*%
%ADD51O,1.625600X3.149600*%
%ADD52FreePoly3,0.000000*%
%ADD53RoundRect,0.050800X-1.200000X1.300000X-1.200000X-1.300000X1.200000X-1.300000X1.200000X1.300000X0*%
G04 APERTURE END LIST*
%TO.C,J1*%
D10*
X111786100Y-56965850D02*
G75*
G03*
X111786100Y-56965850I-750000J0D01*
G01*
%TO.C,J2*%
X118453600Y-70300850D02*
G75*
G03*
X118453600Y-70300850I-750000J0D01*
G01*
%TO.C,J3*%
X125121100Y-56965850D02*
G75*
G03*
X125121100Y-56965850I-750000J0D01*
G01*
%TO.C,J4*%
X131788600Y-70300850D02*
G75*
G03*
X131788600Y-70300850I-750000J0D01*
G01*
%TO.C,J9*%
X138456100Y-83635850D02*
G75*
G03*
X138456100Y-83635850I-750000J0D01*
G01*
%TO.C,J10*%
X151791100Y-83635850D02*
G75*
G03*
X151791100Y-83635850I-750000J0D01*
G01*
%TO.C,J11*%
X165126100Y-83635850D02*
G75*
G03*
X165126100Y-83635850I-750000J0D01*
G01*
%TO.C,J12*%
X178461100Y-83635850D02*
G75*
G03*
X178461100Y-83635850I-750000J0D01*
G01*
%TO.C,J13*%
X145123600Y-96970850D02*
G75*
G03*
X145123600Y-96970850I-750000J0D01*
G01*
%TO.C,J14*%
X158458600Y-96970850D02*
G75*
G03*
X158458600Y-96970850I-750000J0D01*
G01*
%TO.C,J15*%
X171793600Y-96970850D02*
G75*
G03*
X171793600Y-96970850I-750000J0D01*
G01*
%TO.C,J16*%
X185128600Y-96970850D02*
G75*
G03*
X185128600Y-96970850I-750000J0D01*
G01*
%TO.C,J17*%
X165126100Y-56965850D02*
G75*
G03*
X165126100Y-56965850I-750000J0D01*
G01*
%TO.C,J5*%
X138456100Y-56965850D02*
G75*
G03*
X138456100Y-56965850I-750000J0D01*
G01*
%TO.C,J6*%
X145123600Y-70300850D02*
G75*
G03*
X145123600Y-70300850I-750000J0D01*
G01*
%TO.C,J7*%
X151791100Y-56965850D02*
G75*
G03*
X151791100Y-56965850I-750000J0D01*
G01*
%TO.C,J8*%
X158458600Y-70300850D02*
G75*
G03*
X158458600Y-70300850I-750000J0D01*
G01*
%TD*%
D11*
%TO.C,U2*%
X150346100Y-145315850D03*
X149846100Y-145315850D03*
X149346100Y-145315850D03*
X148846100Y-145315850D03*
X148346100Y-145315850D03*
X147846100Y-145315850D03*
X147346100Y-145315850D03*
X146846100Y-145315850D03*
X146346100Y-145315850D03*
X145846100Y-145315850D03*
X145346100Y-145315850D03*
X144846100Y-145315850D03*
X144346100Y-145315850D03*
X143846100Y-145315850D03*
X143346100Y-145315850D03*
X142846100Y-145315850D03*
D12*
X140796100Y-143265850D03*
X140796100Y-142765850D03*
X140796100Y-142265850D03*
X140796100Y-141765850D03*
X140796100Y-141265850D03*
X140796100Y-140765850D03*
X140796100Y-140265850D03*
X140796100Y-139765850D03*
X140796100Y-139265850D03*
X140796100Y-138765850D03*
X140796100Y-138265850D03*
X140796100Y-137765850D03*
X140796100Y-137265850D03*
X140796100Y-136765850D03*
X140796100Y-136265850D03*
X140796100Y-135765850D03*
D11*
X142846100Y-133715850D03*
X143346100Y-133715850D03*
X143846100Y-133715850D03*
X144346100Y-133715850D03*
X144846100Y-133715850D03*
X145346100Y-133715850D03*
X145846100Y-133715850D03*
X146346100Y-133715850D03*
X146846100Y-133715850D03*
X147346100Y-133715850D03*
X147846100Y-133715850D03*
X148346100Y-133715850D03*
X148846100Y-133715850D03*
X149346100Y-133715850D03*
X149846100Y-133715850D03*
X150346100Y-133715850D03*
D12*
X152396100Y-135765850D03*
X152396100Y-136265850D03*
X152396100Y-136765850D03*
X152396100Y-137265850D03*
X152396100Y-137765850D03*
X152396100Y-138265850D03*
X152396100Y-138765850D03*
X152396100Y-139265850D03*
X152396100Y-139765850D03*
X152396100Y-140265850D03*
X152396100Y-140765850D03*
X152396100Y-141265850D03*
X152396100Y-141765850D03*
X152396100Y-142265850D03*
X152396100Y-142765850D03*
X152396100Y-143265850D03*
%TD*%
D13*
%TO.C,C19*%
X137706100Y-141928850D03*
X137706100Y-140912850D03*
%TD*%
D14*
%TO.C,C20*%
X137706100Y-137102850D03*
X137706100Y-138118850D03*
%TD*%
D15*
%TO.C,U1*%
X119231100Y-145230850D03*
X119231100Y-146500850D03*
X119231100Y-149040850D03*
X124431100Y-145230850D03*
X124431100Y-146500850D03*
X124431100Y-149040850D03*
X119231100Y-147770850D03*
X124431100Y-147770850D03*
%TD*%
D16*
%TO.C,R2*%
X127038100Y-147770850D03*
X128054100Y-147770850D03*
%TD*%
%TO.C,R1*%
X127038100Y-145865850D03*
X128054100Y-145865850D03*
%TD*%
D17*
%TO.C,C7*%
X115354100Y-151580850D03*
X114338100Y-151580850D03*
%TD*%
D18*
%TO.C,C5*%
X116751100Y-146500850D03*
X116751100Y-149040850D03*
%TD*%
D14*
%TO.C,C10*%
X151358600Y-148215350D03*
X151358600Y-149231350D03*
%TD*%
%TO.C,C17*%
X140246100Y-145357850D03*
X140246100Y-146373850D03*
%TD*%
D13*
%TO.C,C16*%
X142151100Y-130498850D03*
X142151100Y-129482850D03*
%TD*%
D14*
%TO.C,C47*%
X149771100Y-148215350D03*
X149771100Y-149231350D03*
%TD*%
%TO.C,C18*%
X138658600Y-145357850D03*
X138658600Y-146373850D03*
%TD*%
D13*
%TO.C,C56*%
X140563600Y-130498850D03*
X140563600Y-129482850D03*
%TD*%
%TO.C,C12*%
X148501100Y-130498850D03*
X148501100Y-129482850D03*
%TD*%
%TO.C,C50*%
X150088600Y-130498850D03*
X150088600Y-129482850D03*
%TD*%
D19*
%TO.C,C49*%
X152946100Y-147961350D03*
X152946100Y-149485350D03*
%TD*%
D20*
%TO.C,C51*%
X146913600Y-130752850D03*
X146913600Y-129228850D03*
%TD*%
%TO.C,C48*%
X153263600Y-130752850D03*
X153263600Y-129228850D03*
%TD*%
D21*
%TO.C,C9*%
X155041600Y-137293350D03*
X156565600Y-137293350D03*
%TD*%
D19*
%TO.C,C55*%
X141833600Y-147961350D03*
X141833600Y-149485350D03*
%TD*%
D13*
%TO.C,C11*%
X151676100Y-130498850D03*
X151676100Y-129482850D03*
%TD*%
D16*
%TO.C,C8*%
X155295600Y-138880850D03*
X156311600Y-138880850D03*
%TD*%
D13*
%TO.C,C13*%
X145326100Y-130498850D03*
X145326100Y-129482850D03*
%TD*%
D14*
%TO.C,C14*%
X146596100Y-148215350D03*
X146596100Y-149231350D03*
%TD*%
D13*
%TO.C,C53*%
X143738600Y-130498850D03*
X143738600Y-129482850D03*
%TD*%
D14*
%TO.C,C15*%
X145008600Y-148215350D03*
X145008600Y-149231350D03*
%TD*%
%TO.C,C54*%
X143421100Y-148215350D03*
X143421100Y-149231350D03*
%TD*%
D16*
%TO.C,C45*%
X155295600Y-140468350D03*
X156311600Y-140468350D03*
%TD*%
D13*
%TO.C,R41*%
X155803600Y-130498850D03*
X155803600Y-129482850D03*
%TD*%
%TO.C,R42*%
X157391100Y-130498850D03*
X157391100Y-129482850D03*
%TD*%
D14*
%TO.C,C52*%
X148183600Y-148215350D03*
X148183600Y-149231350D03*
%TD*%
D16*
%TO.C,C46*%
X155295600Y-142055850D03*
X156311600Y-142055850D03*
%TD*%
D14*
%TO.C,R40*%
X116433600Y-142182850D03*
X116433600Y-143198850D03*
%TD*%
%TO.C,C41*%
X114846100Y-142182850D03*
X114846100Y-143198850D03*
%TD*%
D22*
%TO.C,U40*%
X165646100Y-126574350D03*
D23*
X167957500Y-132772150D03*
X165646100Y-132772150D03*
X163334700Y-132772150D03*
%TD*%
D17*
%TO.C,C42*%
X166154100Y-135388350D03*
X165138100Y-135388350D03*
%TD*%
D24*
%TO.C,C44*%
X167233600Y-123323350D03*
X164693600Y-123323350D03*
%TD*%
D25*
%TO.C,C6*%
X177711100Y-128720850D03*
X177711100Y-126180850D03*
%TD*%
D14*
%TO.C,C3*%
X175171100Y-127260350D03*
X175171100Y-128276350D03*
%TD*%
D25*
%TO.C,C4*%
X177711100Y-134753350D03*
X177711100Y-132213350D03*
%TD*%
D13*
%TO.C,C1*%
X175171100Y-134308850D03*
X175171100Y-133292850D03*
%TD*%
D26*
%TO.C,PF2*%
X183267300Y-125545850D03*
X180409900Y-125545850D03*
%TD*%
%TO.C,PF1*%
X183267300Y-134753350D03*
X180409900Y-134753350D03*
%TD*%
D16*
%TO.C,R44*%
X121323100Y-150945850D03*
X122339100Y-150945850D03*
%TD*%
%TO.C,R43*%
X121323100Y-152533350D03*
X122339100Y-152533350D03*
%TD*%
D27*
%TO.C,U3*%
X138076100Y-117233350D03*
X137426100Y-117233350D03*
X136776100Y-117233350D03*
X136126100Y-117233350D03*
X135476100Y-117233350D03*
X134826100Y-117233350D03*
X134176100Y-117233350D03*
X133526100Y-117233350D03*
X133526100Y-111633350D03*
X134176100Y-111633350D03*
X134826100Y-111633350D03*
X135476100Y-111633350D03*
X136126100Y-111633350D03*
X136776100Y-111633350D03*
X137426100Y-111633350D03*
X138076100Y-111633350D03*
%TD*%
%TO.C,U4*%
X148871100Y-117233350D03*
X148221100Y-117233350D03*
X147571100Y-117233350D03*
X146921100Y-117233350D03*
X146271100Y-117233350D03*
X145621100Y-117233350D03*
X144971100Y-117233350D03*
X144321100Y-117233350D03*
X144321100Y-111633350D03*
X144971100Y-111633350D03*
X145621100Y-111633350D03*
X146271100Y-111633350D03*
X146921100Y-111633350D03*
X147571100Y-111633350D03*
X148221100Y-111633350D03*
X148871100Y-111633350D03*
%TD*%
D28*
%TO.C,U7*%
X182416100Y-110570850D03*
X182416100Y-111220850D03*
X182416100Y-111870850D03*
X182416100Y-112520850D03*
X182416100Y-113170850D03*
X182416100Y-113820850D03*
X182416100Y-114470850D03*
X182416100Y-115120850D03*
X176816100Y-115120850D03*
X176816100Y-114470850D03*
X176816100Y-113820850D03*
X176816100Y-113170850D03*
X176816100Y-112520850D03*
X176816100Y-111870850D03*
X176816100Y-111220850D03*
X176816100Y-110570850D03*
%TD*%
D17*
%TO.C,C27*%
X180124100Y-116655850D03*
X179108100Y-116655850D03*
%TD*%
D29*
%TO.C,C25*%
X178346100Y-119195850D03*
X180886100Y-119195850D03*
%TD*%
D17*
%TO.C,C29*%
X180124100Y-109035850D03*
X179108100Y-109035850D03*
%TD*%
D13*
%TO.C,C30*%
X142786100Y-114941350D03*
X142786100Y-113925350D03*
%TD*%
%TO.C,C26*%
X153263600Y-114941350D03*
X153263600Y-113925350D03*
%TD*%
D18*
%TO.C,C24*%
X151041100Y-113163350D03*
X151041100Y-115703350D03*
%TD*%
%TO.C,C28*%
X140563600Y-113163350D03*
X140563600Y-115703350D03*
%TD*%
D20*
%TO.C,R45*%
X189776100Y-120275350D03*
X189776100Y-118751350D03*
%TD*%
D30*
%TO.C,U44*%
X176121100Y-51738350D03*
X174221100Y-51738350D03*
X175171100Y-53938350D03*
%TD*%
D31*
%TO.C,JP2*%
X110401100Y-116020850D03*
X107861100Y-116020850D03*
X110401100Y-118560850D03*
X107861100Y-118560850D03*
X110401100Y-121100850D03*
X107861100Y-121100850D03*
%TD*%
D13*
%TO.C,R4*%
X132943600Y-155581350D03*
X132943600Y-154565350D03*
%TD*%
%TO.C,C31*%
X134531100Y-155581350D03*
X134531100Y-154565350D03*
%TD*%
D32*
%TO.C,Y1*%
X133896100Y-134753350D03*
X133896100Y-144278350D03*
%TD*%
D33*
%TO.C,P1*%
X176486100Y-63633350D03*
X185286100Y-63633350D03*
D34*
X178386100Y-70333350D03*
X180886100Y-70333350D03*
X183386100Y-70333350D03*
%TD*%
D35*
%TO.C,USB0*%
X112941100Y-153780850D03*
D33*
X119516100Y-157965850D03*
X106366100Y-157955850D03*
D36*
X116441100Y-158560850D03*
X113941100Y-158560850D03*
X111941100Y-158560850D03*
X109441100Y-158560850D03*
%TD*%
D37*
%TO.C,POP0*%
X129527300Y-158921450D03*
X123024900Y-158921450D03*
X129527300Y-154400250D03*
X123024900Y-154400250D03*
%TD*%
D38*
%TO.C,U$1*%
X110001100Y-148700850D03*
X187001100Y-148700850D03*
D39*
X124371100Y-106200850D03*
X126911100Y-106200850D03*
X129451100Y-106200850D03*
X131991100Y-106200850D03*
X134531100Y-106200850D03*
X137071100Y-106200850D03*
X139611100Y-106200850D03*
X142151100Y-106200850D03*
X144691100Y-106200850D03*
X147231100Y-106200850D03*
X149771100Y-106200850D03*
X152311100Y-106200850D03*
X154851100Y-106200850D03*
X157391100Y-106200850D03*
X159931100Y-106200850D03*
X162471100Y-106200850D03*
X165011100Y-106200850D03*
X167551100Y-106200850D03*
X170091100Y-106200850D03*
D40*
X172631100Y-106200850D03*
%TD*%
D15*
%TO.C,IC1*%
X120501100Y-87445850D03*
X120501100Y-86175850D03*
X120501100Y-84905850D03*
X120501100Y-83635850D03*
X120501100Y-82365850D03*
X120501100Y-81095850D03*
D41*
X125701100Y-82365850D03*
X125701100Y-81095850D03*
D15*
X120501100Y-79825850D03*
X125701100Y-83635850D03*
X125701100Y-84905850D03*
X125701100Y-87445850D03*
D41*
X125701100Y-79825850D03*
D15*
X125701100Y-86175850D03*
%TD*%
D42*
%TO.C,C21*%
X129466100Y-83635850D03*
X128166100Y-83635850D03*
%TD*%
%TO.C,C22*%
X118036100Y-83635850D03*
X116736100Y-83635850D03*
%TD*%
D43*
%TO.C,R3*%
X144373600Y-86825850D03*
X144373600Y-85525850D03*
%TD*%
%TO.C,R8*%
X157708600Y-86825850D03*
X157708600Y-85525850D03*
%TD*%
D42*
%TO.C,R19*%
X142801100Y-89985850D03*
X141501100Y-89985850D03*
%TD*%
D43*
%TO.C,R21*%
X151041100Y-99525850D03*
X151041100Y-98225850D03*
%TD*%
D42*
%TO.C,R25*%
X156136100Y-89985850D03*
X154836100Y-89985850D03*
%TD*%
D43*
%TO.C,R29*%
X164376100Y-99525850D03*
X164376100Y-98225850D03*
%TD*%
D42*
%TO.C,C23*%
X135816100Y-96335850D03*
X134516100Y-96335850D03*
%TD*%
%TO.C,C32*%
X124386100Y-96335850D03*
X123086100Y-96335850D03*
%TD*%
D43*
%TO.C,R37*%
X128181100Y-87460850D03*
X128181100Y-86160850D03*
%TD*%
D44*
%TO.C,R38*%
X128181100Y-79810850D03*
X128181100Y-81110850D03*
%TD*%
%TO.C,R6*%
X144373600Y-82350850D03*
X144373600Y-83650850D03*
%TD*%
%TO.C,R7*%
X157708600Y-82350850D03*
X157708600Y-83650850D03*
%TD*%
D45*
%TO.C,LED1*%
X144373600Y-80875850D03*
X144373600Y-78775850D03*
%TD*%
%TO.C,LED2*%
X157708600Y-80875850D03*
X157708600Y-78775850D03*
%TD*%
D43*
%TO.C,R14*%
X171043600Y-86825850D03*
X171043600Y-85525850D03*
%TD*%
D44*
%TO.C,R9*%
X171043600Y-82350850D03*
X171043600Y-83650850D03*
%TD*%
D43*
%TO.C,R10*%
X184378600Y-86825850D03*
X184378600Y-85525850D03*
%TD*%
D44*
%TO.C,R11*%
X184378600Y-82350850D03*
X184378600Y-83650850D03*
%TD*%
D43*
%TO.C,R46*%
X118021100Y-87460850D03*
X118021100Y-86160850D03*
%TD*%
D44*
%TO.C,R47*%
X118021100Y-79810850D03*
X118021100Y-81110850D03*
%TD*%
D45*
%TO.C,LED3*%
X171043600Y-80875850D03*
X171043600Y-78775850D03*
%TD*%
%TO.C,LED4*%
X184378600Y-80875850D03*
X184378600Y-78775850D03*
%TD*%
D44*
%TO.C,C33*%
X179616100Y-73460850D03*
X179616100Y-74760850D03*
%TD*%
D45*
%TO.C,LED5*%
X151041100Y-94210850D03*
X151041100Y-92110850D03*
%TD*%
%TO.C,LED6*%
X164376100Y-94210850D03*
X164376100Y-92110850D03*
%TD*%
D42*
%TO.C,R32*%
X118353600Y-51885850D03*
X117053600Y-51885850D03*
%TD*%
D46*
%TO.C,C37*%
X117053600Y-53155850D03*
X118353600Y-53155850D03*
%TD*%
D47*
%TO.C,D3*%
X116753600Y-57430850D03*
X118653600Y-57430850D03*
X117703600Y-55230850D03*
%TD*%
D44*
%TO.C,R66*%
X151041100Y-95685850D03*
X151041100Y-96985850D03*
%TD*%
%TO.C,R67*%
X164376100Y-95685850D03*
X164376100Y-96985850D03*
%TD*%
D42*
%TO.C,R15*%
X169471100Y-89985850D03*
X168171100Y-89985850D03*
%TD*%
D43*
%TO.C,R17*%
X177711100Y-99525850D03*
X177711100Y-98225850D03*
%TD*%
D42*
%TO.C,R23*%
X182806100Y-89985850D03*
X181506100Y-89985850D03*
%TD*%
D43*
%TO.C,R51*%
X191046100Y-99525850D03*
X191046100Y-98225850D03*
%TD*%
D45*
%TO.C,LED7*%
X177711100Y-94210850D03*
X177711100Y-92110850D03*
%TD*%
%TO.C,LED8*%
X191046100Y-94210850D03*
X191046100Y-92110850D03*
%TD*%
D44*
%TO.C,R52*%
X177711100Y-95685850D03*
X177711100Y-96985850D03*
%TD*%
%TO.C,R53*%
X191046100Y-95685850D03*
X191046100Y-96985850D03*
%TD*%
D15*
%TO.C,IC4*%
X126851100Y-100145850D03*
X126851100Y-98875850D03*
X126851100Y-97605850D03*
X126851100Y-96335850D03*
X126851100Y-95065850D03*
X126851100Y-93795850D03*
D41*
X132051100Y-95065850D03*
X132051100Y-93795850D03*
D15*
X126851100Y-92525850D03*
X132051100Y-96335850D03*
X132051100Y-97605850D03*
X132051100Y-100145850D03*
D41*
X132051100Y-92525850D03*
D15*
X132051100Y-98875850D03*
%TD*%
D42*
%TO.C,R24*%
X171693600Y-51885850D03*
X170393600Y-51885850D03*
%TD*%
%TO.C,R26*%
X171693600Y-54425850D03*
X170393600Y-54425850D03*
%TD*%
D46*
%TO.C,C34*%
X170393600Y-53155850D03*
X171693600Y-53155850D03*
%TD*%
D42*
%TO.C,R27*%
X125021100Y-65220850D03*
X123721100Y-65220850D03*
%TD*%
D46*
%TO.C,C35*%
X123721100Y-66490850D03*
X125021100Y-66490850D03*
%TD*%
D47*
%TO.C,D2*%
X123421100Y-70765850D03*
X125321100Y-70765850D03*
X124371100Y-68565850D03*
%TD*%
D42*
%TO.C,R30*%
X131688600Y-51885850D03*
X130388600Y-51885850D03*
%TD*%
D46*
%TO.C,C36*%
X130388600Y-53155850D03*
X131688600Y-53155850D03*
%TD*%
D47*
%TO.C,D4*%
X130088600Y-57430850D03*
X131988600Y-57430850D03*
X131038600Y-55230850D03*
%TD*%
D42*
%TO.C,R34*%
X138356100Y-65220850D03*
X137056100Y-65220850D03*
%TD*%
D46*
%TO.C,C38*%
X137056100Y-66490850D03*
X138356100Y-66490850D03*
%TD*%
D47*
%TO.C,D5*%
X136756100Y-70765850D03*
X138656100Y-70765850D03*
X137706100Y-68565850D03*
%TD*%
D42*
%TO.C,R36*%
X145023600Y-51885850D03*
X143723600Y-51885850D03*
%TD*%
D46*
%TO.C,C39*%
X143723600Y-53155850D03*
X145023600Y-53155850D03*
%TD*%
D47*
%TO.C,D6*%
X143423600Y-57430850D03*
X145323600Y-57430850D03*
X144373600Y-55230850D03*
%TD*%
D42*
%TO.C,R56*%
X151691100Y-65220850D03*
X150391100Y-65220850D03*
%TD*%
D46*
%TO.C,C43*%
X150391100Y-66490850D03*
X151691100Y-66490850D03*
%TD*%
D47*
%TO.C,D7*%
X150091100Y-70765850D03*
X151991100Y-70765850D03*
X151041100Y-68565850D03*
%TD*%
D42*
%TO.C,R58*%
X158358600Y-51885850D03*
X157058600Y-51885850D03*
%TD*%
D46*
%TO.C,C57*%
X157058600Y-53155850D03*
X158358600Y-53155850D03*
%TD*%
D47*
%TO.C,D8*%
X156758600Y-57430850D03*
X158658600Y-57430850D03*
X157708600Y-55230850D03*
%TD*%
D42*
%TO.C,R60*%
X165026100Y-65220850D03*
X163726100Y-65220850D03*
%TD*%
D46*
%TO.C,C58*%
X163726100Y-66490850D03*
X165026100Y-66490850D03*
%TD*%
D47*
%TO.C,D9*%
X163426100Y-70765850D03*
X165326100Y-70765850D03*
X164376100Y-68565850D03*
%TD*%
D48*
%TO.C,RN1*%
X109131100Y-81095850D03*
X109131100Y-82365850D03*
X109131100Y-83635850D03*
X109131100Y-84905850D03*
X109131100Y-86175850D03*
X112306100Y-86175850D03*
X112306100Y-84905850D03*
X112306100Y-83635850D03*
X112306100Y-82365850D03*
X112306100Y-81095850D03*
%TD*%
D17*
%TO.C,R5*%
X125196600Y-133165850D03*
X124180600Y-133165850D03*
%TD*%
%TO.C,R16*%
X125196600Y-131260850D03*
X124180600Y-131260850D03*
%TD*%
D49*
%TO.C,X1*%
X187948600Y-125103350D03*
X185408600Y-125103350D03*
X187948600Y-127643350D03*
X185408600Y-127643350D03*
X187948600Y-130183350D03*
X185408600Y-130183350D03*
X187948600Y-132723350D03*
X185408600Y-132723350D03*
X187948600Y-135263350D03*
X185408600Y-135263350D03*
%TD*%
D43*
%TO.C,R18*%
X180886100Y-74760850D03*
X180886100Y-73460850D03*
%TD*%
D44*
%TO.C,R20*%
X178346100Y-73460850D03*
X178346100Y-74760850D03*
%TD*%
D50*
%TO.C,U6*%
X182938600Y-131258350D03*
X182938600Y-129358350D03*
X180738600Y-130308350D03*
%TD*%
D31*
%TO.C,JP1*%
X117386100Y-116020850D03*
X114846100Y-116020850D03*
X117386100Y-118560850D03*
X114846100Y-118560850D03*
X117386100Y-121100850D03*
X114846100Y-121100850D03*
%TD*%
D51*
%TO.C,IC2*%
X163106100Y-156660850D03*
X165646100Y-156660850D03*
X168186100Y-156660850D03*
%TD*%
D13*
%TO.C,C59*%
X158661100Y-151453850D03*
X158661100Y-150437850D03*
%TD*%
D18*
%TO.C,C60*%
X156756100Y-149675850D03*
X156756100Y-152215850D03*
%TD*%
D52*
%TO.C,J1*%
X111036100Y-60345850D03*
X111036100Y-52045850D03*
X111036100Y-62595850D03*
%TD*%
%TO.C,J2*%
X117703600Y-73680850D03*
X117703600Y-65380850D03*
X117703600Y-75930850D03*
%TD*%
%TO.C,J3*%
X124371100Y-60345850D03*
X124371100Y-52045850D03*
X124371100Y-62595850D03*
%TD*%
%TO.C,J4*%
X131038600Y-73680850D03*
X131038600Y-65380850D03*
X131038600Y-75930850D03*
%TD*%
%TO.C,J9*%
X137706100Y-87015850D03*
X137706100Y-78715850D03*
X137706100Y-89265850D03*
%TD*%
%TO.C,J10*%
X151041100Y-87015850D03*
X151041100Y-78715850D03*
X151041100Y-89265850D03*
%TD*%
%TO.C,J11*%
X164376100Y-87015850D03*
X164376100Y-78715850D03*
X164376100Y-89265850D03*
%TD*%
%TO.C,J12*%
X177711100Y-87015850D03*
X177711100Y-78715850D03*
X177711100Y-89265850D03*
%TD*%
%TO.C,J13*%
X144373600Y-100350850D03*
X144373600Y-92050850D03*
X144373600Y-102600850D03*
%TD*%
%TO.C,J14*%
X157708600Y-100350850D03*
X157708600Y-92050850D03*
X157708600Y-102600850D03*
%TD*%
%TO.C,J15*%
X171043600Y-100350850D03*
X171043600Y-92050850D03*
X171043600Y-102600850D03*
%TD*%
%TO.C,J16*%
X184378600Y-100350850D03*
X184378600Y-92050850D03*
X184378600Y-102600850D03*
%TD*%
%TO.C,J17*%
X164376100Y-60345850D03*
X164376100Y-52045850D03*
X164376100Y-62595850D03*
%TD*%
%TO.C,J5*%
X137706100Y-60345850D03*
X137706100Y-52045850D03*
X137706100Y-62595850D03*
%TD*%
%TO.C,J6*%
X144373600Y-73680850D03*
X144373600Y-65380850D03*
X144373600Y-75930850D03*
%TD*%
%TO.C,J7*%
X151041100Y-60345850D03*
X151041100Y-52045850D03*
X151041100Y-62595850D03*
%TD*%
%TO.C,J8*%
X157708600Y-73680850D03*
X157708600Y-65380850D03*
X157708600Y-75930850D03*
%TD*%
D46*
%TO.C,R12*%
X128166100Y-82365850D03*
X129466100Y-82365850D03*
%TD*%
%TO.C,R13*%
X128166100Y-84905850D03*
X129466100Y-84905850D03*
%TD*%
D42*
%TO.C,R22*%
X118036100Y-84905850D03*
X116736100Y-84905850D03*
%TD*%
%TO.C,R28*%
X118036100Y-82365850D03*
X116736100Y-82365850D03*
%TD*%
D46*
%TO.C,R31*%
X134516100Y-97605850D03*
X135816100Y-97605850D03*
%TD*%
%TO.C,R33*%
X134516100Y-95065850D03*
X135816100Y-95065850D03*
%TD*%
D42*
%TO.C,R35*%
X124386100Y-95065850D03*
X123086100Y-95065850D03*
%TD*%
%TO.C,R39*%
X124386100Y-97605850D03*
X123086100Y-97605850D03*
%TD*%
D17*
%TO.C,R48*%
X155359100Y-155390850D03*
X154343100Y-155390850D03*
%TD*%
D53*
%TO.C,C2*%
X109766100Y-137610850D03*
X109766100Y-143960850D03*
%TD*%
M02*
