%TF.GenerationSoftware,KiCad,Pcbnew,6.0.11*%
%TF.CreationDate,2023-03-20T20:23:42+01:00*%
%TF.ProjectId,teletype-180824-no-slots,74656c65-7479-4706-952d-313830383234,rev?*%
%TF.SameCoordinates,Original*%
%TF.FileFunction,Copper,L3,Inr*%
%TF.FilePolarity,Positive*%
%FSLAX46Y46*%
G04 Gerber Fmt 4.6, Leading zero omitted, Abs format (unit mm)*
G04 Created by KiCad (PCBNEW 6.0.11) date 2023-03-20 20:23:42*
%MOMM*%
%LPD*%
G01*
G04 APERTURE LIST*
G04 Aperture macros list*
%AMOutline5P*
0 Free polygon, 5 corners , with rotation*
0 The origin of the aperture is its center*
0 number of corners: always 5*
0 $1 to $10 corner X, Y*
0 $11 Rotation angle, in degrees counterclockwise*
0 create outline with 5 corners*
4,1,5,$1,$2,$3,$4,$5,$6,$7,$8,$9,$10,$1,$2,$11*%
%AMOutline6P*
0 Free polygon, 6 corners , with rotation*
0 The origin of the aperture is its center*
0 number of corners: always 6*
0 $1 to $12 corner X, Y*
0 $13 Rotation angle, in degrees counterclockwise*
0 create outline with 6 corners*
4,1,6,$1,$2,$3,$4,$5,$6,$7,$8,$9,$10,$11,$12,$1,$2,$13*%
%AMOutline7P*
0 Free polygon, 7 corners , with rotation*
0 The origin of the aperture is its center*
0 number of corners: always 7*
0 $1 to $14 corner X, Y*
0 $15 Rotation angle, in degrees counterclockwise*
0 create outline with 7 corners*
4,1,7,$1,$2,$3,$4,$5,$6,$7,$8,$9,$10,$11,$12,$13,$14,$1,$2,$15*%
%AMOutline8P*
0 Free polygon, 8 corners , with rotation*
0 The origin of the aperture is its center*
0 number of corners: always 8*
0 $1 to $16 corner X, Y*
0 $17 Rotation angle, in degrees counterclockwise*
0 create outline with 8 corners*
4,1,8,$1,$2,$3,$4,$5,$6,$7,$8,$9,$10,$11,$12,$13,$14,$15,$16,$1,$2,$17*%
G04 Aperture macros list end*
%TA.AperFunction,ComponentPad*%
%ADD10Outline8P,-0.762000X0.315631X-0.315631X0.762000X0.315631X0.762000X0.762000X0.315631X0.762000X-0.315631X0.315631X-0.762000X-0.315631X-0.762000X-0.762000X-0.315631X90.000000*%
%TD*%
%TA.AperFunction,ComponentPad*%
%ADD11Outline8P,-1.587500X0.657564X-0.657564X1.587500X0.657564X1.587500X1.587500X0.657564X1.587500X-0.657564X0.657564X-1.587500X-0.657564X-1.587500X-1.587500X-0.657564X90.000000*%
%TD*%
%TA.AperFunction,ComponentPad*%
%ADD12R,1.879600X1.879600*%
%TD*%
%TA.AperFunction,ComponentPad*%
%ADD13Outline8P,-1.587500X0.657564X-0.657564X1.587500X0.657564X1.587500X1.587500X0.657564X1.587500X-0.657564X0.657564X-1.587500X-0.657564X-1.587500X-1.587500X-0.657564X0.000000*%
%TD*%
%TA.AperFunction,ComponentPad*%
%ADD14C,1.300000*%
%TD*%
%TA.AperFunction,ComponentPad*%
%ADD15O,3.048000X1.524000*%
%TD*%
%TA.AperFunction,ComponentPad*%
%ADD16Outline8P,-0.750000X0.310660X-0.310660X0.750000X0.310660X0.750000X0.750000X0.310660X0.750000X-0.310660X0.310660X-0.750000X-0.310660X-0.750000X-0.750000X-0.310660X180.000000*%
%TD*%
%TA.AperFunction,ComponentPad*%
%ADD17R,1.500000X1.500000*%
%TD*%
%TA.AperFunction,ComponentPad*%
%ADD18C,1.422400*%
%TD*%
%TA.AperFunction,ComponentPad*%
%ADD19O,1.524000X3.048000*%
%TD*%
%TA.AperFunction,ComponentPad*%
%ADD20Outline8P,-0.889000X0.368236X-0.368236X0.889000X0.368236X0.889000X0.889000X0.368236X0.889000X-0.368236X0.368236X-0.889000X-0.368236X-0.889000X-0.889000X-0.368236X0.000000*%
%TD*%
%TA.AperFunction,ViaPad*%
%ADD21C,0.660400*%
%TD*%
%TA.AperFunction,ViaPad*%
%ADD22C,0.787400*%
%TD*%
%TA.AperFunction,ViaPad*%
%ADD23C,0.906400*%
%TD*%
%TA.AperFunction,ViaPad*%
%ADD24C,1.206400*%
%TD*%
%TA.AperFunction,ViaPad*%
%ADD25C,1.006400*%
%TD*%
%TA.AperFunction,Conductor*%
%ADD26C,0.406400*%
%TD*%
G04 APERTURE END LIST*
D10*
%TO.N,GND*%
%TO.C,JP2*%
X110401100Y-116020850D03*
X107861100Y-116020850D03*
%TO.N,SCL*%
X110401100Y-118560850D03*
X107861100Y-118560850D03*
%TO.N,SDA*%
X110401100Y-121100850D03*
X107861100Y-121100850D03*
%TD*%
D11*
%TO.N,N/C*%
%TO.C,P1*%
X176486100Y-63633350D03*
X185286100Y-63633350D03*
D12*
%TO.N,AGND*%
X178386100Y-70333350D03*
%TO.N,N$12*%
X180886100Y-70333350D03*
%TO.N,+3V3*%
X183386100Y-70333350D03*
%TD*%
D13*
%TO.N,GND*%
%TO.C,USB0*%
X112941100Y-153780850D03*
D11*
X119516100Y-157965850D03*
X106366100Y-157955850D03*
D14*
X116441100Y-158560850D03*
%TO.N,DP*%
X113941100Y-158560850D03*
%TO.N,DM*%
X111941100Y-158560850D03*
%TO.N,VBUS*%
X109441100Y-158560850D03*
%TD*%
D15*
%TO.N,GND*%
%TO.C,POP0*%
X129527300Y-158921450D03*
X123024900Y-158921450D03*
%TO.N,NMI*%
X129527300Y-154400250D03*
X123024900Y-154400250D03*
%TD*%
D16*
%TO.N,GND*%
%TO.C,U$1*%
X124371100Y-106200850D03*
X126911100Y-106200850D03*
%TO.N,N/C*%
X129451100Y-106200850D03*
%TO.N,CS2*%
X131991100Y-106200850D03*
%TO.N,OLED-RES*%
X134531100Y-106200850D03*
%TO.N,N/C*%
X137071100Y-106200850D03*
%TO.N,GND*%
X139611100Y-106200850D03*
X142151100Y-106200850D03*
X144691100Y-106200850D03*
X147231100Y-106200850D03*
X149771100Y-106200850D03*
X152311100Y-106200850D03*
%TO.N,MOSI*%
X154851100Y-106200850D03*
%TO.N,SCK*%
X157391100Y-106200850D03*
%TO.N,GND*%
X159931100Y-106200850D03*
X162471100Y-106200850D03*
%TO.N,OLED-DC*%
X165011100Y-106200850D03*
%TO.N,N/C*%
X167551100Y-106200850D03*
%TO.N,+3V3*%
X170091100Y-106200850D03*
D17*
%TO.N,GND*%
X172631100Y-106200850D03*
%TD*%
D18*
%TO.N,+IN*%
%TO.C,X1*%
X187948600Y-125103350D03*
X185408600Y-125103350D03*
%TO.N,GND*%
X187948600Y-127643350D03*
X185408600Y-127643350D03*
X187948600Y-130183350D03*
X185408600Y-130183350D03*
X187948600Y-132723350D03*
X185408600Y-132723350D03*
%TO.N,-IN*%
X187948600Y-135263350D03*
X185408600Y-135263350D03*
%TD*%
D10*
%TO.N,GND*%
%TO.C,JP1*%
X117386100Y-116020850D03*
X114846100Y-116020850D03*
%TO.N,SCL*%
X117386100Y-118560850D03*
X114846100Y-118560850D03*
%TO.N,SDA*%
X117386100Y-121100850D03*
X114846100Y-121100850D03*
%TD*%
D19*
%TO.N,+5V*%
%TO.C,IC2*%
X163106100Y-156660850D03*
%TO.N,GND*%
X165646100Y-156660850D03*
%TO.N,+12V*%
X168186100Y-156660850D03*
%TD*%
D20*
%TO.N,N/C*%
%TO.C,J1*%
X111036100Y-60345850D03*
%TO.N,N$38*%
X111036100Y-52045850D03*
%TO.N,GND*%
X111036100Y-62595850D03*
%TD*%
%TO.N,N/C*%
%TO.C,J2*%
X117703600Y-73680850D03*
%TO.N,N$35*%
X117703600Y-65380850D03*
%TO.N,GND*%
X117703600Y-75930850D03*
%TD*%
%TO.N,N/C*%
%TO.C,J3*%
X124371100Y-60345850D03*
%TO.N,N$36*%
X124371100Y-52045850D03*
%TO.N,GND*%
X124371100Y-62595850D03*
%TD*%
%TO.N,N/C*%
%TO.C,J4*%
X131038600Y-73680850D03*
%TO.N,N$37*%
X131038600Y-65380850D03*
%TO.N,GND*%
X131038600Y-75930850D03*
%TD*%
%TO.N,N/C*%
%TO.C,J9*%
X137706100Y-87015850D03*
%TO.N,N$8*%
X137706100Y-78715850D03*
%TO.N,GND*%
X137706100Y-89265850D03*
%TD*%
%TO.N,N/C*%
%TO.C,J10*%
X151041100Y-87015850D03*
%TO.N,N$9*%
X151041100Y-78715850D03*
%TO.N,GND*%
X151041100Y-89265850D03*
%TD*%
%TO.N,N/C*%
%TO.C,J11*%
X164376100Y-87015850D03*
%TO.N,N$10*%
X164376100Y-78715850D03*
%TO.N,GND*%
X164376100Y-89265850D03*
%TD*%
%TO.N,N/C*%
%TO.C,J12*%
X177711100Y-87015850D03*
%TO.N,N$11*%
X177711100Y-78715850D03*
%TO.N,GND*%
X177711100Y-89265850D03*
%TD*%
%TO.N,N/C*%
%TO.C,J13*%
X144373600Y-100350850D03*
%TO.N,N$32*%
X144373600Y-92050850D03*
%TO.N,GND*%
X144373600Y-102600850D03*
%TD*%
%TO.N,N/C*%
%TO.C,J14*%
X157708600Y-100350850D03*
%TO.N,N$34*%
X157708600Y-92050850D03*
%TO.N,GND*%
X157708600Y-102600850D03*
%TD*%
%TO.N,N/C*%
%TO.C,J15*%
X171043600Y-100350850D03*
%TO.N,N$21*%
X171043600Y-92050850D03*
%TO.N,GND*%
X171043600Y-102600850D03*
%TD*%
%TO.N,N/C*%
%TO.C,J16*%
X184378600Y-100350850D03*
%TO.N,N$22*%
X184378600Y-92050850D03*
%TO.N,GND*%
X184378600Y-102600850D03*
%TD*%
%TO.N,GND*%
%TO.C,J17*%
X164376100Y-60345850D03*
%TO.N,N$33*%
X164376100Y-52045850D03*
%TO.N,GND*%
X164376100Y-62595850D03*
%TD*%
%TO.N,N/C*%
%TO.C,J5*%
X137706100Y-60345850D03*
%TO.N,N$39*%
X137706100Y-52045850D03*
%TO.N,GND*%
X137706100Y-62595850D03*
%TD*%
%TO.N,N/C*%
%TO.C,J6*%
X144373600Y-73680850D03*
%TO.N,N$40*%
X144373600Y-65380850D03*
%TO.N,GND*%
X144373600Y-75930850D03*
%TD*%
%TO.N,N/C*%
%TO.C,J7*%
X151041100Y-60345850D03*
%TO.N,N$43*%
X151041100Y-52045850D03*
%TO.N,GND*%
X151041100Y-62595850D03*
%TD*%
%TO.N,N/C*%
%TO.C,J8*%
X157708600Y-73680850D03*
%TO.N,N$44*%
X157708600Y-65380850D03*
%TO.N,GND*%
X157708600Y-75930850D03*
%TD*%
D21*
%TO.N,A07*%
X165646100Y-66490850D03*
X153898600Y-135388350D03*
X113576100Y-82365850D03*
%TO.N,A06*%
X159296100Y-53155850D03*
X115798600Y-106178350D03*
X119291100Y-109670850D03*
X150723600Y-137293350D03*
X107861100Y-81095850D03*
%TO.N,A05*%
X152311100Y-66490850D03*
X149771100Y-137928350D03*
X113576100Y-83635850D03*
%TO.N,A04*%
X145961100Y-53155850D03*
X119926100Y-112210850D03*
D22*
X115798600Y-108083350D03*
D21*
X148501100Y-137928350D03*
X107861100Y-82365850D03*
%TO.N,A03*%
X138976100Y-66490850D03*
X147231100Y-137928350D03*
X113576100Y-84905850D03*
%TO.N,A02*%
X132626100Y-53155850D03*
X118021100Y-112528350D03*
X115798600Y-110623350D03*
X150406100Y-140150850D03*
X107861100Y-83635850D03*
%TO.N,A01*%
X125641100Y-66490850D03*
X149136100Y-140468350D03*
X113576100Y-86175850D03*
%TO.N,A00*%
X119291100Y-53155850D03*
X149136100Y-141738350D03*
X107861100Y-84905850D03*
%TO.N,CS2*%
X130721100Y-108400850D03*
X155486100Y-133483350D03*
%TO.N,OLED-RES*%
X129451100Y-111258350D03*
X150406100Y-126180850D03*
%TO.N,OLED-DC*%
X160883600Y-110305850D03*
%TO.N,RG8*%
X124371100Y-98875850D03*
X180568600Y-89985850D03*
%TO.N,RG7*%
X135483600Y-91573350D03*
X167233600Y-89985850D03*
%TO.N,RG6*%
X137388600Y-92208350D03*
X153898600Y-89985850D03*
%TO.N,N$28*%
X179616100Y-104273350D03*
X135166100Y-101415850D03*
%TO.N,N$23*%
X128181100Y-92525850D03*
X177711100Y-97605850D03*
%TO.N,N$15*%
X133896100Y-92525850D03*
X164376100Y-97605850D03*
%TO.N,N$13*%
X140246100Y-96335850D03*
X151041100Y-97605850D03*
%TO.N,N$7*%
X123101100Y-78555850D03*
X184378600Y-84588350D03*
%TO.N,N$6*%
X122148600Y-87445850D03*
X171043600Y-84588350D03*
%TO.N,N$5*%
X132626100Y-86810850D03*
X157708600Y-84588350D03*
%TO.N,N$3*%
X132626100Y-81095850D03*
X144373600Y-84588350D03*
%TO.N,N$4*%
X131991100Y-116655850D03*
X146913600Y-119830850D03*
%TO.N,AGND*%
X169773600Y-55060850D03*
D23*
X177076100Y-52838350D03*
X189776100Y-117608350D03*
D21*
X140563600Y-111575850D03*
X151041100Y-111575850D03*
D22*
X145643600Y-114750850D03*
D21*
X134531100Y-114750850D03*
X137071100Y-114433350D03*
D22*
X147866100Y-114433350D03*
D21*
X178028600Y-116655850D03*
X179616100Y-111575850D03*
%TO.N,B11*%
X124371100Y-112210850D03*
X124371100Y-117925850D03*
X145643600Y-136658350D03*
X122148600Y-82365850D03*
%TO.N,B10*%
X120878600Y-118560850D03*
X120878600Y-107448350D03*
X145643600Y-140150850D03*
X122148600Y-84905850D03*
%TO.N,B09*%
X122148600Y-121100850D03*
X122148600Y-107448350D03*
X144691100Y-140785850D03*
X124053600Y-84905850D03*
%TO.N,CV-OUT3*%
X128498600Y-97605850D03*
X144373600Y-109988350D03*
%TO.N,CV-OUT2*%
X129451100Y-96018350D03*
X147231100Y-109988350D03*
%TO.N,CV-OUT1*%
X133261100Y-109353350D03*
X130403600Y-95065850D03*
%TO.N,CV-OUT0*%
X135801100Y-109353350D03*
X130403600Y-97605850D03*
%TO.N,CV-IN1*%
X186601100Y-83635850D03*
X186601100Y-110305850D03*
%TO.N,CV-IN0*%
X187871100Y-87445850D03*
X185331100Y-109353350D03*
%TO.N,N$2*%
X129768600Y-152533350D03*
D22*
X137388600Y-155390850D03*
D21*
X138976100Y-149675850D03*
X142786100Y-143643350D03*
%TO.N,N$1*%
X130721100Y-151580850D03*
D22*
X138976100Y-154438350D03*
D21*
X140246100Y-149675850D03*
X143738600Y-142690850D03*
%TO.N,CS1*%
X143103600Y-122688350D03*
X174853600Y-112528350D03*
%TO.N,-12V*%
X125323600Y-96335850D03*
X118973600Y-83635850D03*
D23*
X175171100Y-135070850D03*
D21*
%TO.N,+12V*%
X133578600Y-96335850D03*
X127228600Y-83635850D03*
D23*
X179616100Y-125545850D03*
D21*
%TO.N,RX*%
X148183600Y-142373350D03*
X115798600Y-133165850D03*
%TO.N,B08*%
X123101100Y-108400850D03*
X123101100Y-123640850D03*
X144691100Y-142055850D03*
X124053600Y-82365850D03*
%TO.N,TX*%
X115798600Y-135705850D03*
%TO.N,SCK*%
X141516100Y-122053350D03*
X136118600Y-120148350D03*
X143103600Y-120148350D03*
%TO.N,NMI*%
X139293600Y-135229600D03*
X137071100Y-147135850D03*
%TO.N,RESET*%
X125958600Y-143325850D03*
X150088600Y-146818350D03*
X112941100Y-142690850D03*
%TO.N,+3V3*%
X138658600Y-72205850D03*
X151993600Y-72205850D03*
X165328600Y-72205850D03*
X125323600Y-72205850D03*
X158661100Y-58870850D03*
X145326100Y-58870850D03*
X131991100Y-58870850D03*
X118656100Y-58870850D03*
X126593600Y-132213350D03*
D23*
X173266100Y-52838350D03*
D21*
X182156100Y-117925850D03*
X116433600Y-140785850D03*
D22*
X139928600Y-155390850D03*
D23*
X159613600Y-131895850D03*
D21*
X153263600Y-132213350D03*
X182791100Y-109035850D03*
X138341100Y-118878350D03*
X148818600Y-118878350D03*
%TO.N,SDA*%
X122466100Y-133165850D03*
X142468600Y-141103350D03*
%TO.N,SCL*%
X121196100Y-131260850D03*
X142468600Y-142373350D03*
%TO.N,MOSI*%
X150088600Y-120783350D03*
X143738600Y-118878350D03*
%TO.N,MISO*%
X145961100Y-123640850D03*
X184061100Y-112210850D03*
D24*
%TO.N,+5V*%
X111671100Y-144595850D03*
X135801100Y-158565850D03*
X133896100Y-158565850D03*
D23*
X121831100Y-148723350D03*
D21*
%TO.N,USB-VBOF*%
X132308600Y-149675850D03*
X149771100Y-143643350D03*
%TO.N,USB-OC*%
X152311100Y-145548350D03*
D23*
X121831100Y-145865850D03*
D21*
X129768600Y-149358350D03*
D22*
%TO.N,VBUS*%
X128181100Y-149675850D03*
D21*
X135483600Y-150628350D03*
X144691100Y-143325850D03*
D23*
X121831100Y-147135850D03*
D21*
%TO.N,VDDIN*%
X157391100Y-128085850D03*
X148501100Y-131895850D03*
%TO.N,VDDOUT*%
X148501100Y-135229600D03*
X144373600Y-146818350D03*
X153898600Y-139515850D03*
X146596100Y-146818350D03*
%TO.N,VDDIO*%
X151358600Y-146818350D03*
X155803600Y-128085850D03*
X142151100Y-131895850D03*
X139611100Y-143960850D03*
%TO.N,GND*%
X156756100Y-148405850D03*
X185331100Y-89985850D03*
X143738600Y-78238350D03*
X157073600Y-78238350D03*
X170408600Y-78238350D03*
X183743600Y-78238350D03*
X130086100Y-83635850D03*
X163106100Y-67125850D03*
X149771100Y-67125850D03*
X136436100Y-67125850D03*
X123101100Y-67125850D03*
X156121100Y-53790850D03*
X142786100Y-53790850D03*
X129451100Y-53790850D03*
X116116100Y-53790850D03*
D23*
X178981100Y-130308350D03*
X175171100Y-131578350D03*
X175171100Y-129990850D03*
D21*
X136436100Y-96335850D03*
X122466100Y-96335850D03*
X114846100Y-140785850D03*
D22*
X116751100Y-145230850D03*
D25*
X106591100Y-140785850D03*
D22*
X134531100Y-156343350D03*
D23*
X168821100Y-123323350D03*
D22*
X163741100Y-135388350D03*
D21*
X148183600Y-146818350D03*
X145326100Y-128085850D03*
X148501100Y-128085850D03*
X116116100Y-83635850D03*
X107861100Y-86175850D03*
D23*
X189776100Y-121418350D03*
D21*
X115798600Y-126180850D03*
X115798600Y-128085850D03*
X151358600Y-150628350D03*
X140246100Y-147770850D03*
X151041100Y-133324600D03*
X157708600Y-138880850D03*
X142151100Y-128085850D03*
X151676100Y-128085850D03*
X137706100Y-139515850D03*
X153581100Y-143960850D03*
X145008600Y-150628350D03*
X142151100Y-146500850D03*
X145326100Y-131895850D03*
D23*
X126276100Y-149040850D03*
%TD*%
D26*
%TO.N,-12V*%
X189458600Y-102368350D02*
X185966100Y-98875850D01*
X127863600Y-98875850D02*
X185966100Y-98875850D01*
X125323600Y-96335850D02*
X127863600Y-98875850D01*
X118973600Y-86175850D02*
X118973600Y-83635850D01*
X125323600Y-92525850D02*
X118973600Y-86175850D01*
X125323600Y-96335850D02*
X125323600Y-92525850D01*
X176441100Y-133800850D02*
X175171100Y-135070850D01*
X176441100Y-124910850D02*
X176441100Y-133800850D01*
X189458600Y-111893350D02*
X176441100Y-124910850D01*
X189458600Y-111893350D02*
X189458600Y-102368350D01*
%TO.N,+12V*%
X190411100Y-100145850D02*
X185331100Y-95065850D01*
X134848600Y-95065850D02*
X185331100Y-95065850D01*
X133578600Y-96335850D02*
X134848600Y-95065850D01*
X127228600Y-89985850D02*
X133578600Y-96335850D01*
X127228600Y-83635850D02*
X127228600Y-89985850D01*
X179616100Y-125545850D02*
X190411100Y-114750850D01*
X190411100Y-114750850D02*
X190411100Y-100145850D01*
%TO.N,VDDIN*%
X149136100Y-131260850D02*
X148501100Y-131895850D01*
X154216100Y-131260850D02*
X149136100Y-131260850D01*
X157391100Y-128085850D02*
X154216100Y-131260850D01*
%TO.N,VDDIO*%
X144056100Y-129990850D02*
X142151100Y-131895850D01*
X153898600Y-129990850D02*
X144056100Y-129990850D01*
X155803600Y-128085850D02*
X153898600Y-129990850D01*
%TD*%
%TA.AperFunction,Conductor*%
%TO.N,VDDIO*%
G36*
X143508114Y-131808836D02*
G01*
X143522700Y-131844050D01*
X143522700Y-142258376D01*
X143508114Y-142293590D01*
X143499475Y-142300492D01*
X143438905Y-142338709D01*
X143436556Y-142341369D01*
X143384278Y-142400563D01*
X143352117Y-142436978D01*
X143335105Y-142473212D01*
X143297906Y-142552442D01*
X143297905Y-142552445D01*
X143296398Y-142555655D01*
X143276228Y-142685201D01*
X143293227Y-142815200D01*
X143346030Y-142935204D01*
X143430391Y-143035563D01*
X143433346Y-143037530D01*
X143500495Y-143082229D01*
X143521726Y-143113884D01*
X143522700Y-143123684D01*
X143522700Y-147093766D01*
X144098184Y-147669250D01*
X148141516Y-147669250D01*
X148998065Y-146812701D01*
X149626228Y-146812701D01*
X149643227Y-146942700D01*
X149696030Y-147062704D01*
X149780391Y-147163063D01*
X149889529Y-147235712D01*
X150014670Y-147274809D01*
X150018214Y-147274874D01*
X150142207Y-147277146D01*
X150145754Y-147277211D01*
X150154565Y-147274809D01*
X150160329Y-147273237D01*
X150272244Y-147242726D01*
X150383971Y-147174126D01*
X150471953Y-147076925D01*
X150529117Y-146958937D01*
X150550869Y-146829648D01*
X150551007Y-146818350D01*
X150542946Y-146762058D01*
X150532924Y-146692080D01*
X150532421Y-146688568D01*
X150478156Y-146569219D01*
X150392575Y-146469897D01*
X150389600Y-146467969D01*
X150389597Y-146467966D01*
X150321401Y-146423764D01*
X150282558Y-146398587D01*
X150156948Y-146361022D01*
X150153401Y-146361000D01*
X150153399Y-146361000D01*
X150093696Y-146360636D01*
X150025844Y-146360221D01*
X149899785Y-146396249D01*
X149788905Y-146466209D01*
X149702117Y-146564478D01*
X149675260Y-146621682D01*
X149647906Y-146679942D01*
X149647905Y-146679945D01*
X149646398Y-146683155D01*
X149626228Y-146812701D01*
X148998065Y-146812701D01*
X149714430Y-146096336D01*
X149749644Y-146081750D01*
X150745056Y-146081750D01*
X150780270Y-146096336D01*
X151128114Y-146444180D01*
X151142700Y-146479394D01*
X151142700Y-147157306D01*
X151128114Y-147192520D01*
X148557770Y-149762864D01*
X148522556Y-149777450D01*
X141494644Y-149777450D01*
X141459430Y-149762864D01*
X139916106Y-148219540D01*
X139901520Y-148184326D01*
X139916106Y-148149112D01*
X139951320Y-148134526D01*
X139978915Y-148142871D01*
X140047029Y-148188212D01*
X140172170Y-148227309D01*
X140175714Y-148227374D01*
X140299707Y-148229646D01*
X140303254Y-148229711D01*
X140312065Y-148227309D01*
X140340561Y-148219540D01*
X140429744Y-148195226D01*
X140541471Y-148126626D01*
X140629453Y-148029425D01*
X140686617Y-147911437D01*
X140708369Y-147782148D01*
X140708507Y-147770850D01*
X140689921Y-147641068D01*
X140635656Y-147521719D01*
X140550075Y-147422397D01*
X140547100Y-147420469D01*
X140547097Y-147420466D01*
X140478901Y-147376264D01*
X140440058Y-147351087D01*
X140314448Y-147313522D01*
X140310901Y-147313500D01*
X140310899Y-147313500D01*
X140251196Y-147313136D01*
X140183344Y-147312721D01*
X140057285Y-147348749D01*
X139946405Y-147418709D01*
X139859617Y-147516978D01*
X139830264Y-147579497D01*
X139805406Y-147632442D01*
X139805405Y-147632445D01*
X139803898Y-147635655D01*
X139783728Y-147765201D01*
X139800727Y-147895200D01*
X139853530Y-148015204D01*
X139855814Y-148017921D01*
X139859684Y-148022525D01*
X139871177Y-148058866D01*
X139853607Y-148092690D01*
X139817266Y-148104183D01*
X139786349Y-148089783D01*
X139524086Y-147827520D01*
X139509500Y-147792306D01*
X139509500Y-146495201D01*
X141688728Y-146495201D01*
X141705727Y-146625200D01*
X141758530Y-146745204D01*
X141842891Y-146845563D01*
X141952029Y-146918212D01*
X142077170Y-146957309D01*
X142080714Y-146957374D01*
X142204707Y-146959646D01*
X142208254Y-146959711D01*
X142217065Y-146957309D01*
X142258740Y-146945947D01*
X142334744Y-146925226D01*
X142446471Y-146856626D01*
X142534453Y-146759425D01*
X142591617Y-146641437D01*
X142613369Y-146512148D01*
X142613507Y-146500850D01*
X142598717Y-146397571D01*
X142595424Y-146374580D01*
X142594921Y-146371068D01*
X142540656Y-146251719D01*
X142455075Y-146152397D01*
X142452100Y-146150469D01*
X142452097Y-146150466D01*
X142368584Y-146096336D01*
X142345058Y-146081087D01*
X142219448Y-146043522D01*
X142215901Y-146043500D01*
X142215899Y-146043500D01*
X142156197Y-146043136D01*
X142088344Y-146042721D01*
X141962285Y-146078749D01*
X141851405Y-146148709D01*
X141764617Y-146246978D01*
X141735264Y-146309497D01*
X141710406Y-146362442D01*
X141710405Y-146362445D01*
X141708898Y-146365655D01*
X141688728Y-146495201D01*
X139509500Y-146495201D01*
X139509500Y-143637701D01*
X142323728Y-143637701D01*
X142340727Y-143767700D01*
X142393530Y-143887704D01*
X142477891Y-143988063D01*
X142587029Y-144060712D01*
X142712170Y-144099809D01*
X142715714Y-144099874D01*
X142839707Y-144102146D01*
X142843254Y-144102211D01*
X142852065Y-144099809D01*
X142857829Y-144098237D01*
X142969744Y-144067726D01*
X143081471Y-143999126D01*
X143169453Y-143901925D01*
X143226617Y-143783937D01*
X143248369Y-143654648D01*
X143248507Y-143643350D01*
X143229921Y-143513568D01*
X143175656Y-143394219D01*
X143090075Y-143294897D01*
X143087100Y-143292969D01*
X143087097Y-143292966D01*
X143018901Y-143248764D01*
X142980058Y-143223587D01*
X142854448Y-143186022D01*
X142850901Y-143186000D01*
X142850899Y-143186000D01*
X142791196Y-143185636D01*
X142723344Y-143185221D01*
X142597285Y-143221249D01*
X142486405Y-143291209D01*
X142399617Y-143389478D01*
X142371108Y-143450200D01*
X142345406Y-143504942D01*
X142345405Y-143504945D01*
X142343898Y-143508155D01*
X142323728Y-143637701D01*
X139509500Y-143637701D01*
X139509500Y-142367701D01*
X142006228Y-142367701D01*
X142023227Y-142497700D01*
X142076030Y-142617704D01*
X142160391Y-142718063D01*
X142269529Y-142790712D01*
X142394670Y-142829809D01*
X142398214Y-142829874D01*
X142522207Y-142832146D01*
X142525754Y-142832211D01*
X142534565Y-142829809D01*
X142576240Y-142818447D01*
X142652244Y-142797726D01*
X142763971Y-142729126D01*
X142851953Y-142631925D01*
X142909117Y-142513937D01*
X142930869Y-142384648D01*
X142931007Y-142373350D01*
X142912421Y-142243568D01*
X142858156Y-142124219D01*
X142772575Y-142024897D01*
X142769600Y-142022969D01*
X142769597Y-142022966D01*
X142701401Y-141978764D01*
X142662558Y-141953587D01*
X142536948Y-141916022D01*
X142533401Y-141916000D01*
X142533399Y-141916000D01*
X142473696Y-141915636D01*
X142405844Y-141915221D01*
X142279785Y-141951249D01*
X142168905Y-142021209D01*
X142166556Y-142023869D01*
X142114278Y-142083063D01*
X142082117Y-142119478D01*
X142065105Y-142155712D01*
X142027906Y-142234942D01*
X142027905Y-142234945D01*
X142026398Y-142238155D01*
X142006228Y-142367701D01*
X139509500Y-142367701D01*
X139509500Y-141097701D01*
X142006228Y-141097701D01*
X142023227Y-141227700D01*
X142076030Y-141347704D01*
X142160391Y-141448063D01*
X142269529Y-141520712D01*
X142394670Y-141559809D01*
X142398214Y-141559874D01*
X142522207Y-141562146D01*
X142525754Y-141562211D01*
X142534565Y-141559809D01*
X142540329Y-141558237D01*
X142652244Y-141527726D01*
X142763971Y-141459126D01*
X142851953Y-141361925D01*
X142909117Y-141243937D01*
X142930869Y-141114648D01*
X142931007Y-141103350D01*
X142912421Y-140973568D01*
X142858156Y-140854219D01*
X142772575Y-140754897D01*
X142769600Y-140752969D01*
X142769597Y-140752966D01*
X142701401Y-140708764D01*
X142662558Y-140683587D01*
X142536948Y-140646022D01*
X142533401Y-140646000D01*
X142533399Y-140646000D01*
X142473696Y-140645636D01*
X142405844Y-140645221D01*
X142279785Y-140681249D01*
X142168905Y-140751209D01*
X142166556Y-140753869D01*
X142114278Y-140813063D01*
X142082117Y-140849478D01*
X142065105Y-140885712D01*
X142027906Y-140964942D01*
X142027905Y-140964945D01*
X142026398Y-140968155D01*
X142006228Y-141097701D01*
X139509500Y-141097701D01*
X139509500Y-135662032D01*
X139524086Y-135626818D01*
X139533243Y-135619593D01*
X139552557Y-135607734D01*
X139588971Y-135585376D01*
X139676953Y-135488175D01*
X139734117Y-135370187D01*
X139755869Y-135240898D01*
X139756007Y-135229600D01*
X139737421Y-135099818D01*
X139683156Y-134980469D01*
X139597575Y-134881147D01*
X139594600Y-134879219D01*
X139594597Y-134879216D01*
X139532213Y-134838781D01*
X139510597Y-134807388D01*
X139509500Y-134796992D01*
X139509500Y-134414394D01*
X139524086Y-134379180D01*
X142094430Y-131808836D01*
X142129644Y-131794250D01*
X143472900Y-131794250D01*
X143508114Y-131808836D01*
G37*
%TD.AperFunction*%
%TD*%
%TA.AperFunction,Conductor*%
%TO.N,VDDOUT*%
G36*
X144855728Y-131808836D02*
G01*
X144870314Y-131844050D01*
X144869721Y-131851707D01*
X144863728Y-131890201D01*
X144880727Y-132020200D01*
X144933530Y-132140204D01*
X145017891Y-132240563D01*
X145127029Y-132313212D01*
X145252170Y-132352309D01*
X145255714Y-132352374D01*
X145379707Y-132354646D01*
X145383254Y-132354711D01*
X145392065Y-132352309D01*
X145397829Y-132350737D01*
X145509744Y-132320226D01*
X145621471Y-132251626D01*
X145709453Y-132154425D01*
X145766617Y-132036437D01*
X145788369Y-131907148D01*
X145788507Y-131895850D01*
X145782100Y-131851110D01*
X145791547Y-131814184D01*
X145824337Y-131794753D01*
X145831397Y-131794250D01*
X147995514Y-131794250D01*
X148030728Y-131808836D01*
X148045314Y-131844050D01*
X148044721Y-131851707D01*
X148038728Y-131890201D01*
X148055727Y-132020200D01*
X148108530Y-132140204D01*
X148192891Y-132240563D01*
X148302029Y-132313212D01*
X148427170Y-132352309D01*
X148430714Y-132352374D01*
X148554707Y-132354646D01*
X148558254Y-132354711D01*
X148567065Y-132352309D01*
X148572829Y-132350737D01*
X148684744Y-132320226D01*
X148796471Y-132251626D01*
X148884453Y-132154425D01*
X148941617Y-132036437D01*
X148961919Y-131915768D01*
X148975815Y-131888816D01*
X149055795Y-131808836D01*
X149091009Y-131794250D01*
X151062556Y-131794250D01*
X151097770Y-131808836D01*
X154227790Y-134938856D01*
X154242376Y-134974070D01*
X154227790Y-135009284D01*
X154192576Y-135023870D01*
X154165489Y-135015859D01*
X154101017Y-134974070D01*
X154092558Y-134968587D01*
X153966948Y-134931022D01*
X153963401Y-134931000D01*
X153963399Y-134931000D01*
X153903696Y-134930636D01*
X153835844Y-134930221D01*
X153709785Y-134966249D01*
X153598905Y-135036209D01*
X153512117Y-135134478D01*
X153482764Y-135196997D01*
X153457906Y-135249942D01*
X153457905Y-135249945D01*
X153456398Y-135253155D01*
X153436228Y-135382701D01*
X153453227Y-135512700D01*
X153506030Y-135632704D01*
X153590391Y-135733063D01*
X153699529Y-135805712D01*
X153824670Y-135844809D01*
X153828214Y-135844874D01*
X153952207Y-135847146D01*
X153955754Y-135847211D01*
X153964565Y-135844809D01*
X153970329Y-135843237D01*
X154082244Y-135812726D01*
X154193971Y-135744126D01*
X154230979Y-135703240D01*
X154265424Y-135686921D01*
X154301319Y-135699738D01*
X154317700Y-135736659D01*
X154317700Y-140807306D01*
X154303114Y-140842520D01*
X148612592Y-146533042D01*
X148577378Y-146547628D01*
X148539652Y-146530335D01*
X148487575Y-146469897D01*
X148484600Y-146467969D01*
X148484597Y-146467966D01*
X148416401Y-146423764D01*
X148377558Y-146398587D01*
X148251948Y-146361022D01*
X148248401Y-146361000D01*
X148248399Y-146361000D01*
X148188696Y-146360636D01*
X148120844Y-146360221D01*
X147994785Y-146396249D01*
X147883905Y-146466209D01*
X147797117Y-146564478D01*
X147767764Y-146626997D01*
X147742906Y-146679942D01*
X147742905Y-146679945D01*
X147741398Y-146683155D01*
X147721228Y-146812701D01*
X147738227Y-146942700D01*
X147791030Y-147062704D01*
X147793314Y-147065421D01*
X147869123Y-147155606D01*
X147880616Y-147191947D01*
X147863046Y-147225771D01*
X147831002Y-147237450D01*
X144352144Y-147237450D01*
X144316930Y-147222864D01*
X143969086Y-146875020D01*
X143954500Y-146839806D01*
X143954500Y-143320201D01*
X144228728Y-143320201D01*
X144245727Y-143450200D01*
X144298530Y-143570204D01*
X144382891Y-143670563D01*
X144492029Y-143743212D01*
X144617170Y-143782309D01*
X144620714Y-143782374D01*
X144744707Y-143784646D01*
X144748254Y-143784711D01*
X144757065Y-143782309D01*
X144798740Y-143770947D01*
X144874744Y-143750226D01*
X144986471Y-143681626D01*
X145026230Y-143637701D01*
X149308728Y-143637701D01*
X149325727Y-143767700D01*
X149378530Y-143887704D01*
X149462891Y-143988063D01*
X149572029Y-144060712D01*
X149697170Y-144099809D01*
X149700714Y-144099874D01*
X149824707Y-144102146D01*
X149828254Y-144102211D01*
X149837065Y-144099809D01*
X149842829Y-144098237D01*
X149954744Y-144067726D01*
X150066471Y-143999126D01*
X150154453Y-143901925D01*
X150211617Y-143783937D01*
X150233369Y-143654648D01*
X150233507Y-143643350D01*
X150225446Y-143587058D01*
X150215424Y-143517080D01*
X150214921Y-143513568D01*
X150160656Y-143394219D01*
X150075075Y-143294897D01*
X150072100Y-143292969D01*
X150072097Y-143292966D01*
X150003901Y-143248764D01*
X149965058Y-143223587D01*
X149839448Y-143186022D01*
X149835901Y-143186000D01*
X149835899Y-143186000D01*
X149776196Y-143185636D01*
X149708344Y-143185221D01*
X149582285Y-143221249D01*
X149471405Y-143291209D01*
X149384617Y-143389478D01*
X149357760Y-143446682D01*
X149330406Y-143504942D01*
X149330405Y-143504945D01*
X149328898Y-143508155D01*
X149308728Y-143637701D01*
X145026230Y-143637701D01*
X145074453Y-143584425D01*
X145131617Y-143466437D01*
X145153369Y-143337148D01*
X145153507Y-143325850D01*
X145138717Y-143222571D01*
X145135424Y-143199580D01*
X145134921Y-143196068D01*
X145080656Y-143076719D01*
X144995075Y-142977397D01*
X144992100Y-142975469D01*
X144992097Y-142975466D01*
X144923901Y-142931264D01*
X144885058Y-142906087D01*
X144759448Y-142868522D01*
X144755901Y-142868500D01*
X144755899Y-142868500D01*
X144696196Y-142868136D01*
X144628344Y-142867721D01*
X144502285Y-142903749D01*
X144391405Y-142973709D01*
X144389056Y-142976369D01*
X144336778Y-143035563D01*
X144304617Y-143071978D01*
X144300455Y-143080843D01*
X144250406Y-143187442D01*
X144250405Y-143187445D01*
X144248898Y-143190655D01*
X144228728Y-143320201D01*
X143954500Y-143320201D01*
X143954500Y-143123282D01*
X143969086Y-143088068D01*
X143978243Y-143080843D01*
X143997557Y-143068984D01*
X144033971Y-143046626D01*
X144096634Y-142977397D01*
X144119570Y-142952058D01*
X144119571Y-142952057D01*
X144121953Y-142949425D01*
X144179117Y-142831437D01*
X144200869Y-142702148D01*
X144201007Y-142690850D01*
X144192946Y-142634558D01*
X144182924Y-142564580D01*
X144182421Y-142561068D01*
X144128156Y-142441719D01*
X144042575Y-142342397D01*
X144039600Y-142340469D01*
X144039597Y-142340466D01*
X143977213Y-142300031D01*
X143955597Y-142268638D01*
X143954500Y-142258242D01*
X143954500Y-142050201D01*
X144228728Y-142050201D01*
X144245727Y-142180200D01*
X144253212Y-142197211D01*
X144284641Y-142268638D01*
X144298530Y-142300204D01*
X144382891Y-142400563D01*
X144492029Y-142473212D01*
X144617170Y-142512309D01*
X144620714Y-142512374D01*
X144744707Y-142514646D01*
X144748254Y-142514711D01*
X144757065Y-142512309D01*
X144798740Y-142500947D01*
X144874744Y-142480226D01*
X144986471Y-142411626D01*
X145026230Y-142367701D01*
X147721228Y-142367701D01*
X147738227Y-142497700D01*
X147791030Y-142617704D01*
X147875391Y-142718063D01*
X147984529Y-142790712D01*
X148109670Y-142829809D01*
X148113214Y-142829874D01*
X148237207Y-142832146D01*
X148240754Y-142832211D01*
X148249565Y-142829809D01*
X148256420Y-142827940D01*
X148367244Y-142797726D01*
X148478971Y-142729126D01*
X148566953Y-142631925D01*
X148624117Y-142513937D01*
X148645869Y-142384648D01*
X148646007Y-142373350D01*
X148637946Y-142317058D01*
X148627924Y-142247080D01*
X148627421Y-142243568D01*
X148573156Y-142124219D01*
X148487575Y-142024897D01*
X148484600Y-142022969D01*
X148484597Y-142022966D01*
X148416401Y-141978764D01*
X148377558Y-141953587D01*
X148251948Y-141916022D01*
X148248401Y-141916000D01*
X148248399Y-141916000D01*
X148188696Y-141915636D01*
X148120844Y-141915221D01*
X147994785Y-141951249D01*
X147883905Y-142021209D01*
X147881556Y-142023869D01*
X147829278Y-142083063D01*
X147797117Y-142119478D01*
X147770260Y-142176682D01*
X147742906Y-142234942D01*
X147742905Y-142234945D01*
X147741398Y-142238155D01*
X147721228Y-142367701D01*
X145026230Y-142367701D01*
X145074453Y-142314425D01*
X145131617Y-142196437D01*
X145153369Y-142067148D01*
X145153507Y-142055850D01*
X145145446Y-141999558D01*
X145135424Y-141929580D01*
X145134921Y-141926068D01*
X145080656Y-141806719D01*
X145016878Y-141732701D01*
X148673728Y-141732701D01*
X148690727Y-141862700D01*
X148743530Y-141982704D01*
X148827891Y-142083063D01*
X148937029Y-142155712D01*
X149062170Y-142194809D01*
X149065714Y-142194874D01*
X149189707Y-142197146D01*
X149193254Y-142197211D01*
X149202065Y-142194809D01*
X149243740Y-142183447D01*
X149319744Y-142162726D01*
X149431471Y-142094126D01*
X149494134Y-142024897D01*
X149517070Y-141999558D01*
X149517071Y-141999557D01*
X149519453Y-141996925D01*
X149576617Y-141878937D01*
X149598369Y-141749648D01*
X149598507Y-141738350D01*
X149583717Y-141635071D01*
X149580424Y-141612080D01*
X149579921Y-141608568D01*
X149525656Y-141489219D01*
X149440075Y-141389897D01*
X149437100Y-141387969D01*
X149437097Y-141387966D01*
X149368901Y-141343764D01*
X149330058Y-141318587D01*
X149204448Y-141281022D01*
X149200901Y-141281000D01*
X149200899Y-141281000D01*
X149141196Y-141280636D01*
X149073344Y-141280221D01*
X148947285Y-141316249D01*
X148836405Y-141386209D01*
X148749617Y-141484478D01*
X148720264Y-141546997D01*
X148695406Y-141599942D01*
X148695405Y-141599945D01*
X148693898Y-141603155D01*
X148673728Y-141732701D01*
X145016878Y-141732701D01*
X144995075Y-141707397D01*
X144992100Y-141705469D01*
X144992097Y-141705466D01*
X144923901Y-141661264D01*
X144885058Y-141636087D01*
X144759448Y-141598522D01*
X144755901Y-141598500D01*
X144755899Y-141598500D01*
X144696196Y-141598136D01*
X144628344Y-141597721D01*
X144502285Y-141633749D01*
X144391405Y-141703709D01*
X144304617Y-141801978D01*
X144277760Y-141859182D01*
X144250406Y-141917442D01*
X144250405Y-141917445D01*
X144248898Y-141920655D01*
X144228728Y-142050201D01*
X143954500Y-142050201D01*
X143954500Y-140780201D01*
X144228728Y-140780201D01*
X144245727Y-140910200D01*
X144298530Y-141030204D01*
X144382891Y-141130563D01*
X144492029Y-141203212D01*
X144617170Y-141242309D01*
X144620714Y-141242374D01*
X144744707Y-141244646D01*
X144748254Y-141244711D01*
X144757065Y-141242309D01*
X144762829Y-141240737D01*
X144874744Y-141210226D01*
X144986471Y-141141626D01*
X145074453Y-141044425D01*
X145131617Y-140926437D01*
X145153369Y-140797148D01*
X145153507Y-140785850D01*
X145145446Y-140729558D01*
X145135424Y-140659580D01*
X145134921Y-140656068D01*
X145080656Y-140536719D01*
X144995075Y-140437397D01*
X144992100Y-140435469D01*
X144992097Y-140435466D01*
X144923901Y-140391264D01*
X144885058Y-140366087D01*
X144759448Y-140328522D01*
X144755901Y-140328500D01*
X144755899Y-140328500D01*
X144696196Y-140328136D01*
X144628344Y-140327721D01*
X144502285Y-140363749D01*
X144391405Y-140433709D01*
X144389056Y-140436369D01*
X144336778Y-140495563D01*
X144304617Y-140531978D01*
X144277760Y-140589182D01*
X144250406Y-140647442D01*
X144250405Y-140647445D01*
X144248898Y-140650655D01*
X144228728Y-140780201D01*
X143954500Y-140780201D01*
X143954500Y-140145201D01*
X145181228Y-140145201D01*
X145198227Y-140275200D01*
X145251030Y-140395204D01*
X145335391Y-140495563D01*
X145444529Y-140568212D01*
X145569670Y-140607309D01*
X145573214Y-140607374D01*
X145697207Y-140609646D01*
X145700754Y-140609711D01*
X145709565Y-140607309D01*
X145751240Y-140595947D01*
X145827244Y-140575226D01*
X145938971Y-140506626D01*
X145978730Y-140462701D01*
X148673728Y-140462701D01*
X148690727Y-140592700D01*
X148743530Y-140712704D01*
X148827891Y-140813063D01*
X148937029Y-140885712D01*
X149062170Y-140924809D01*
X149065714Y-140924874D01*
X149189707Y-140927146D01*
X149193254Y-140927211D01*
X149202065Y-140924809D01*
X149243740Y-140913447D01*
X149319744Y-140892726D01*
X149431471Y-140824126D01*
X149519453Y-140726925D01*
X149576617Y-140608937D01*
X149598369Y-140479648D01*
X149598507Y-140468350D01*
X149590446Y-140412058D01*
X149580424Y-140342080D01*
X149579921Y-140338568D01*
X149525656Y-140219219D01*
X149461878Y-140145201D01*
X149943728Y-140145201D01*
X149960727Y-140275200D01*
X150013530Y-140395204D01*
X150097891Y-140495563D01*
X150207029Y-140568212D01*
X150332170Y-140607309D01*
X150335714Y-140607374D01*
X150459707Y-140609646D01*
X150463254Y-140609711D01*
X150472065Y-140607309D01*
X150513740Y-140595947D01*
X150589744Y-140575226D01*
X150701471Y-140506626D01*
X150764134Y-140437397D01*
X150787070Y-140412058D01*
X150787071Y-140412057D01*
X150789453Y-140409425D01*
X150846617Y-140291437D01*
X150868369Y-140162148D01*
X150868507Y-140150850D01*
X150853717Y-140047571D01*
X150850424Y-140024580D01*
X150849921Y-140021068D01*
X150795656Y-139901719D01*
X150710075Y-139802397D01*
X150707100Y-139800469D01*
X150707097Y-139800466D01*
X150638901Y-139756264D01*
X150600058Y-139731087D01*
X150474448Y-139693522D01*
X150470901Y-139693500D01*
X150470899Y-139693500D01*
X150411196Y-139693136D01*
X150343344Y-139692721D01*
X150217285Y-139728749D01*
X150106405Y-139798709D01*
X150019617Y-139896978D01*
X149990264Y-139959497D01*
X149965406Y-140012442D01*
X149965405Y-140012445D01*
X149963898Y-140015655D01*
X149943728Y-140145201D01*
X149461878Y-140145201D01*
X149440075Y-140119897D01*
X149437100Y-140117969D01*
X149437097Y-140117966D01*
X149368901Y-140073764D01*
X149330058Y-140048587D01*
X149204448Y-140011022D01*
X149200901Y-140011000D01*
X149200899Y-140011000D01*
X149141196Y-140010636D01*
X149073344Y-140010221D01*
X148947285Y-140046249D01*
X148836405Y-140116209D01*
X148749617Y-140214478D01*
X148722760Y-140271682D01*
X148695406Y-140329942D01*
X148695405Y-140329945D01*
X148693898Y-140333155D01*
X148673728Y-140462701D01*
X145978730Y-140462701D01*
X146001634Y-140437397D01*
X146024570Y-140412058D01*
X146024571Y-140412057D01*
X146026953Y-140409425D01*
X146084117Y-140291437D01*
X146105869Y-140162148D01*
X146106007Y-140150850D01*
X146091217Y-140047571D01*
X146087924Y-140024580D01*
X146087421Y-140021068D01*
X146033156Y-139901719D01*
X145947575Y-139802397D01*
X145944600Y-139800469D01*
X145944597Y-139800466D01*
X145876401Y-139756264D01*
X145837558Y-139731087D01*
X145711948Y-139693522D01*
X145708401Y-139693500D01*
X145708399Y-139693500D01*
X145648696Y-139693136D01*
X145580844Y-139692721D01*
X145454785Y-139728749D01*
X145343905Y-139798709D01*
X145257117Y-139896978D01*
X145227764Y-139959497D01*
X145202906Y-140012442D01*
X145202905Y-140012445D01*
X145201398Y-140015655D01*
X145181228Y-140145201D01*
X143954500Y-140145201D01*
X143954500Y-137922701D01*
X146768728Y-137922701D01*
X146785727Y-138052700D01*
X146838530Y-138172704D01*
X146922891Y-138273063D01*
X147032029Y-138345712D01*
X147157170Y-138384809D01*
X147160714Y-138384874D01*
X147284707Y-138387146D01*
X147288254Y-138387211D01*
X147297065Y-138384809D01*
X147302829Y-138383237D01*
X147414744Y-138352726D01*
X147526471Y-138284126D01*
X147614453Y-138186925D01*
X147671617Y-138068937D01*
X147693369Y-137939648D01*
X147693507Y-137928350D01*
X147692698Y-137922701D01*
X148038728Y-137922701D01*
X148055727Y-138052700D01*
X148108530Y-138172704D01*
X148192891Y-138273063D01*
X148302029Y-138345712D01*
X148427170Y-138384809D01*
X148430714Y-138384874D01*
X148554707Y-138387146D01*
X148558254Y-138387211D01*
X148567065Y-138384809D01*
X148572829Y-138383237D01*
X148684744Y-138352726D01*
X148796471Y-138284126D01*
X148884453Y-138186925D01*
X148941617Y-138068937D01*
X148963369Y-137939648D01*
X148963507Y-137928350D01*
X148962698Y-137922701D01*
X149308728Y-137922701D01*
X149325727Y-138052700D01*
X149378530Y-138172704D01*
X149462891Y-138273063D01*
X149572029Y-138345712D01*
X149697170Y-138384809D01*
X149700714Y-138384874D01*
X149824707Y-138387146D01*
X149828254Y-138387211D01*
X149837065Y-138384809D01*
X149842829Y-138383237D01*
X149954744Y-138352726D01*
X150066471Y-138284126D01*
X150154453Y-138186925D01*
X150211617Y-138068937D01*
X150233369Y-137939648D01*
X150233507Y-137928350D01*
X150214921Y-137798568D01*
X150160656Y-137679219D01*
X150075075Y-137579897D01*
X150072100Y-137577969D01*
X150072097Y-137577966D01*
X150003901Y-137533764D01*
X149965058Y-137508587D01*
X149839448Y-137471022D01*
X149835901Y-137471000D01*
X149835899Y-137471000D01*
X149776196Y-137470636D01*
X149708344Y-137470221D01*
X149582285Y-137506249D01*
X149471405Y-137576209D01*
X149469056Y-137578869D01*
X149416778Y-137638063D01*
X149384617Y-137674478D01*
X149355264Y-137736997D01*
X149330406Y-137789942D01*
X149330405Y-137789945D01*
X149328898Y-137793155D01*
X149308728Y-137922701D01*
X148962698Y-137922701D01*
X148944921Y-137798568D01*
X148890656Y-137679219D01*
X148805075Y-137579897D01*
X148802100Y-137577969D01*
X148802097Y-137577966D01*
X148733901Y-137533764D01*
X148695058Y-137508587D01*
X148569448Y-137471022D01*
X148565901Y-137471000D01*
X148565899Y-137471000D01*
X148506196Y-137470636D01*
X148438344Y-137470221D01*
X148312285Y-137506249D01*
X148201405Y-137576209D01*
X148199056Y-137578869D01*
X148146778Y-137638063D01*
X148114617Y-137674478D01*
X148085264Y-137736997D01*
X148060406Y-137789942D01*
X148060405Y-137789945D01*
X148058898Y-137793155D01*
X148038728Y-137922701D01*
X147692698Y-137922701D01*
X147674921Y-137798568D01*
X147620656Y-137679219D01*
X147535075Y-137579897D01*
X147532100Y-137577969D01*
X147532097Y-137577966D01*
X147463901Y-137533764D01*
X147425058Y-137508587D01*
X147299448Y-137471022D01*
X147295901Y-137471000D01*
X147295899Y-137471000D01*
X147236196Y-137470636D01*
X147168344Y-137470221D01*
X147042285Y-137506249D01*
X146931405Y-137576209D01*
X146929056Y-137578869D01*
X146876778Y-137638063D01*
X146844617Y-137674478D01*
X146815264Y-137736997D01*
X146790406Y-137789942D01*
X146790405Y-137789945D01*
X146788898Y-137793155D01*
X146768728Y-137922701D01*
X143954500Y-137922701D01*
X143954500Y-137287701D01*
X150261228Y-137287701D01*
X150278227Y-137417700D01*
X150331030Y-137537704D01*
X150415391Y-137638063D01*
X150524529Y-137710712D01*
X150649670Y-137749809D01*
X150653214Y-137749874D01*
X150777207Y-137752146D01*
X150780754Y-137752211D01*
X150789565Y-137749809D01*
X150795329Y-137748237D01*
X150907244Y-137717726D01*
X151018971Y-137649126D01*
X151081634Y-137579897D01*
X151104570Y-137554558D01*
X151104571Y-137554557D01*
X151106953Y-137551925D01*
X151164117Y-137433937D01*
X151185869Y-137304648D01*
X151186007Y-137293350D01*
X151167421Y-137163568D01*
X151113156Y-137044219D01*
X151027575Y-136944897D01*
X151024600Y-136942969D01*
X151024597Y-136942966D01*
X150956401Y-136898764D01*
X150917558Y-136873587D01*
X150791948Y-136836022D01*
X150788401Y-136836000D01*
X150788399Y-136836000D01*
X150728696Y-136835636D01*
X150660844Y-136835221D01*
X150534785Y-136871249D01*
X150423905Y-136941209D01*
X150421556Y-136943869D01*
X150369278Y-137003063D01*
X150337117Y-137039478D01*
X150307764Y-137101997D01*
X150282906Y-137154942D01*
X150282905Y-137154945D01*
X150281398Y-137158155D01*
X150261228Y-137287701D01*
X143954500Y-137287701D01*
X143954500Y-136652701D01*
X145181228Y-136652701D01*
X145198227Y-136782700D01*
X145251030Y-136902704D01*
X145335391Y-137003063D01*
X145444529Y-137075712D01*
X145569670Y-137114809D01*
X145573214Y-137114874D01*
X145697207Y-137117146D01*
X145700754Y-137117211D01*
X145709565Y-137114809D01*
X145715329Y-137113237D01*
X145827244Y-137082726D01*
X145938971Y-137014126D01*
X146001634Y-136944897D01*
X146024570Y-136919558D01*
X146024571Y-136919557D01*
X146026953Y-136916925D01*
X146084117Y-136798937D01*
X146105869Y-136669648D01*
X146106007Y-136658350D01*
X146087421Y-136528568D01*
X146033156Y-136409219D01*
X145947575Y-136309897D01*
X145944600Y-136307969D01*
X145944597Y-136307966D01*
X145876401Y-136263764D01*
X145837558Y-136238587D01*
X145711948Y-136201022D01*
X145708401Y-136201000D01*
X145708399Y-136201000D01*
X145648696Y-136200636D01*
X145580844Y-136200221D01*
X145454785Y-136236249D01*
X145343905Y-136306209D01*
X145257117Y-136404478D01*
X145227764Y-136466997D01*
X145202906Y-136519942D01*
X145202905Y-136519945D01*
X145201398Y-136523155D01*
X145181228Y-136652701D01*
X143954500Y-136652701D01*
X143954500Y-133318951D01*
X150578728Y-133318951D01*
X150595727Y-133448950D01*
X150648530Y-133568954D01*
X150732891Y-133669313D01*
X150842029Y-133741962D01*
X150967170Y-133781059D01*
X150970714Y-133781124D01*
X151094707Y-133783396D01*
X151098254Y-133783461D01*
X151107065Y-133781059D01*
X151112829Y-133779487D01*
X151224744Y-133748976D01*
X151336471Y-133680376D01*
X151424453Y-133583175D01*
X151481617Y-133465187D01*
X151503369Y-133335898D01*
X151503507Y-133324600D01*
X151484921Y-133194818D01*
X151430656Y-133075469D01*
X151345075Y-132976147D01*
X151342100Y-132974219D01*
X151342097Y-132974216D01*
X151273901Y-132930014D01*
X151235058Y-132904837D01*
X151109448Y-132867272D01*
X151105901Y-132867250D01*
X151105899Y-132867250D01*
X151046196Y-132866886D01*
X150978344Y-132866471D01*
X150852285Y-132902499D01*
X150741405Y-132972459D01*
X150654617Y-133070728D01*
X150625264Y-133133247D01*
X150600406Y-133186192D01*
X150600405Y-133186195D01*
X150598898Y-133189405D01*
X150578728Y-133318951D01*
X143954500Y-133318951D01*
X143954500Y-131844050D01*
X143969086Y-131808836D01*
X144004300Y-131794250D01*
X144820514Y-131794250D01*
X144855728Y-131808836D01*
G37*
%TD.AperFunction*%
%TD*%
%TA.AperFunction,Conductor*%
%TO.N,+5V*%
G36*
X121252770Y-144508836D02*
G01*
X121949593Y-145205659D01*
X121964179Y-145240873D01*
X121949593Y-145276087D01*
X121914379Y-145290673D01*
X121907879Y-145290247D01*
X121834336Y-145280565D01*
X121831100Y-145280139D01*
X121679507Y-145300097D01*
X121538245Y-145358609D01*
X121416940Y-145451690D01*
X121323859Y-145572995D01*
X121265347Y-145714257D01*
X121245389Y-145865850D01*
X121265347Y-146017443D01*
X121323859Y-146158705D01*
X121416940Y-146280010D01*
X121490627Y-146336553D01*
X121535654Y-146371104D01*
X121535656Y-146371105D01*
X121538244Y-146373091D01*
X121679507Y-146431603D01*
X121809595Y-146448730D01*
X121830454Y-146451476D01*
X121830994Y-146451788D01*
X121831746Y-146451476D01*
X121852605Y-146448730D01*
X121982693Y-146431603D01*
X122123956Y-146373091D01*
X122126544Y-146371105D01*
X122126546Y-146371104D01*
X122171573Y-146336553D01*
X122245260Y-146280010D01*
X122338341Y-146158705D01*
X122396853Y-146017443D01*
X122416811Y-145865850D01*
X122406703Y-145789071D01*
X122416568Y-145752255D01*
X122449577Y-145733197D01*
X122486393Y-145743062D01*
X122491291Y-145747357D01*
X125684005Y-148940071D01*
X125698591Y-148975285D01*
X125698165Y-148981785D01*
X125694950Y-149006209D01*
X125690389Y-149040850D01*
X125710347Y-149192443D01*
X125768859Y-149333705D01*
X125861940Y-149455010D01*
X125898026Y-149482700D01*
X125980654Y-149546104D01*
X125980656Y-149546105D01*
X125983244Y-149548091D01*
X126124507Y-149606603D01*
X126276100Y-149626561D01*
X126279336Y-149626135D01*
X126335165Y-149618785D01*
X126371981Y-149628650D01*
X126376879Y-149632945D01*
X129299461Y-152555527D01*
X129313627Y-152584284D01*
X129323227Y-152657700D01*
X129376030Y-152777704D01*
X129460391Y-152878063D01*
X129569529Y-152950712D01*
X129694670Y-152989809D01*
X129698214Y-152989874D01*
X129702421Y-152989951D01*
X129714380Y-152990170D01*
X129748682Y-153004748D01*
X130169670Y-153425736D01*
X130184256Y-153460950D01*
X130169670Y-153496164D01*
X130134456Y-153510750D01*
X128718680Y-153510750D01*
X128717379Y-153510887D01*
X128717374Y-153510887D01*
X128581938Y-153525122D01*
X128581935Y-153525123D01*
X128579344Y-153525395D01*
X128401515Y-153583175D01*
X128399257Y-153584479D01*
X128399254Y-153584480D01*
X128278439Y-153654233D01*
X128239585Y-153676665D01*
X128100631Y-153801780D01*
X127990727Y-153953050D01*
X127914675Y-154123865D01*
X127875800Y-154306760D01*
X127875800Y-154493740D01*
X127914675Y-154676635D01*
X127990727Y-154847450D01*
X127992260Y-154849560D01*
X128016604Y-154883066D01*
X128100631Y-154998720D01*
X128239585Y-155123835D01*
X128278439Y-155146267D01*
X128399254Y-155216020D01*
X128399257Y-155216021D01*
X128401515Y-155217325D01*
X128579344Y-155275105D01*
X128581935Y-155275377D01*
X128581938Y-155275378D01*
X128717374Y-155289613D01*
X128717379Y-155289613D01*
X128718680Y-155289750D01*
X130335920Y-155289750D01*
X130337221Y-155289613D01*
X130337226Y-155289613D01*
X130472662Y-155275378D01*
X130472665Y-155275377D01*
X130475256Y-155275105D01*
X130653085Y-155217325D01*
X130655343Y-155216021D01*
X130655346Y-155216020D01*
X130776161Y-155146267D01*
X130815015Y-155123835D01*
X130953969Y-154998720D01*
X131037997Y-154883066D01*
X131062340Y-154849560D01*
X131063873Y-154847450D01*
X131139925Y-154676635D01*
X131170051Y-154534903D01*
X131191640Y-154503491D01*
X131229117Y-154496545D01*
X131253977Y-154510043D01*
X132668184Y-155924250D01*
X134094745Y-155924250D01*
X134129959Y-155938836D01*
X134144545Y-155974050D01*
X134134254Y-156004366D01*
X134075833Y-156080502D01*
X134023316Y-156207290D01*
X134005403Y-156343350D01*
X134023316Y-156479410D01*
X134075833Y-156606198D01*
X134159376Y-156715074D01*
X134268251Y-156798617D01*
X134395040Y-156851134D01*
X134531100Y-156869047D01*
X134667160Y-156851134D01*
X134793949Y-156798617D01*
X134902824Y-156715074D01*
X134986367Y-156606198D01*
X135038884Y-156479410D01*
X135056797Y-156343350D01*
X135038884Y-156207290D01*
X134986367Y-156080502D01*
X134927946Y-156004366D01*
X134918081Y-155967550D01*
X134937139Y-155934541D01*
X134967455Y-155924250D01*
X137122900Y-155924250D01*
X137158114Y-155938836D01*
X137172700Y-155974050D01*
X137172700Y-159252650D01*
X137158114Y-159287864D01*
X137122900Y-159302450D01*
X131170032Y-159302450D01*
X131134818Y-159287864D01*
X131120232Y-159252650D01*
X131124538Y-159232394D01*
X131138861Y-159200224D01*
X131139925Y-159197835D01*
X131178800Y-159014940D01*
X131178800Y-158827960D01*
X131139925Y-158645065D01*
X131063873Y-158474250D01*
X130953969Y-158322980D01*
X130815015Y-158197865D01*
X130776161Y-158175433D01*
X130655346Y-158105680D01*
X130655343Y-158105679D01*
X130653085Y-158104375D01*
X130475256Y-158046595D01*
X130472665Y-158046323D01*
X130472662Y-158046322D01*
X130337226Y-158032087D01*
X130337221Y-158032087D01*
X130335920Y-158031950D01*
X128718680Y-158031950D01*
X128717379Y-158032087D01*
X128717374Y-158032087D01*
X128581938Y-158046322D01*
X128581935Y-158046323D01*
X128579344Y-158046595D01*
X128401515Y-158104375D01*
X128399257Y-158105679D01*
X128399254Y-158105680D01*
X128278439Y-158175433D01*
X128239585Y-158197865D01*
X128100631Y-158322980D01*
X127990727Y-158474250D01*
X127914675Y-158645065D01*
X127875800Y-158827960D01*
X127875800Y-159014940D01*
X127914675Y-159197835D01*
X127915739Y-159200224D01*
X127930062Y-159232394D01*
X127931060Y-159270496D01*
X127904824Y-159298144D01*
X127884568Y-159302450D01*
X124667632Y-159302450D01*
X124632418Y-159287864D01*
X124617832Y-159252650D01*
X124622138Y-159232394D01*
X124636461Y-159200224D01*
X124637525Y-159197835D01*
X124676400Y-159014940D01*
X124676400Y-158827960D01*
X124637525Y-158645065D01*
X124561473Y-158474250D01*
X124451569Y-158322980D01*
X124312615Y-158197865D01*
X124273761Y-158175433D01*
X124152946Y-158105680D01*
X124152943Y-158105679D01*
X124150685Y-158104375D01*
X123972856Y-158046595D01*
X123970265Y-158046323D01*
X123970262Y-158046322D01*
X123834826Y-158032087D01*
X123834821Y-158032087D01*
X123833520Y-158031950D01*
X122444144Y-158031950D01*
X122408930Y-158017364D01*
X118885306Y-154493740D01*
X121373400Y-154493740D01*
X121412275Y-154676635D01*
X121488327Y-154847450D01*
X121489860Y-154849560D01*
X121514204Y-154883066D01*
X121598231Y-154998720D01*
X121737185Y-155123835D01*
X121776039Y-155146267D01*
X121896854Y-155216020D01*
X121896857Y-155216021D01*
X121899115Y-155217325D01*
X122076944Y-155275105D01*
X122079535Y-155275377D01*
X122079538Y-155275378D01*
X122214974Y-155289613D01*
X122214979Y-155289613D01*
X122216280Y-155289750D01*
X123833520Y-155289750D01*
X123834821Y-155289613D01*
X123834826Y-155289613D01*
X123970262Y-155275378D01*
X123970265Y-155275377D01*
X123972856Y-155275105D01*
X124150685Y-155217325D01*
X124152943Y-155216021D01*
X124152946Y-155216020D01*
X124273761Y-155146267D01*
X124312615Y-155123835D01*
X124451569Y-154998720D01*
X124535597Y-154883066D01*
X124559940Y-154849560D01*
X124561473Y-154847450D01*
X124637525Y-154676635D01*
X124676400Y-154493740D01*
X124676400Y-154306760D01*
X124637525Y-154123865D01*
X124561473Y-153953050D01*
X124451569Y-153801780D01*
X124312615Y-153676665D01*
X124273761Y-153654233D01*
X124152946Y-153584480D01*
X124152943Y-153584479D01*
X124150685Y-153583175D01*
X123972856Y-153525395D01*
X123970265Y-153525123D01*
X123970262Y-153525122D01*
X123834826Y-153510887D01*
X123834821Y-153510887D01*
X123833520Y-153510750D01*
X122216280Y-153510750D01*
X122214979Y-153510887D01*
X122214974Y-153510887D01*
X122079538Y-153525122D01*
X122079535Y-153525123D01*
X122076944Y-153525395D01*
X121899115Y-153583175D01*
X121896857Y-153584479D01*
X121896854Y-153584480D01*
X121776039Y-153654233D01*
X121737185Y-153676665D01*
X121598231Y-153801780D01*
X121488327Y-153953050D01*
X121412275Y-154123865D01*
X121373400Y-154306760D01*
X121373400Y-154493740D01*
X118885306Y-154493740D01*
X111527416Y-147135850D01*
X121245389Y-147135850D01*
X121265347Y-147287443D01*
X121323859Y-147428705D01*
X121416940Y-147550010D01*
X121475195Y-147594711D01*
X121535654Y-147641104D01*
X121535656Y-147641105D01*
X121538244Y-147643091D01*
X121679507Y-147701603D01*
X121831100Y-147721561D01*
X121982693Y-147701603D01*
X122123956Y-147643091D01*
X122126544Y-147641105D01*
X122126546Y-147641104D01*
X122187005Y-147594711D01*
X122245260Y-147550010D01*
X122338341Y-147428705D01*
X122396853Y-147287443D01*
X122416811Y-147135850D01*
X122396853Y-146984257D01*
X122338341Y-146842995D01*
X122245260Y-146721690D01*
X122171573Y-146665147D01*
X122126546Y-146630596D01*
X122126544Y-146630595D01*
X122123956Y-146628609D01*
X121982693Y-146570097D01*
X121831746Y-146550224D01*
X121831206Y-146549912D01*
X121830454Y-146550224D01*
X121679507Y-146570097D01*
X121538245Y-146628609D01*
X121416940Y-146721690D01*
X121323859Y-146842995D01*
X121265347Y-146984257D01*
X121245389Y-147135850D01*
X111527416Y-147135850D01*
X110949086Y-146557520D01*
X110934500Y-146522306D01*
X110934500Y-145230850D01*
X116225403Y-145230850D01*
X116243316Y-145366910D01*
X116295833Y-145493698D01*
X116379376Y-145602574D01*
X116488251Y-145686117D01*
X116615040Y-145738634D01*
X116751100Y-145756547D01*
X116887160Y-145738634D01*
X117013949Y-145686117D01*
X117122824Y-145602574D01*
X117206367Y-145493698D01*
X117258884Y-145366910D01*
X117276797Y-145230850D01*
X117258884Y-145094790D01*
X117206367Y-144968002D01*
X117122824Y-144859126D01*
X117013949Y-144775583D01*
X116887160Y-144723066D01*
X116751100Y-144705153D01*
X116615040Y-144723066D01*
X116488252Y-144775583D01*
X116379376Y-144859126D01*
X116295833Y-144968002D01*
X116243316Y-145094790D01*
X116225403Y-145230850D01*
X110934500Y-145230850D01*
X110934500Y-144544050D01*
X110949086Y-144508836D01*
X110984300Y-144494250D01*
X121217556Y-144494250D01*
X121252770Y-144508836D01*
G37*
%TD.AperFunction*%
%TD*%
%TA.AperFunction,Conductor*%
%TO.N,+3V3*%
G36*
X143886538Y-103551336D02*
G01*
X143924130Y-103588928D01*
X143955826Y-103610039D01*
X143960629Y-103610990D01*
X143990358Y-103616877D01*
X143990360Y-103616877D01*
X143992748Y-103617350D01*
X144371348Y-103617350D01*
X144754449Y-103617349D01*
X144791793Y-103609865D01*
X144818585Y-103591930D01*
X144821043Y-103590284D01*
X144823073Y-103588925D01*
X144860662Y-103551336D01*
X144895876Y-103536750D01*
X157186324Y-103536750D01*
X157221538Y-103551336D01*
X157259130Y-103588928D01*
X157290826Y-103610039D01*
X157295629Y-103610990D01*
X157325358Y-103616877D01*
X157325360Y-103616877D01*
X157327748Y-103617350D01*
X157706348Y-103617350D01*
X158089449Y-103617349D01*
X158126793Y-103609865D01*
X158153585Y-103591930D01*
X158156043Y-103590284D01*
X158158073Y-103588925D01*
X158195662Y-103551336D01*
X158230876Y-103536750D01*
X170521324Y-103536750D01*
X170556538Y-103551336D01*
X170594130Y-103588928D01*
X170625826Y-103610039D01*
X170630629Y-103610990D01*
X170660358Y-103616877D01*
X170660360Y-103616877D01*
X170662748Y-103617350D01*
X171041348Y-103617350D01*
X171424449Y-103617349D01*
X171461793Y-103609865D01*
X171488585Y-103591930D01*
X171491043Y-103590284D01*
X171493073Y-103588925D01*
X171530662Y-103551336D01*
X171565876Y-103536750D01*
X183856324Y-103536750D01*
X183891538Y-103551336D01*
X183929130Y-103588928D01*
X183960826Y-103610039D01*
X183965629Y-103610990D01*
X183995358Y-103616877D01*
X183995360Y-103616877D01*
X183997748Y-103617350D01*
X184376348Y-103617350D01*
X184759449Y-103617349D01*
X184796793Y-103609865D01*
X184823585Y-103591930D01*
X184826043Y-103590284D01*
X184828073Y-103588925D01*
X184865662Y-103551336D01*
X184900876Y-103536750D01*
X189078100Y-103536750D01*
X189113314Y-103551336D01*
X189127900Y-103586550D01*
X189127900Y-111735742D01*
X189113314Y-111770956D01*
X177791406Y-123092864D01*
X177771232Y-123101220D01*
X177772242Y-123103659D01*
X177763090Y-123107450D01*
X177753184Y-123107450D01*
X152367770Y-148492864D01*
X152332556Y-148507450D01*
X151624300Y-148507450D01*
X151589086Y-148492864D01*
X151574500Y-148457650D01*
X151574500Y-147250782D01*
X151589086Y-147215568D01*
X151598243Y-147208343D01*
X151617557Y-147196484D01*
X151653971Y-147174126D01*
X151741953Y-147076925D01*
X151799117Y-146958937D01*
X151820869Y-146829648D01*
X151821007Y-146818350D01*
X151806217Y-146715071D01*
X151802924Y-146692080D01*
X151802421Y-146688568D01*
X151748156Y-146569219D01*
X151662575Y-146469897D01*
X151659600Y-146467969D01*
X151659597Y-146467966D01*
X151597213Y-146427531D01*
X151575597Y-146396138D01*
X151574500Y-146385742D01*
X151574500Y-145542701D01*
X151848728Y-145542701D01*
X151865727Y-145672700D01*
X151874276Y-145692129D01*
X151902621Y-145756547D01*
X151918530Y-145792704D01*
X152002891Y-145893063D01*
X152112029Y-145965712D01*
X152237170Y-146004809D01*
X152240714Y-146004874D01*
X152364707Y-146007146D01*
X152368254Y-146007211D01*
X152377065Y-146004809D01*
X152382829Y-146003237D01*
X152494744Y-145972726D01*
X152606471Y-145904126D01*
X152694453Y-145806925D01*
X152751617Y-145688937D01*
X152773369Y-145559648D01*
X152773507Y-145548350D01*
X152754921Y-145418568D01*
X152700656Y-145299219D01*
X152615075Y-145199897D01*
X152612100Y-145197969D01*
X152612097Y-145197966D01*
X152513091Y-145133794D01*
X152505058Y-145128587D01*
X152379448Y-145091022D01*
X152375901Y-145091000D01*
X152375899Y-145091000D01*
X152316196Y-145090636D01*
X152248344Y-145090221D01*
X152122285Y-145126249D01*
X152011405Y-145196209D01*
X152009056Y-145198869D01*
X151937281Y-145280139D01*
X151924617Y-145294478D01*
X151917643Y-145309332D01*
X151870406Y-145409942D01*
X151870405Y-145409945D01*
X151868898Y-145413155D01*
X151848728Y-145542701D01*
X151574500Y-145542701D01*
X151574500Y-144574394D01*
X151589086Y-144539180D01*
X152173065Y-143955201D01*
X153118728Y-143955201D01*
X153135727Y-144085200D01*
X153188530Y-144205204D01*
X153190814Y-144207921D01*
X153249829Y-144278127D01*
X153272891Y-144305563D01*
X153382029Y-144378212D01*
X153507170Y-144417309D01*
X153510714Y-144417374D01*
X153634707Y-144419646D01*
X153638254Y-144419711D01*
X153647065Y-144417309D01*
X153652829Y-144415737D01*
X153764744Y-144385226D01*
X153876471Y-144316626D01*
X153964453Y-144219425D01*
X154021617Y-144101437D01*
X154043369Y-143972148D01*
X154043507Y-143960850D01*
X154039284Y-143931358D01*
X154025424Y-143834580D01*
X154024921Y-143831068D01*
X153970656Y-143711719D01*
X153885075Y-143612397D01*
X153882100Y-143610469D01*
X153882097Y-143610466D01*
X153813901Y-143566264D01*
X153775058Y-143541087D01*
X153649448Y-143503522D01*
X153645901Y-143503500D01*
X153645899Y-143503500D01*
X153586196Y-143503136D01*
X153518344Y-143502721D01*
X153392285Y-143538749D01*
X153281405Y-143608709D01*
X153279056Y-143611369D01*
X153226778Y-143670563D01*
X153194617Y-143706978D01*
X153166108Y-143767700D01*
X153140406Y-143822442D01*
X153140405Y-143822445D01*
X153138898Y-143825655D01*
X153118728Y-143955201D01*
X152173065Y-143955201D01*
X154749500Y-141378766D01*
X154749500Y-138875201D01*
X157246228Y-138875201D01*
X157263227Y-139005200D01*
X157316030Y-139125204D01*
X157400391Y-139225563D01*
X157509529Y-139298212D01*
X157634670Y-139337309D01*
X157638214Y-139337374D01*
X157762207Y-139339646D01*
X157765754Y-139339711D01*
X157774565Y-139337309D01*
X157780329Y-139335737D01*
X157892244Y-139305226D01*
X158003971Y-139236626D01*
X158066634Y-139167397D01*
X158089570Y-139142058D01*
X158089571Y-139142057D01*
X158091953Y-139139425D01*
X158149117Y-139021437D01*
X158170869Y-138892148D01*
X158171007Y-138880850D01*
X158152421Y-138751068D01*
X158098156Y-138631719D01*
X158012575Y-138532397D01*
X158009600Y-138530469D01*
X158009597Y-138530466D01*
X157941401Y-138486264D01*
X157902558Y-138461087D01*
X157776948Y-138423522D01*
X157773401Y-138423500D01*
X157773399Y-138423500D01*
X157713696Y-138423136D01*
X157645844Y-138422721D01*
X157519785Y-138458749D01*
X157408905Y-138528709D01*
X157322117Y-138626978D01*
X157292764Y-138689497D01*
X157267906Y-138742442D01*
X157267905Y-138742445D01*
X157266398Y-138745655D01*
X157246228Y-138875201D01*
X154749500Y-138875201D01*
X154749500Y-135388350D01*
X163215403Y-135388350D01*
X163233316Y-135524410D01*
X163285833Y-135651198D01*
X163369376Y-135760074D01*
X163478251Y-135843617D01*
X163605040Y-135896134D01*
X163741100Y-135914047D01*
X163877160Y-135896134D01*
X164003949Y-135843617D01*
X164112824Y-135760074D01*
X164196367Y-135651198D01*
X164248884Y-135524410D01*
X164266797Y-135388350D01*
X164248884Y-135252290D01*
X164196367Y-135125502D01*
X164130680Y-135039897D01*
X164114813Y-135019218D01*
X164112824Y-135016626D01*
X164003949Y-134933083D01*
X163877160Y-134880566D01*
X163741100Y-134862653D01*
X163605040Y-134880566D01*
X163478252Y-134933083D01*
X163369376Y-135016626D01*
X163367387Y-135019218D01*
X163351520Y-135039897D01*
X163285833Y-135125502D01*
X163233316Y-135252290D01*
X163215403Y-135388350D01*
X154749500Y-135388350D01*
X154749500Y-134477934D01*
X153749267Y-133477701D01*
X155023728Y-133477701D01*
X155040727Y-133607700D01*
X155093530Y-133727704D01*
X155177891Y-133828063D01*
X155287029Y-133900712D01*
X155412170Y-133939809D01*
X155415714Y-133939874D01*
X155539707Y-133942146D01*
X155543254Y-133942211D01*
X155552065Y-133939809D01*
X155593560Y-133928496D01*
X155669744Y-133907726D01*
X155781471Y-133839126D01*
X155829190Y-133786407D01*
X155867070Y-133744558D01*
X155867071Y-133744557D01*
X155869453Y-133741925D01*
X155926617Y-133623937D01*
X155948369Y-133494648D01*
X155948507Y-133483350D01*
X155940446Y-133427058D01*
X155930424Y-133357080D01*
X155929921Y-133353568D01*
X155875656Y-133234219D01*
X155790075Y-133134897D01*
X155787100Y-133132969D01*
X155787097Y-133132966D01*
X155718901Y-133088764D01*
X155680058Y-133063587D01*
X155554448Y-133026022D01*
X155550901Y-133026000D01*
X155550899Y-133026000D01*
X155491196Y-133025636D01*
X155423344Y-133025221D01*
X155297285Y-133061249D01*
X155186405Y-133131209D01*
X155184056Y-133133869D01*
X155108835Y-133219041D01*
X155099617Y-133229478D01*
X155072760Y-133286682D01*
X155045406Y-133344942D01*
X155045405Y-133344945D01*
X155043898Y-133348155D01*
X155023728Y-133477701D01*
X153749267Y-133477701D01*
X151948130Y-131676564D01*
X151933544Y-131641350D01*
X151948130Y-131606136D01*
X151983344Y-131591550D01*
X154199477Y-131591550D01*
X154203817Y-131591739D01*
X154241031Y-131594995D01*
X154241033Y-131594995D01*
X154245367Y-131595374D01*
X154285647Y-131584581D01*
X154289882Y-131583643D01*
X154330951Y-131576401D01*
X154338069Y-131572292D01*
X154350079Y-131567317D01*
X154353807Y-131566318D01*
X154358016Y-131565190D01*
X154383427Y-131547397D01*
X154392175Y-131541272D01*
X154395838Y-131538938D01*
X154431949Y-131518089D01*
X154458756Y-131486142D01*
X154461690Y-131482940D01*
X157385823Y-128558807D01*
X157421949Y-128544229D01*
X157444706Y-128544646D01*
X157448254Y-128544711D01*
X157457065Y-128542309D01*
X157462829Y-128540737D01*
X157574744Y-128510226D01*
X157686471Y-128441626D01*
X157774453Y-128344425D01*
X157831617Y-128226437D01*
X157853369Y-128097148D01*
X157853507Y-128085850D01*
X157834921Y-127956068D01*
X157780656Y-127836719D01*
X157695075Y-127737397D01*
X157692100Y-127735469D01*
X157692097Y-127735466D01*
X157623901Y-127691264D01*
X157585058Y-127666087D01*
X157459448Y-127628522D01*
X157455901Y-127628500D01*
X157455899Y-127628500D01*
X157396196Y-127628136D01*
X157328344Y-127627721D01*
X157202285Y-127663749D01*
X157091405Y-127733709D01*
X157004617Y-127831978D01*
X156975264Y-127894497D01*
X156950406Y-127947442D01*
X156950405Y-127947445D01*
X156948898Y-127950655D01*
X156943339Y-127986359D01*
X156931166Y-128064544D01*
X156917173Y-128092097D01*
X154093706Y-130915564D01*
X154058492Y-130930150D01*
X149152723Y-130930150D01*
X149148383Y-130929961D01*
X149111169Y-130926705D01*
X149111167Y-130926705D01*
X149106833Y-130926326D01*
X149066553Y-130937119D01*
X149062318Y-130938057D01*
X149021249Y-130945299D01*
X149017474Y-130947478D01*
X149017475Y-130947478D01*
X149014132Y-130949408D01*
X149002120Y-130954383D01*
X148994184Y-130956510D01*
X148990615Y-130959009D01*
X148960021Y-130980431D01*
X148956357Y-130982765D01*
X148951802Y-130985395D01*
X148920251Y-131003611D01*
X148913448Y-131011719D01*
X148893450Y-131035551D01*
X148890515Y-131038754D01*
X148581406Y-131347864D01*
X148546192Y-131362450D01*
X143272408Y-131362450D01*
X143237194Y-131347864D01*
X143222608Y-131312650D01*
X143237194Y-131277436D01*
X144178494Y-130336136D01*
X144213708Y-130321550D01*
X153881977Y-130321550D01*
X153886317Y-130321739D01*
X153923531Y-130324995D01*
X153923533Y-130324995D01*
X153927867Y-130325374D01*
X153968147Y-130314581D01*
X153972382Y-130313643D01*
X154013451Y-130306401D01*
X154020569Y-130302292D01*
X154032579Y-130297317D01*
X154036307Y-130296318D01*
X154040516Y-130295190D01*
X154044085Y-130292691D01*
X154074675Y-130271272D01*
X154078338Y-130268938D01*
X154114449Y-130248089D01*
X154141256Y-130216142D01*
X154144190Y-130212940D01*
X155798323Y-128558807D01*
X155834449Y-128544229D01*
X155857206Y-128544646D01*
X155860754Y-128544711D01*
X155869565Y-128542309D01*
X155875329Y-128540737D01*
X155987244Y-128510226D01*
X156098971Y-128441626D01*
X156186953Y-128344425D01*
X156244117Y-128226437D01*
X156265869Y-128097148D01*
X156266007Y-128085850D01*
X156247421Y-127956068D01*
X156193156Y-127836719D01*
X156107575Y-127737397D01*
X156104600Y-127735469D01*
X156104597Y-127735466D01*
X156036401Y-127691264D01*
X155997558Y-127666087D01*
X155871948Y-127628522D01*
X155868401Y-127628500D01*
X155868399Y-127628500D01*
X155808696Y-127628136D01*
X155740844Y-127627721D01*
X155614785Y-127663749D01*
X155503905Y-127733709D01*
X155417117Y-127831978D01*
X155387764Y-127894497D01*
X155362906Y-127947442D01*
X155362905Y-127947445D01*
X155361398Y-127950655D01*
X155355839Y-127986359D01*
X155343666Y-128064544D01*
X155329673Y-128092097D01*
X153776206Y-129645564D01*
X153740992Y-129660150D01*
X144072723Y-129660150D01*
X144068383Y-129659961D01*
X144031169Y-129656705D01*
X144031167Y-129656705D01*
X144026833Y-129656326D01*
X143986553Y-129667119D01*
X143982318Y-129668057D01*
X143941249Y-129675299D01*
X143937474Y-129677478D01*
X143937475Y-129677478D01*
X143934132Y-129679408D01*
X143922120Y-129684383D01*
X143914184Y-129686510D01*
X143910615Y-129689009D01*
X143880025Y-129710428D01*
X143876366Y-129712759D01*
X143840251Y-129733611D01*
X143837453Y-129736946D01*
X143813445Y-129765557D01*
X143810510Y-129768760D01*
X142231406Y-131347864D01*
X142196192Y-131362450D01*
X141558184Y-131362450D01*
X139077700Y-133842934D01*
X139077700Y-134797126D01*
X139063114Y-134832340D01*
X139054475Y-134839242D01*
X138993905Y-134877459D01*
X138991556Y-134880119D01*
X138913424Y-134968587D01*
X138907117Y-134975728D01*
X138878721Y-135036209D01*
X138852906Y-135091192D01*
X138852905Y-135091195D01*
X138851398Y-135094405D01*
X138831228Y-135223951D01*
X138848227Y-135353950D01*
X138901030Y-135473954D01*
X138985391Y-135574313D01*
X138988346Y-135576280D01*
X139055495Y-135620979D01*
X139076726Y-135652634D01*
X139077700Y-135662434D01*
X139077700Y-147728766D01*
X140575290Y-149226356D01*
X140589876Y-149261570D01*
X140575290Y-149296784D01*
X140540076Y-149311370D01*
X140512989Y-149303359D01*
X140448517Y-149261570D01*
X140440058Y-149256087D01*
X140314448Y-149218522D01*
X140310901Y-149218500D01*
X140310899Y-149218500D01*
X140251196Y-149218136D01*
X140183344Y-149217721D01*
X140057285Y-149253749D01*
X139946405Y-149323709D01*
X139859617Y-149421978D01*
X139832760Y-149479182D01*
X139805406Y-149537442D01*
X139805405Y-149537445D01*
X139803898Y-149540655D01*
X139783728Y-149670201D01*
X139800727Y-149800200D01*
X139853530Y-149920204D01*
X139937891Y-150020563D01*
X140047029Y-150093212D01*
X140172170Y-150132309D01*
X140175714Y-150132374D01*
X140299707Y-150134646D01*
X140303254Y-150134711D01*
X140312065Y-150132309D01*
X140323736Y-150129127D01*
X140429744Y-150100226D01*
X140541471Y-150031626D01*
X140623238Y-149941291D01*
X140627070Y-149937058D01*
X140627071Y-149937057D01*
X140629453Y-149934425D01*
X140686617Y-149816437D01*
X140708369Y-149687148D01*
X140708507Y-149675850D01*
X140700446Y-149619558D01*
X140690424Y-149549580D01*
X140689921Y-149546068D01*
X140665401Y-149492140D01*
X140637126Y-149429951D01*
X140637123Y-149429946D01*
X140635656Y-149426719D01*
X140633339Y-149424030D01*
X140632608Y-149422887D01*
X140625925Y-149385362D01*
X140647733Y-149354102D01*
X140685258Y-149347419D01*
X140709777Y-149360843D01*
X141558184Y-150209250D01*
X144657618Y-150209250D01*
X144692832Y-150223836D01*
X144707418Y-150259050D01*
X144694945Y-150292016D01*
X144622117Y-150374478D01*
X144592764Y-150436997D01*
X144567906Y-150489942D01*
X144567905Y-150489945D01*
X144566398Y-150493155D01*
X144546228Y-150622701D01*
X144563227Y-150752700D01*
X144616030Y-150872704D01*
X144700391Y-150973063D01*
X144809529Y-151045712D01*
X144934670Y-151084809D01*
X144938214Y-151084874D01*
X145062207Y-151087146D01*
X145065754Y-151087211D01*
X145074565Y-151084809D01*
X145080329Y-151083237D01*
X145192244Y-151052726D01*
X145303971Y-150984126D01*
X145391953Y-150886925D01*
X145449117Y-150768937D01*
X145470869Y-150639648D01*
X145471007Y-150628350D01*
X145452421Y-150498568D01*
X145398156Y-150379219D01*
X145322622Y-150291557D01*
X145310686Y-150255359D01*
X145327842Y-150221323D01*
X145360349Y-150209250D01*
X149094016Y-150209250D01*
X151057686Y-148245580D01*
X151092900Y-148230994D01*
X151128114Y-148245580D01*
X151142700Y-148280794D01*
X151142700Y-150195876D01*
X151128114Y-150231090D01*
X151119475Y-150237992D01*
X151058905Y-150276209D01*
X150972117Y-150374478D01*
X150942764Y-150436997D01*
X150917906Y-150489942D01*
X150917905Y-150489945D01*
X150916398Y-150493155D01*
X150896228Y-150622701D01*
X150913227Y-150752700D01*
X150966030Y-150872704D01*
X151050391Y-150973063D01*
X151053346Y-150975030D01*
X151120495Y-151019729D01*
X151141726Y-151051384D01*
X151142700Y-151061184D01*
X151142700Y-155442650D01*
X151128114Y-155477864D01*
X151092900Y-155492450D01*
X137957707Y-155492450D01*
X137922493Y-155477864D01*
X137907907Y-155442650D01*
X137908333Y-155436150D01*
X137913871Y-155394086D01*
X137914297Y-155390850D01*
X137896384Y-155254790D01*
X137843867Y-155128002D01*
X137760324Y-155019126D01*
X137651449Y-154935583D01*
X137524660Y-154883066D01*
X137388600Y-154865153D01*
X137252540Y-154883066D01*
X137125752Y-154935583D01*
X137016876Y-155019126D01*
X136933333Y-155128002D01*
X136880816Y-155254790D01*
X136862903Y-155390850D01*
X136863329Y-155394086D01*
X136868867Y-155436150D01*
X136859002Y-155472966D01*
X136825993Y-155492024D01*
X136819493Y-155492450D01*
X133239644Y-155492450D01*
X133204430Y-155477864D01*
X132164916Y-154438350D01*
X138450403Y-154438350D01*
X138468316Y-154574410D01*
X138520833Y-154701198D01*
X138604376Y-154810074D01*
X138713251Y-154893617D01*
X138840040Y-154946134D01*
X138976100Y-154964047D01*
X139112160Y-154946134D01*
X139238949Y-154893617D01*
X139347824Y-154810074D01*
X139431367Y-154701198D01*
X139483884Y-154574410D01*
X139501797Y-154438350D01*
X139483884Y-154302290D01*
X139431367Y-154175502D01*
X139347824Y-154066626D01*
X139238949Y-153983083D01*
X139112160Y-153930566D01*
X138976100Y-153912653D01*
X138840040Y-153930566D01*
X138713252Y-153983083D01*
X138604376Y-154066626D01*
X138520833Y-154175502D01*
X138468316Y-154302290D01*
X138450403Y-154438350D01*
X132164916Y-154438350D01*
X130237906Y-152511340D01*
X130223823Y-152483186D01*
X130212924Y-152407080D01*
X130212421Y-152403568D01*
X130158156Y-152284219D01*
X130072575Y-152184897D01*
X130069600Y-152182969D01*
X130069597Y-152182966D01*
X130001401Y-152138764D01*
X129962558Y-152113587D01*
X129836948Y-152076022D01*
X129833402Y-152076000D01*
X129833400Y-152076000D01*
X129827625Y-152075965D01*
X129822827Y-152075936D01*
X129787917Y-152061351D01*
X129301767Y-151575201D01*
X130258728Y-151575201D01*
X130275727Y-151705200D01*
X130328530Y-151825204D01*
X130412891Y-151925563D01*
X130522029Y-151998212D01*
X130647170Y-152037309D01*
X130650714Y-152037374D01*
X130774707Y-152039646D01*
X130778254Y-152039711D01*
X130787065Y-152037309D01*
X130792829Y-152035737D01*
X130904744Y-152005226D01*
X131016471Y-151936626D01*
X131104453Y-151839425D01*
X131161617Y-151721437D01*
X131183369Y-151592148D01*
X131183507Y-151580850D01*
X131164921Y-151451068D01*
X131110656Y-151331719D01*
X131025075Y-151232397D01*
X131022100Y-151230469D01*
X131022097Y-151230466D01*
X130953901Y-151186264D01*
X130915058Y-151161087D01*
X130789448Y-151123522D01*
X130785901Y-151123500D01*
X130785899Y-151123500D01*
X130726196Y-151123136D01*
X130658344Y-151122721D01*
X130532285Y-151158749D01*
X130421405Y-151228709D01*
X130334617Y-151326978D01*
X130305264Y-151389497D01*
X130280406Y-151442442D01*
X130280405Y-151442445D01*
X130278898Y-151445655D01*
X130258728Y-151575201D01*
X129301767Y-151575201D01*
X128349267Y-150622701D01*
X135021228Y-150622701D01*
X135038227Y-150752700D01*
X135091030Y-150872704D01*
X135175391Y-150973063D01*
X135284529Y-151045712D01*
X135409670Y-151084809D01*
X135413214Y-151084874D01*
X135537207Y-151087146D01*
X135540754Y-151087211D01*
X135549565Y-151084809D01*
X135555329Y-151083237D01*
X135667244Y-151052726D01*
X135778971Y-150984126D01*
X135866953Y-150886925D01*
X135924117Y-150768937D01*
X135945869Y-150639648D01*
X135946007Y-150628350D01*
X135927421Y-150498568D01*
X135873156Y-150379219D01*
X135787575Y-150279897D01*
X135784600Y-150277969D01*
X135784597Y-150277966D01*
X135697207Y-150221323D01*
X135677558Y-150208587D01*
X135551948Y-150171022D01*
X135548401Y-150171000D01*
X135548399Y-150171000D01*
X135488697Y-150170636D01*
X135420844Y-150170221D01*
X135294785Y-150206249D01*
X135183905Y-150276209D01*
X135097117Y-150374478D01*
X135067764Y-150436997D01*
X135042906Y-150489942D01*
X135042905Y-150489945D01*
X135041398Y-150493155D01*
X135021228Y-150622701D01*
X128349267Y-150622701D01*
X127991662Y-150265096D01*
X127977076Y-150229882D01*
X127991662Y-150194668D01*
X128026876Y-150180082D01*
X128039768Y-150181780D01*
X128042023Y-150182384D01*
X128045040Y-150183634D01*
X128048274Y-150184060D01*
X128048275Y-150184060D01*
X128177864Y-150201121D01*
X128181100Y-150201547D01*
X128317160Y-150183634D01*
X128325736Y-150180082D01*
X128349542Y-150170221D01*
X128443949Y-150131117D01*
X128552824Y-150047574D01*
X128636367Y-149938698D01*
X128688884Y-149811910D01*
X128706797Y-149675850D01*
X128688884Y-149539790D01*
X128636367Y-149413002D01*
X128590097Y-149352701D01*
X129306228Y-149352701D01*
X129323227Y-149482700D01*
X129376030Y-149602704D01*
X129460391Y-149703063D01*
X129569529Y-149775712D01*
X129694670Y-149814809D01*
X129698214Y-149814874D01*
X129822207Y-149817146D01*
X129825754Y-149817211D01*
X129834565Y-149814809D01*
X129876240Y-149803447D01*
X129952244Y-149782726D01*
X130063971Y-149714126D01*
X130103730Y-149670201D01*
X131846228Y-149670201D01*
X131863227Y-149800200D01*
X131916030Y-149920204D01*
X132000391Y-150020563D01*
X132109529Y-150093212D01*
X132234670Y-150132309D01*
X132238214Y-150132374D01*
X132362207Y-150134646D01*
X132365754Y-150134711D01*
X132374565Y-150132309D01*
X132386236Y-150129127D01*
X132492244Y-150100226D01*
X132603971Y-150031626D01*
X132685738Y-149941291D01*
X132689570Y-149937058D01*
X132689571Y-149937057D01*
X132691953Y-149934425D01*
X132749117Y-149816437D01*
X132770869Y-149687148D01*
X132771007Y-149675850D01*
X132770198Y-149670201D01*
X138513728Y-149670201D01*
X138530727Y-149800200D01*
X138583530Y-149920204D01*
X138667891Y-150020563D01*
X138777029Y-150093212D01*
X138902170Y-150132309D01*
X138905714Y-150132374D01*
X139029707Y-150134646D01*
X139033254Y-150134711D01*
X139042065Y-150132309D01*
X139053736Y-150129127D01*
X139159744Y-150100226D01*
X139271471Y-150031626D01*
X139353238Y-149941291D01*
X139357070Y-149937058D01*
X139357071Y-149937057D01*
X139359453Y-149934425D01*
X139416617Y-149816437D01*
X139438369Y-149687148D01*
X139438507Y-149675850D01*
X139430446Y-149619558D01*
X139420424Y-149549580D01*
X139419921Y-149546068D01*
X139365656Y-149426719D01*
X139280075Y-149327397D01*
X139277100Y-149325469D01*
X139277097Y-149325466D01*
X139178517Y-149261570D01*
X139170058Y-149256087D01*
X139044448Y-149218522D01*
X139040901Y-149218500D01*
X139040899Y-149218500D01*
X138981196Y-149218136D01*
X138913344Y-149217721D01*
X138787285Y-149253749D01*
X138676405Y-149323709D01*
X138589617Y-149421978D01*
X138562760Y-149479182D01*
X138535406Y-149537442D01*
X138535405Y-149537445D01*
X138533898Y-149540655D01*
X138513728Y-149670201D01*
X132770198Y-149670201D01*
X132762946Y-149619558D01*
X132752924Y-149549580D01*
X132752421Y-149546068D01*
X132698156Y-149426719D01*
X132612575Y-149327397D01*
X132609600Y-149325469D01*
X132609597Y-149325466D01*
X132511017Y-149261570D01*
X132502558Y-149256087D01*
X132376948Y-149218522D01*
X132373401Y-149218500D01*
X132373399Y-149218500D01*
X132313696Y-149218136D01*
X132245844Y-149217721D01*
X132119785Y-149253749D01*
X132008905Y-149323709D01*
X131922117Y-149421978D01*
X131895260Y-149479182D01*
X131867906Y-149537442D01*
X131867905Y-149537445D01*
X131866398Y-149540655D01*
X131846228Y-149670201D01*
X130103730Y-149670201D01*
X130151953Y-149616925D01*
X130209117Y-149498937D01*
X130230869Y-149369648D01*
X130231007Y-149358350D01*
X130216217Y-149255071D01*
X130212924Y-149232080D01*
X130212421Y-149228568D01*
X130158156Y-149109219D01*
X130072575Y-149009897D01*
X130069600Y-149007969D01*
X130069597Y-149007966D01*
X130001401Y-148963764D01*
X129962558Y-148938587D01*
X129836948Y-148901022D01*
X129833401Y-148901000D01*
X129833399Y-148901000D01*
X129773696Y-148900636D01*
X129705844Y-148900221D01*
X129579785Y-148936249D01*
X129468905Y-149006209D01*
X129382117Y-149104478D01*
X129364675Y-149141629D01*
X129327906Y-149219942D01*
X129327905Y-149219945D01*
X129326398Y-149223155D01*
X129306228Y-149352701D01*
X128590097Y-149352701D01*
X128569199Y-149325466D01*
X128554813Y-149306718D01*
X128552824Y-149304126D01*
X128443949Y-149220583D01*
X128317160Y-149168066D01*
X128181100Y-149150153D01*
X128045040Y-149168066D01*
X127918252Y-149220583D01*
X127809376Y-149304126D01*
X127807387Y-149306718D01*
X127793001Y-149325466D01*
X127725833Y-149413002D01*
X127673316Y-149539790D01*
X127655403Y-149675850D01*
X127673316Y-149811910D01*
X127674564Y-149814924D01*
X127675170Y-149817184D01*
X127670195Y-149854973D01*
X127639956Y-149878176D01*
X127602167Y-149873201D01*
X127591853Y-149865287D01*
X126868195Y-149141629D01*
X126853609Y-149106415D01*
X126854035Y-149099915D01*
X126861385Y-149044086D01*
X126861811Y-149040850D01*
X126841853Y-148889257D01*
X126834411Y-148871289D01*
X126817402Y-148830226D01*
X126783341Y-148747995D01*
X126690260Y-148626690D01*
X126585674Y-148546437D01*
X126571546Y-148535596D01*
X126571544Y-148535595D01*
X126568956Y-148533609D01*
X126427693Y-148475097D01*
X126276100Y-148455139D01*
X126272864Y-148455565D01*
X126217035Y-148462915D01*
X126180219Y-148453050D01*
X126175321Y-148448755D01*
X124856767Y-147130201D01*
X136608728Y-147130201D01*
X136625727Y-147260200D01*
X136678530Y-147380204D01*
X136762891Y-147480563D01*
X136872029Y-147553212D01*
X136997170Y-147592309D01*
X137000714Y-147592374D01*
X137124707Y-147594646D01*
X137128254Y-147594711D01*
X137137065Y-147592309D01*
X137142829Y-147590737D01*
X137254744Y-147560226D01*
X137366471Y-147491626D01*
X137454453Y-147394425D01*
X137511617Y-147276437D01*
X137533369Y-147147148D01*
X137533507Y-147135850D01*
X137525446Y-147079558D01*
X137515424Y-147009580D01*
X137514921Y-147006068D01*
X137460656Y-146886719D01*
X137375075Y-146787397D01*
X137372100Y-146785469D01*
X137372097Y-146785466D01*
X137273702Y-146721690D01*
X137265058Y-146716087D01*
X137139448Y-146678522D01*
X137135901Y-146678500D01*
X137135899Y-146678500D01*
X137076196Y-146678136D01*
X137008344Y-146677721D01*
X136882285Y-146713749D01*
X136771405Y-146783709D01*
X136769056Y-146786369D01*
X136716778Y-146845563D01*
X136684617Y-146881978D01*
X136667605Y-146918212D01*
X136630406Y-146997442D01*
X136630405Y-146997445D01*
X136628898Y-147000655D01*
X136608728Y-147130201D01*
X124856767Y-147130201D01*
X121789016Y-144062450D01*
X112191977Y-144062450D01*
X112156640Y-144047741D01*
X112133813Y-144024754D01*
X112131857Y-144022784D01*
X112129516Y-144021298D01*
X112129513Y-144021296D01*
X111995796Y-143936437D01*
X111993445Y-143934945D01*
X111990822Y-143934011D01*
X111990818Y-143934009D01*
X111898407Y-143901103D01*
X111839012Y-143879954D01*
X111676233Y-143860544D01*
X111673464Y-143860835D01*
X111673462Y-143860835D01*
X111515967Y-143877388D01*
X111515965Y-143877388D01*
X111513200Y-143877679D01*
X111510570Y-143878574D01*
X111510567Y-143878575D01*
X111360651Y-143929611D01*
X111360649Y-143929612D01*
X111358014Y-143930509D01*
X111355644Y-143931967D01*
X111355642Y-143931968D01*
X111350803Y-143934945D01*
X111218389Y-144016407D01*
X111186267Y-144047864D01*
X111185893Y-144048230D01*
X111151049Y-144062450D01*
X104126400Y-144062450D01*
X104091186Y-144047864D01*
X104076600Y-144012650D01*
X104076600Y-143320201D01*
X125496228Y-143320201D01*
X125513227Y-143450200D01*
X125566030Y-143570204D01*
X125650391Y-143670563D01*
X125759529Y-143743212D01*
X125884670Y-143782309D01*
X125888214Y-143782374D01*
X126012207Y-143784646D01*
X126015754Y-143784711D01*
X126024565Y-143782309D01*
X126030329Y-143780737D01*
X126142244Y-143750226D01*
X126253971Y-143681626D01*
X126316634Y-143612397D01*
X126339570Y-143587058D01*
X126339571Y-143587057D01*
X126341953Y-143584425D01*
X126399117Y-143466437D01*
X126420869Y-143337148D01*
X126421007Y-143325850D01*
X126402421Y-143196068D01*
X126348156Y-143076719D01*
X126262575Y-142977397D01*
X126259600Y-142975469D01*
X126259597Y-142975466D01*
X126191401Y-142931264D01*
X126152558Y-142906087D01*
X126026948Y-142868522D01*
X126023401Y-142868500D01*
X126023399Y-142868500D01*
X125963696Y-142868136D01*
X125895844Y-142867721D01*
X125769785Y-142903749D01*
X125658905Y-142973709D01*
X125656556Y-142976369D01*
X125604278Y-143035563D01*
X125572117Y-143071978D01*
X125542764Y-143134497D01*
X125517906Y-143187442D01*
X125517905Y-143187445D01*
X125516398Y-143190655D01*
X125496228Y-143320201D01*
X104076600Y-143320201D01*
X104076600Y-142685201D01*
X112478728Y-142685201D01*
X112495727Y-142815200D01*
X112548530Y-142935204D01*
X112632891Y-143035563D01*
X112742029Y-143108212D01*
X112867170Y-143147309D01*
X112870714Y-143147374D01*
X112994707Y-143149646D01*
X112998254Y-143149711D01*
X113007065Y-143147309D01*
X113012829Y-143145737D01*
X113124744Y-143115226D01*
X113236471Y-143046626D01*
X113299134Y-142977397D01*
X113322070Y-142952058D01*
X113322071Y-142952057D01*
X113324453Y-142949425D01*
X113381617Y-142831437D01*
X113403369Y-142702148D01*
X113403507Y-142690850D01*
X113384921Y-142561068D01*
X113330656Y-142441719D01*
X113245075Y-142342397D01*
X113242100Y-142340469D01*
X113242097Y-142340466D01*
X113173901Y-142296264D01*
X113135058Y-142271087D01*
X113009448Y-142233522D01*
X113005901Y-142233500D01*
X113005899Y-142233500D01*
X112946196Y-142233136D01*
X112878344Y-142232721D01*
X112752285Y-142268749D01*
X112641405Y-142338709D01*
X112639056Y-142341369D01*
X112586778Y-142400563D01*
X112554617Y-142436978D01*
X112537605Y-142473212D01*
X112500406Y-142552442D01*
X112500405Y-142552445D01*
X112498898Y-142555655D01*
X112478728Y-142685201D01*
X104076600Y-142685201D01*
X104076600Y-140779197D01*
X105955803Y-140779197D01*
X105956132Y-140782177D01*
X105956132Y-140782180D01*
X105959542Y-140813063D01*
X105972554Y-140930929D01*
X106025015Y-141074285D01*
X106110157Y-141200989D01*
X106223064Y-141303727D01*
X106225700Y-141305158D01*
X106225704Y-141305161D01*
X106354581Y-141375135D01*
X106354583Y-141375136D01*
X106357219Y-141376567D01*
X106408030Y-141389897D01*
X106501974Y-141414543D01*
X106501977Y-141414543D01*
X106504876Y-141415304D01*
X106577085Y-141416438D01*
X106654509Y-141417655D01*
X106654510Y-141417655D01*
X106657510Y-141417702D01*
X106660435Y-141417032D01*
X106660436Y-141417032D01*
X106700235Y-141407917D01*
X106806311Y-141383622D01*
X106877726Y-141347704D01*
X106940002Y-141316383D01*
X106940006Y-141316381D01*
X106942687Y-141315032D01*
X106944971Y-141313082D01*
X106944973Y-141313080D01*
X107056484Y-141217840D01*
X107058766Y-141215891D01*
X107147846Y-141091924D01*
X107204784Y-140950286D01*
X107226293Y-140799155D01*
X107226432Y-140785850D01*
X107225748Y-140780201D01*
X114383728Y-140780201D01*
X114400727Y-140910200D01*
X114453530Y-141030204D01*
X114537891Y-141130563D01*
X114647029Y-141203212D01*
X114772170Y-141242309D01*
X114775714Y-141242374D01*
X114899707Y-141244646D01*
X114903254Y-141244711D01*
X114912065Y-141242309D01*
X114917829Y-141240737D01*
X115029744Y-141210226D01*
X115141471Y-141141626D01*
X115229453Y-141044425D01*
X115286617Y-140926437D01*
X115308369Y-140797148D01*
X115308507Y-140785850D01*
X115307982Y-140782180D01*
X115290424Y-140659580D01*
X115289921Y-140656068D01*
X115235656Y-140536719D01*
X115150075Y-140437397D01*
X115147100Y-140435469D01*
X115147097Y-140435466D01*
X115043270Y-140368169D01*
X115040058Y-140366087D01*
X114914448Y-140328522D01*
X114910901Y-140328500D01*
X114910899Y-140328500D01*
X114851196Y-140328136D01*
X114783344Y-140327721D01*
X114657285Y-140363749D01*
X114546405Y-140433709D01*
X114544056Y-140436369D01*
X114491778Y-140495563D01*
X114459617Y-140531978D01*
X114442605Y-140568212D01*
X114405406Y-140647442D01*
X114405405Y-140647445D01*
X114403898Y-140650655D01*
X114383728Y-140780201D01*
X107225748Y-140780201D01*
X107208093Y-140634302D01*
X107207032Y-140631494D01*
X107207031Y-140631490D01*
X107155194Y-140494311D01*
X107154133Y-140491503D01*
X107067670Y-140365697D01*
X107064390Y-140362774D01*
X106984322Y-140291437D01*
X106953693Y-140264148D01*
X106818783Y-140192716D01*
X106814902Y-140191741D01*
X106788936Y-140185219D01*
X106670728Y-140155528D01*
X106667724Y-140155512D01*
X106667722Y-140155512D01*
X106596668Y-140155140D01*
X106518077Y-140154728D01*
X106369641Y-140190365D01*
X106233990Y-140260379D01*
X106118956Y-140360730D01*
X106117233Y-140363182D01*
X106117230Y-140363185D01*
X106068997Y-140431815D01*
X106031180Y-140485623D01*
X106030091Y-140488416D01*
X106030090Y-140488418D01*
X106013107Y-140531978D01*
X105975728Y-140627849D01*
X105975336Y-140630823D01*
X105975336Y-140630825D01*
X105972438Y-140652838D01*
X105955803Y-140779197D01*
X104076600Y-140779197D01*
X104076600Y-139510201D01*
X137243728Y-139510201D01*
X137260727Y-139640200D01*
X137313530Y-139760204D01*
X137397891Y-139860563D01*
X137507029Y-139933212D01*
X137632170Y-139972309D01*
X137635714Y-139972374D01*
X137759707Y-139974646D01*
X137763254Y-139974711D01*
X137772065Y-139972309D01*
X137777829Y-139970737D01*
X137889744Y-139940226D01*
X138001471Y-139871626D01*
X138089453Y-139774425D01*
X138146617Y-139656437D01*
X138168369Y-139527148D01*
X138168507Y-139515850D01*
X138149921Y-139386068D01*
X138095656Y-139266719D01*
X138010075Y-139167397D01*
X138007100Y-139165469D01*
X138007097Y-139165466D01*
X137938901Y-139121264D01*
X137900058Y-139096087D01*
X137774448Y-139058522D01*
X137770901Y-139058500D01*
X137770899Y-139058500D01*
X137711196Y-139058136D01*
X137643344Y-139057721D01*
X137517285Y-139093749D01*
X137406405Y-139163709D01*
X137404056Y-139166369D01*
X137351778Y-139225563D01*
X137319617Y-139261978D01*
X137290264Y-139324497D01*
X137265406Y-139377442D01*
X137265405Y-139377445D01*
X137263898Y-139380655D01*
X137243728Y-139510201D01*
X104076600Y-139510201D01*
X104076600Y-135700201D01*
X115336228Y-135700201D01*
X115353227Y-135830200D01*
X115360712Y-135847211D01*
X115390121Y-135914047D01*
X115406030Y-135950204D01*
X115490391Y-136050563D01*
X115599529Y-136123212D01*
X115724670Y-136162309D01*
X115728214Y-136162374D01*
X115852207Y-136164646D01*
X115855754Y-136164711D01*
X115864565Y-136162309D01*
X115870329Y-136160737D01*
X115982244Y-136130226D01*
X116093971Y-136061626D01*
X116181953Y-135964425D01*
X116239117Y-135846437D01*
X116260869Y-135717148D01*
X116261007Y-135705850D01*
X116254790Y-135662434D01*
X116242924Y-135579580D01*
X116242421Y-135576068D01*
X116188156Y-135456719D01*
X116102575Y-135357397D01*
X116099600Y-135355469D01*
X116099597Y-135355466D01*
X116031401Y-135311264D01*
X115992558Y-135286087D01*
X115866948Y-135248522D01*
X115863401Y-135248500D01*
X115863399Y-135248500D01*
X115803696Y-135248136D01*
X115735844Y-135247721D01*
X115609785Y-135283749D01*
X115498905Y-135353709D01*
X115412117Y-135451978D01*
X115383608Y-135512700D01*
X115357906Y-135567442D01*
X115357905Y-135567445D01*
X115356398Y-135570655D01*
X115336228Y-135700201D01*
X104076600Y-135700201D01*
X104076600Y-133160201D01*
X115336228Y-133160201D01*
X115353227Y-133290200D01*
X115406030Y-133410204D01*
X115490391Y-133510563D01*
X115599529Y-133583212D01*
X115724670Y-133622309D01*
X115728214Y-133622374D01*
X115852207Y-133624646D01*
X115855754Y-133624711D01*
X115864565Y-133622309D01*
X115906240Y-133610947D01*
X115982244Y-133590226D01*
X116093971Y-133521626D01*
X116181953Y-133424425D01*
X116239117Y-133306437D01*
X116260869Y-133177148D01*
X116261007Y-133165850D01*
X116260198Y-133160201D01*
X122003728Y-133160201D01*
X122020727Y-133290200D01*
X122073530Y-133410204D01*
X122157891Y-133510563D01*
X122267029Y-133583212D01*
X122392170Y-133622309D01*
X122395714Y-133622374D01*
X122519707Y-133624646D01*
X122523254Y-133624711D01*
X122532065Y-133622309D01*
X122573740Y-133610947D01*
X122649744Y-133590226D01*
X122761471Y-133521626D01*
X122849453Y-133424425D01*
X122906617Y-133306437D01*
X122928369Y-133177148D01*
X122928507Y-133165850D01*
X122913717Y-133062571D01*
X122910424Y-133039580D01*
X122909921Y-133036068D01*
X122855656Y-132916719D01*
X122770075Y-132817397D01*
X122767100Y-132815469D01*
X122767097Y-132815466D01*
X122698901Y-132771264D01*
X122660058Y-132746087D01*
X122534448Y-132708522D01*
X122530901Y-132708500D01*
X122530899Y-132708500D01*
X122471196Y-132708136D01*
X122403344Y-132707721D01*
X122277285Y-132743749D01*
X122166405Y-132813709D01*
X122164056Y-132816369D01*
X122085924Y-132904837D01*
X122079617Y-132911978D01*
X122051221Y-132972459D01*
X122025406Y-133027442D01*
X122025405Y-133027445D01*
X122023898Y-133030655D01*
X122003728Y-133160201D01*
X116260198Y-133160201D01*
X116246217Y-133062571D01*
X116242924Y-133039580D01*
X116242421Y-133036068D01*
X116188156Y-132916719D01*
X116102575Y-132817397D01*
X116099600Y-132815469D01*
X116099597Y-132815466D01*
X116031401Y-132771264D01*
X115992558Y-132746087D01*
X115866948Y-132708522D01*
X115863401Y-132708500D01*
X115863399Y-132708500D01*
X115803696Y-132708136D01*
X115735844Y-132707721D01*
X115609785Y-132743749D01*
X115498905Y-132813709D01*
X115496556Y-132816369D01*
X115418424Y-132904837D01*
X115412117Y-132911978D01*
X115383721Y-132972459D01*
X115357906Y-133027442D01*
X115357905Y-133027445D01*
X115356398Y-133030655D01*
X115336228Y-133160201D01*
X104076600Y-133160201D01*
X104076600Y-131255201D01*
X120733728Y-131255201D01*
X120750727Y-131385200D01*
X120759276Y-131404629D01*
X120793734Y-131482940D01*
X120803530Y-131505204D01*
X120835897Y-131543709D01*
X120870255Y-131584582D01*
X120887891Y-131605563D01*
X120997029Y-131678212D01*
X121122170Y-131717309D01*
X121125714Y-131717374D01*
X121249707Y-131719646D01*
X121253254Y-131719711D01*
X121262065Y-131717309D01*
X121267829Y-131715737D01*
X121379744Y-131685226D01*
X121491471Y-131616626D01*
X121579453Y-131519425D01*
X121636617Y-131401437D01*
X121658369Y-131272148D01*
X121658507Y-131260850D01*
X121639921Y-131131068D01*
X121585656Y-131011719D01*
X121500075Y-130912397D01*
X121497100Y-130910469D01*
X121497097Y-130910466D01*
X121428901Y-130866264D01*
X121390058Y-130841087D01*
X121264448Y-130803522D01*
X121260901Y-130803500D01*
X121260899Y-130803500D01*
X121201196Y-130803136D01*
X121133344Y-130802721D01*
X121007285Y-130838749D01*
X120896405Y-130908709D01*
X120894056Y-130911369D01*
X120812591Y-131003611D01*
X120809617Y-131006978D01*
X120802541Y-131022050D01*
X120755406Y-131122442D01*
X120755405Y-131122445D01*
X120753898Y-131125655D01*
X120733728Y-131255201D01*
X104076600Y-131255201D01*
X104076600Y-128080201D01*
X115336228Y-128080201D01*
X115353227Y-128210200D01*
X115406030Y-128330204D01*
X115490391Y-128430563D01*
X115599529Y-128503212D01*
X115724670Y-128542309D01*
X115728214Y-128542374D01*
X115852207Y-128544646D01*
X115855754Y-128544711D01*
X115864565Y-128542309D01*
X115870329Y-128540737D01*
X115982244Y-128510226D01*
X116093971Y-128441626D01*
X116181953Y-128344425D01*
X116239117Y-128226437D01*
X116260869Y-128097148D01*
X116261007Y-128085850D01*
X116260198Y-128080201D01*
X141688728Y-128080201D01*
X141705727Y-128210200D01*
X141758530Y-128330204D01*
X141842891Y-128430563D01*
X141952029Y-128503212D01*
X142077170Y-128542309D01*
X142080714Y-128542374D01*
X142204707Y-128544646D01*
X142208254Y-128544711D01*
X142217065Y-128542309D01*
X142222829Y-128540737D01*
X142334744Y-128510226D01*
X142446471Y-128441626D01*
X142534453Y-128344425D01*
X142591617Y-128226437D01*
X142613369Y-128097148D01*
X142613507Y-128085850D01*
X142612698Y-128080201D01*
X144863728Y-128080201D01*
X144880727Y-128210200D01*
X144933530Y-128330204D01*
X145017891Y-128430563D01*
X145127029Y-128503212D01*
X145252170Y-128542309D01*
X145255714Y-128542374D01*
X145379707Y-128544646D01*
X145383254Y-128544711D01*
X145392065Y-128542309D01*
X145397829Y-128540737D01*
X145509744Y-128510226D01*
X145621471Y-128441626D01*
X145709453Y-128344425D01*
X145766617Y-128226437D01*
X145788369Y-128097148D01*
X145788507Y-128085850D01*
X145787698Y-128080201D01*
X148038728Y-128080201D01*
X148055727Y-128210200D01*
X148108530Y-128330204D01*
X148192891Y-128430563D01*
X148302029Y-128503212D01*
X148427170Y-128542309D01*
X148430714Y-128542374D01*
X148554707Y-128544646D01*
X148558254Y-128544711D01*
X148567065Y-128542309D01*
X148572829Y-128540737D01*
X148684744Y-128510226D01*
X148796471Y-128441626D01*
X148884453Y-128344425D01*
X148941617Y-128226437D01*
X148963369Y-128097148D01*
X148963507Y-128085850D01*
X148962698Y-128080201D01*
X151213728Y-128080201D01*
X151230727Y-128210200D01*
X151283530Y-128330204D01*
X151367891Y-128430563D01*
X151477029Y-128503212D01*
X151602170Y-128542309D01*
X151605714Y-128542374D01*
X151729707Y-128544646D01*
X151733254Y-128544711D01*
X151742065Y-128542309D01*
X151747829Y-128540737D01*
X151859744Y-128510226D01*
X151971471Y-128441626D01*
X152059453Y-128344425D01*
X152116617Y-128226437D01*
X152138369Y-128097148D01*
X152138507Y-128085850D01*
X152119921Y-127956068D01*
X152065656Y-127836719D01*
X151980075Y-127737397D01*
X151977100Y-127735469D01*
X151977097Y-127735466D01*
X151908901Y-127691264D01*
X151870058Y-127666087D01*
X151744448Y-127628522D01*
X151740901Y-127628500D01*
X151740899Y-127628500D01*
X151681196Y-127628136D01*
X151613344Y-127627721D01*
X151487285Y-127663749D01*
X151376405Y-127733709D01*
X151289617Y-127831978D01*
X151260264Y-127894497D01*
X151235406Y-127947442D01*
X151235405Y-127947445D01*
X151233898Y-127950655D01*
X151213728Y-128080201D01*
X148962698Y-128080201D01*
X148944921Y-127956068D01*
X148890656Y-127836719D01*
X148805075Y-127737397D01*
X148802100Y-127735469D01*
X148802097Y-127735466D01*
X148733901Y-127691264D01*
X148695058Y-127666087D01*
X148569448Y-127628522D01*
X148565901Y-127628500D01*
X148565899Y-127628500D01*
X148506196Y-127628136D01*
X148438344Y-127627721D01*
X148312285Y-127663749D01*
X148201405Y-127733709D01*
X148114617Y-127831978D01*
X148085264Y-127894497D01*
X148060406Y-127947442D01*
X148060405Y-127947445D01*
X148058898Y-127950655D01*
X148038728Y-128080201D01*
X145787698Y-128080201D01*
X145769921Y-127956068D01*
X145715656Y-127836719D01*
X145630075Y-127737397D01*
X145627100Y-127735469D01*
X145627097Y-127735466D01*
X145558901Y-127691264D01*
X145520058Y-127666087D01*
X145394448Y-127628522D01*
X145390901Y-127628500D01*
X145390899Y-127628500D01*
X145331196Y-127628136D01*
X145263344Y-127627721D01*
X145137285Y-127663749D01*
X145026405Y-127733709D01*
X144939617Y-127831978D01*
X144910264Y-127894497D01*
X144885406Y-127947442D01*
X144885405Y-127947445D01*
X144883898Y-127950655D01*
X144863728Y-128080201D01*
X142612698Y-128080201D01*
X142594921Y-127956068D01*
X142540656Y-127836719D01*
X142455075Y-127737397D01*
X142452100Y-127735469D01*
X142452097Y-127735466D01*
X142383901Y-127691264D01*
X142345058Y-127666087D01*
X142219448Y-127628522D01*
X142215901Y-127628500D01*
X142215899Y-127628500D01*
X142156196Y-127628136D01*
X142088344Y-127627721D01*
X141962285Y-127663749D01*
X141851405Y-127733709D01*
X141764617Y-127831978D01*
X141735264Y-127894497D01*
X141710406Y-127947442D01*
X141710405Y-127947445D01*
X141708898Y-127950655D01*
X141688728Y-128080201D01*
X116260198Y-128080201D01*
X116242421Y-127956068D01*
X116188156Y-127836719D01*
X116102575Y-127737397D01*
X116099600Y-127735469D01*
X116099597Y-127735466D01*
X116031401Y-127691264D01*
X115992558Y-127666087D01*
X115866948Y-127628522D01*
X115863401Y-127628500D01*
X115863399Y-127628500D01*
X115803696Y-127628136D01*
X115735844Y-127627721D01*
X115609785Y-127663749D01*
X115498905Y-127733709D01*
X115412117Y-127831978D01*
X115382764Y-127894497D01*
X115357906Y-127947442D01*
X115357905Y-127947445D01*
X115356398Y-127950655D01*
X115336228Y-128080201D01*
X104076600Y-128080201D01*
X104076600Y-126175201D01*
X115336228Y-126175201D01*
X115353227Y-126305200D01*
X115406030Y-126425204D01*
X115490391Y-126525563D01*
X115599529Y-126598212D01*
X115724670Y-126637309D01*
X115728214Y-126637374D01*
X115852207Y-126639646D01*
X115855754Y-126639711D01*
X115864565Y-126637309D01*
X115870329Y-126635737D01*
X115982244Y-126605226D01*
X116093971Y-126536626D01*
X116181953Y-126439425D01*
X116239117Y-126321437D01*
X116260869Y-126192148D01*
X116261007Y-126180850D01*
X116260198Y-126175201D01*
X149943728Y-126175201D01*
X149960727Y-126305200D01*
X150013530Y-126425204D01*
X150097891Y-126525563D01*
X150207029Y-126598212D01*
X150332170Y-126637309D01*
X150335714Y-126637374D01*
X150459707Y-126639646D01*
X150463254Y-126639711D01*
X150472065Y-126637309D01*
X150477829Y-126635737D01*
X150589744Y-126605226D01*
X150701471Y-126536626D01*
X150789453Y-126439425D01*
X150846617Y-126321437D01*
X150868369Y-126192148D01*
X150868507Y-126180850D01*
X150849921Y-126051068D01*
X150795656Y-125931719D01*
X150710075Y-125832397D01*
X150707100Y-125830469D01*
X150707097Y-125830466D01*
X150638901Y-125786264D01*
X150600058Y-125761087D01*
X150474448Y-125723522D01*
X150470901Y-125723500D01*
X150470899Y-125723500D01*
X150411196Y-125723136D01*
X150343344Y-125722721D01*
X150217285Y-125758749D01*
X150106405Y-125828709D01*
X150019617Y-125926978D01*
X149990264Y-125989497D01*
X149965406Y-126042442D01*
X149965405Y-126042445D01*
X149963898Y-126045655D01*
X149943728Y-126175201D01*
X116260198Y-126175201D01*
X116242421Y-126051068D01*
X116188156Y-125931719D01*
X116102575Y-125832397D01*
X116099600Y-125830469D01*
X116099597Y-125830466D01*
X116031401Y-125786264D01*
X115992558Y-125761087D01*
X115866948Y-125723522D01*
X115863401Y-125723500D01*
X115863399Y-125723500D01*
X115803696Y-125723136D01*
X115735844Y-125722721D01*
X115609785Y-125758749D01*
X115498905Y-125828709D01*
X115412117Y-125926978D01*
X115382764Y-125989497D01*
X115357906Y-126042442D01*
X115357905Y-126042445D01*
X115356398Y-126045655D01*
X115336228Y-126175201D01*
X104076600Y-126175201D01*
X104076600Y-123635201D01*
X122638728Y-123635201D01*
X122655727Y-123765200D01*
X122708530Y-123885204D01*
X122792891Y-123985563D01*
X122902029Y-124058212D01*
X123027170Y-124097309D01*
X123030714Y-124097374D01*
X123154707Y-124099646D01*
X123158254Y-124099711D01*
X123167065Y-124097309D01*
X123172829Y-124095737D01*
X123284744Y-124065226D01*
X123396471Y-123996626D01*
X123484453Y-123899425D01*
X123541617Y-123781437D01*
X123563369Y-123652148D01*
X123563507Y-123640850D01*
X123562698Y-123635201D01*
X145498728Y-123635201D01*
X145515727Y-123765200D01*
X145568530Y-123885204D01*
X145652891Y-123985563D01*
X145762029Y-124058212D01*
X145887170Y-124097309D01*
X145890714Y-124097374D01*
X146014707Y-124099646D01*
X146018254Y-124099711D01*
X146027065Y-124097309D01*
X146032829Y-124095737D01*
X146144744Y-124065226D01*
X146256471Y-123996626D01*
X146344453Y-123899425D01*
X146401617Y-123781437D01*
X146423369Y-123652148D01*
X146423507Y-123640850D01*
X146404921Y-123511068D01*
X146350656Y-123391719D01*
X146291746Y-123323350D01*
X168235389Y-123323350D01*
X168255347Y-123474943D01*
X168313859Y-123616205D01*
X168406940Y-123737510D01*
X168459629Y-123777940D01*
X168525654Y-123828604D01*
X168525656Y-123828605D01*
X168528244Y-123830591D01*
X168669507Y-123889103D01*
X168821100Y-123909061D01*
X168972693Y-123889103D01*
X169113956Y-123830591D01*
X169116544Y-123828605D01*
X169116546Y-123828604D01*
X169182571Y-123777940D01*
X169235260Y-123737510D01*
X169328341Y-123616205D01*
X169386853Y-123474943D01*
X169406811Y-123323350D01*
X169386853Y-123171757D01*
X169328341Y-123030495D01*
X169235260Y-122909190D01*
X169161573Y-122852647D01*
X169116546Y-122818096D01*
X169116544Y-122818095D01*
X169113956Y-122816109D01*
X168972693Y-122757597D01*
X168821100Y-122737639D01*
X168669507Y-122757597D01*
X168528245Y-122816109D01*
X168406940Y-122909190D01*
X168404952Y-122911781D01*
X168404951Y-122911782D01*
X168388897Y-122932704D01*
X168313859Y-123030495D01*
X168255347Y-123171757D01*
X168235389Y-123323350D01*
X146291746Y-123323350D01*
X146265075Y-123292397D01*
X146262100Y-123290469D01*
X146262097Y-123290466D01*
X146193901Y-123246264D01*
X146155058Y-123221087D01*
X146029448Y-123183522D01*
X146025901Y-123183500D01*
X146025899Y-123183500D01*
X145966196Y-123183136D01*
X145898344Y-123182721D01*
X145772285Y-123218749D01*
X145661405Y-123288709D01*
X145574617Y-123386978D01*
X145545264Y-123449497D01*
X145520406Y-123502442D01*
X145520405Y-123502445D01*
X145518898Y-123505655D01*
X145498728Y-123635201D01*
X123562698Y-123635201D01*
X123544921Y-123511068D01*
X123490656Y-123391719D01*
X123405075Y-123292397D01*
X123402100Y-123290469D01*
X123402097Y-123290466D01*
X123333901Y-123246264D01*
X123295058Y-123221087D01*
X123169448Y-123183522D01*
X123165901Y-123183500D01*
X123165899Y-123183500D01*
X123106196Y-123183136D01*
X123038344Y-123182721D01*
X122912285Y-123218749D01*
X122801405Y-123288709D01*
X122714617Y-123386978D01*
X122685264Y-123449497D01*
X122660406Y-123502442D01*
X122660405Y-123502445D01*
X122658898Y-123505655D01*
X122638728Y-123635201D01*
X104076600Y-123635201D01*
X104076600Y-122682701D01*
X142641228Y-122682701D01*
X142658227Y-122812700D01*
X142666776Y-122832129D01*
X142701824Y-122911781D01*
X142711030Y-122932704D01*
X142795391Y-123033063D01*
X142904529Y-123105712D01*
X143029670Y-123144809D01*
X143033214Y-123144874D01*
X143157207Y-123147146D01*
X143160754Y-123147211D01*
X143169565Y-123144809D01*
X143175329Y-123143237D01*
X143287244Y-123112726D01*
X143398971Y-123044126D01*
X143486953Y-122946925D01*
X143544117Y-122828937D01*
X143565869Y-122699648D01*
X143566007Y-122688350D01*
X143547421Y-122558568D01*
X143493156Y-122439219D01*
X143407575Y-122339897D01*
X143404600Y-122337969D01*
X143404597Y-122337966D01*
X143336401Y-122293764D01*
X143297558Y-122268587D01*
X143171948Y-122231022D01*
X143168401Y-122231000D01*
X143168399Y-122231000D01*
X143108696Y-122230636D01*
X143040844Y-122230221D01*
X142914785Y-122266249D01*
X142803905Y-122336209D01*
X142801556Y-122338869D01*
X142749278Y-122398063D01*
X142717117Y-122434478D01*
X142687764Y-122496997D01*
X142662906Y-122549942D01*
X142662905Y-122549945D01*
X142661398Y-122553155D01*
X142641228Y-122682701D01*
X104076600Y-122682701D01*
X104076600Y-122047701D01*
X141053728Y-122047701D01*
X141070727Y-122177700D01*
X141123530Y-122297704D01*
X141207891Y-122398063D01*
X141317029Y-122470712D01*
X141442170Y-122509809D01*
X141445714Y-122509874D01*
X141569707Y-122512146D01*
X141573254Y-122512211D01*
X141582065Y-122509809D01*
X141587829Y-122508237D01*
X141699744Y-122477726D01*
X141811471Y-122409126D01*
X141874134Y-122339897D01*
X141897070Y-122314558D01*
X141897071Y-122314557D01*
X141899453Y-122311925D01*
X141956617Y-122193937D01*
X141978369Y-122064648D01*
X141978507Y-122053350D01*
X141959921Y-121923568D01*
X141905656Y-121804219D01*
X141820075Y-121704897D01*
X141817100Y-121702969D01*
X141817097Y-121702966D01*
X141748901Y-121658764D01*
X141710058Y-121633587D01*
X141584448Y-121596022D01*
X141580901Y-121596000D01*
X141580899Y-121596000D01*
X141521197Y-121595636D01*
X141453344Y-121595221D01*
X141327285Y-121631249D01*
X141216405Y-121701209D01*
X141129617Y-121799478D01*
X141100264Y-121861997D01*
X141075406Y-121914942D01*
X141075405Y-121914945D01*
X141073898Y-121918155D01*
X141053728Y-122047701D01*
X104076600Y-122047701D01*
X104076600Y-120772603D01*
X106971600Y-120772603D01*
X106971601Y-121429094D01*
X106979085Y-121466438D01*
X107000025Y-121497718D01*
X107464235Y-121961928D01*
X107495931Y-121983039D01*
X107505855Y-121985004D01*
X107530463Y-121989877D01*
X107530465Y-121989877D01*
X107532853Y-121990350D01*
X107859159Y-121990350D01*
X108189344Y-121990349D01*
X108226688Y-121982865D01*
X108253480Y-121964930D01*
X108255938Y-121963284D01*
X108257968Y-121961925D01*
X108722178Y-121497715D01*
X108743289Y-121466019D01*
X108747878Y-121442846D01*
X108750127Y-121431487D01*
X108750127Y-121431485D01*
X108750600Y-121429097D01*
X108750599Y-120772606D01*
X108750598Y-120772603D01*
X109511600Y-120772603D01*
X109511601Y-121429094D01*
X109519085Y-121466438D01*
X109540025Y-121497718D01*
X110004235Y-121961928D01*
X110035931Y-121983039D01*
X110045855Y-121985004D01*
X110070463Y-121989877D01*
X110070465Y-121989877D01*
X110072853Y-121990350D01*
X110399159Y-121990350D01*
X110729344Y-121990349D01*
X110766688Y-121982865D01*
X110793480Y-121964930D01*
X110795938Y-121963284D01*
X110797968Y-121961925D01*
X111262178Y-121497715D01*
X111283289Y-121466019D01*
X111287878Y-121442846D01*
X111290127Y-121431487D01*
X111290127Y-121431485D01*
X111290600Y-121429097D01*
X111290599Y-120772606D01*
X111290598Y-120772603D01*
X113956600Y-120772603D01*
X113956601Y-121429094D01*
X113964085Y-121466438D01*
X113985025Y-121497718D01*
X114449235Y-121961928D01*
X114480931Y-121983039D01*
X114490855Y-121985004D01*
X114515463Y-121989877D01*
X114515465Y-121989877D01*
X114517853Y-121990350D01*
X114844159Y-121990350D01*
X115174344Y-121990349D01*
X115211688Y-121982865D01*
X115238480Y-121964930D01*
X115240938Y-121963284D01*
X115242968Y-121961925D01*
X115707178Y-121497715D01*
X115728289Y-121466019D01*
X115732878Y-121442846D01*
X115735127Y-121431487D01*
X115735127Y-121431485D01*
X115735600Y-121429097D01*
X115735599Y-120772606D01*
X115735598Y-120772603D01*
X116496600Y-120772603D01*
X116496601Y-121429094D01*
X116504085Y-121466438D01*
X116525025Y-121497718D01*
X116989235Y-121961928D01*
X117020931Y-121983039D01*
X117030855Y-121985004D01*
X117055463Y-121989877D01*
X117055465Y-121989877D01*
X117057853Y-121990350D01*
X117384159Y-121990350D01*
X117714344Y-121990349D01*
X117751688Y-121982865D01*
X117778480Y-121964930D01*
X117780938Y-121963284D01*
X117782968Y-121961925D01*
X118247178Y-121497715D01*
X118268289Y-121466019D01*
X118272878Y-121442846D01*
X118275127Y-121431487D01*
X118275127Y-121431485D01*
X118275600Y-121429097D01*
X118275599Y-121095201D01*
X121686228Y-121095201D01*
X121703227Y-121225200D01*
X121756030Y-121345204D01*
X121758314Y-121347921D01*
X121828582Y-121431514D01*
X121840391Y-121445563D01*
X121949529Y-121518212D01*
X122074670Y-121557309D01*
X122078214Y-121557374D01*
X122202207Y-121559646D01*
X122205754Y-121559711D01*
X122214565Y-121557309D01*
X122220329Y-121555737D01*
X122332244Y-121525226D01*
X122443971Y-121456626D01*
X122531953Y-121359425D01*
X122589117Y-121241437D01*
X122610869Y-121112148D01*
X122611007Y-121100850D01*
X122602946Y-121044558D01*
X122592924Y-120974580D01*
X122592421Y-120971068D01*
X122538156Y-120851719D01*
X122474378Y-120777701D01*
X149626228Y-120777701D01*
X149643227Y-120907700D01*
X149651776Y-120927129D01*
X149685684Y-121004190D01*
X149696030Y-121027704D01*
X149780391Y-121128063D01*
X149889529Y-121200712D01*
X150014670Y-121239809D01*
X150018214Y-121239874D01*
X150142207Y-121242146D01*
X150145754Y-121242211D01*
X150154565Y-121239809D01*
X150196240Y-121228447D01*
X150272244Y-121207726D01*
X150383971Y-121139126D01*
X150471953Y-121041925D01*
X150529117Y-120923937D01*
X150550869Y-120794648D01*
X150551007Y-120783350D01*
X150543538Y-120731192D01*
X150532924Y-120657080D01*
X150532421Y-120653568D01*
X150478156Y-120534219D01*
X150392575Y-120434897D01*
X150389600Y-120432969D01*
X150389597Y-120432966D01*
X150321401Y-120388764D01*
X150282558Y-120363587D01*
X150156948Y-120326022D01*
X150153401Y-120326000D01*
X150153399Y-120326000D01*
X150093696Y-120325636D01*
X150025844Y-120325221D01*
X149899785Y-120361249D01*
X149788905Y-120431209D01*
X149786556Y-120433869D01*
X149734278Y-120493063D01*
X149702117Y-120529478D01*
X149672764Y-120591997D01*
X149647906Y-120644942D01*
X149647905Y-120644945D01*
X149646398Y-120648155D01*
X149626228Y-120777701D01*
X122474378Y-120777701D01*
X122452575Y-120752397D01*
X122449600Y-120750469D01*
X122449597Y-120750466D01*
X122375199Y-120702244D01*
X122342558Y-120681087D01*
X122216948Y-120643522D01*
X122213401Y-120643500D01*
X122213399Y-120643500D01*
X122153696Y-120643136D01*
X122085844Y-120642721D01*
X121959785Y-120678749D01*
X121848905Y-120748709D01*
X121846556Y-120751369D01*
X121774781Y-120832639D01*
X121762117Y-120846978D01*
X121735260Y-120904182D01*
X121707906Y-120962442D01*
X121707905Y-120962445D01*
X121706398Y-120965655D01*
X121686228Y-121095201D01*
X118275599Y-121095201D01*
X118275599Y-120772606D01*
X118268115Y-120735262D01*
X118247175Y-120703982D01*
X117782965Y-120239772D01*
X117751269Y-120218661D01*
X117741345Y-120216696D01*
X117716737Y-120211823D01*
X117716735Y-120211823D01*
X117714347Y-120211350D01*
X117388041Y-120211350D01*
X117057856Y-120211351D01*
X117020512Y-120218835D01*
X116993720Y-120236770D01*
X116991276Y-120238407D01*
X116989232Y-120239775D01*
X116525022Y-120703985D01*
X116503911Y-120735681D01*
X116502960Y-120740484D01*
X116497079Y-120770186D01*
X116496600Y-120772603D01*
X115735598Y-120772603D01*
X115728115Y-120735262D01*
X115707175Y-120703982D01*
X115242965Y-120239772D01*
X115211269Y-120218661D01*
X115201345Y-120216696D01*
X115176737Y-120211823D01*
X115176735Y-120211823D01*
X115174347Y-120211350D01*
X114848041Y-120211350D01*
X114517856Y-120211351D01*
X114480512Y-120218835D01*
X114453720Y-120236770D01*
X114451276Y-120238407D01*
X114449232Y-120239775D01*
X113985022Y-120703985D01*
X113963911Y-120735681D01*
X113962960Y-120740484D01*
X113957079Y-120770186D01*
X113956600Y-120772603D01*
X111290598Y-120772603D01*
X111283115Y-120735262D01*
X111262175Y-120703982D01*
X110797965Y-120239772D01*
X110766269Y-120218661D01*
X110756345Y-120216696D01*
X110731737Y-120211823D01*
X110731735Y-120211823D01*
X110729347Y-120211350D01*
X110403041Y-120211350D01*
X110072856Y-120211351D01*
X110035512Y-120218835D01*
X110008720Y-120236770D01*
X110006276Y-120238407D01*
X110004232Y-120239775D01*
X109540022Y-120703985D01*
X109518911Y-120735681D01*
X109517960Y-120740484D01*
X109512079Y-120770186D01*
X109511600Y-120772603D01*
X108750598Y-120772603D01*
X108743115Y-120735262D01*
X108722175Y-120703982D01*
X108257965Y-120239772D01*
X108226269Y-120218661D01*
X108216345Y-120216696D01*
X108191737Y-120211823D01*
X108191735Y-120211823D01*
X108189347Y-120211350D01*
X107863041Y-120211350D01*
X107532856Y-120211351D01*
X107495512Y-120218835D01*
X107468720Y-120236770D01*
X107466276Y-120238407D01*
X107464232Y-120239775D01*
X107000022Y-120703985D01*
X106978911Y-120735681D01*
X106977960Y-120740484D01*
X106972079Y-120770186D01*
X106971600Y-120772603D01*
X104076600Y-120772603D01*
X104076600Y-120142701D01*
X135656228Y-120142701D01*
X135673227Y-120272700D01*
X135726030Y-120392704D01*
X135810391Y-120493063D01*
X135919529Y-120565712D01*
X136044670Y-120604809D01*
X136048214Y-120604874D01*
X136172207Y-120607146D01*
X136175754Y-120607211D01*
X136184565Y-120604809D01*
X136190329Y-120603237D01*
X136302244Y-120572726D01*
X136413971Y-120504126D01*
X136476634Y-120434897D01*
X136499570Y-120409558D01*
X136499571Y-120409557D01*
X136501953Y-120406925D01*
X136559117Y-120288937D01*
X136580869Y-120159648D01*
X136581007Y-120148350D01*
X136580198Y-120142701D01*
X142641228Y-120142701D01*
X142658227Y-120272700D01*
X142711030Y-120392704D01*
X142795391Y-120493063D01*
X142904529Y-120565712D01*
X143029670Y-120604809D01*
X143033214Y-120604874D01*
X143157207Y-120607146D01*
X143160754Y-120607211D01*
X143169565Y-120604809D01*
X143175329Y-120603237D01*
X143287244Y-120572726D01*
X143398971Y-120504126D01*
X143461634Y-120434897D01*
X143484570Y-120409558D01*
X143484571Y-120409557D01*
X143486953Y-120406925D01*
X143544117Y-120288937D01*
X143565869Y-120159648D01*
X143566007Y-120148350D01*
X143557946Y-120092058D01*
X143547924Y-120022080D01*
X143547421Y-120018568D01*
X143493156Y-119899219D01*
X143429378Y-119825201D01*
X146451228Y-119825201D01*
X146468227Y-119955200D01*
X146521030Y-120075204D01*
X146605391Y-120175563D01*
X146714529Y-120248212D01*
X146839670Y-120287309D01*
X146843214Y-120287374D01*
X146967207Y-120289646D01*
X146970754Y-120289711D01*
X146979565Y-120287309D01*
X147021240Y-120275947D01*
X147097244Y-120255226D01*
X147208971Y-120186626D01*
X147296953Y-120089425D01*
X147354117Y-119971437D01*
X147375869Y-119842148D01*
X147376007Y-119830850D01*
X147361217Y-119727571D01*
X147357924Y-119704580D01*
X147357421Y-119701068D01*
X147303156Y-119581719D01*
X147217575Y-119482397D01*
X147214600Y-119480469D01*
X147214597Y-119480466D01*
X147126389Y-119423293D01*
X147107558Y-119411087D01*
X146981948Y-119373522D01*
X146978401Y-119373500D01*
X146978399Y-119373500D01*
X146918696Y-119373136D01*
X146850844Y-119372721D01*
X146724785Y-119408749D01*
X146613905Y-119478709D01*
X146527117Y-119576978D01*
X146497764Y-119639497D01*
X146472906Y-119692442D01*
X146472905Y-119692445D01*
X146471398Y-119695655D01*
X146451228Y-119825201D01*
X143429378Y-119825201D01*
X143407575Y-119799897D01*
X143404600Y-119797969D01*
X143404597Y-119797966D01*
X143336401Y-119753764D01*
X143297558Y-119728587D01*
X143171948Y-119691022D01*
X143168401Y-119691000D01*
X143168399Y-119691000D01*
X143108696Y-119690636D01*
X143040844Y-119690221D01*
X142914785Y-119726249D01*
X142803905Y-119796209D01*
X142717117Y-119894478D01*
X142690260Y-119951682D01*
X142662906Y-120009942D01*
X142662905Y-120009945D01*
X142661398Y-120013155D01*
X142641228Y-120142701D01*
X136580198Y-120142701D01*
X136572946Y-120092058D01*
X136562924Y-120022080D01*
X136562421Y-120018568D01*
X136508156Y-119899219D01*
X136422575Y-119799897D01*
X136419600Y-119797969D01*
X136419597Y-119797966D01*
X136351401Y-119753764D01*
X136312558Y-119728587D01*
X136186948Y-119691022D01*
X136183401Y-119691000D01*
X136183399Y-119691000D01*
X136123696Y-119690636D01*
X136055844Y-119690221D01*
X135929785Y-119726249D01*
X135818905Y-119796209D01*
X135732117Y-119894478D01*
X135705260Y-119951682D01*
X135677906Y-120009942D01*
X135677905Y-120009945D01*
X135676398Y-120013155D01*
X135656228Y-120142701D01*
X104076600Y-120142701D01*
X104076600Y-118232603D01*
X106971600Y-118232603D01*
X106971601Y-118889094D01*
X106979085Y-118926438D01*
X107000025Y-118957718D01*
X107464235Y-119421928D01*
X107495931Y-119443039D01*
X107500734Y-119443990D01*
X107530463Y-119449877D01*
X107530465Y-119449877D01*
X107532853Y-119450350D01*
X107859159Y-119450350D01*
X108189344Y-119450349D01*
X108226688Y-119442865D01*
X108253480Y-119424930D01*
X108255938Y-119423284D01*
X108257968Y-119421925D01*
X108722178Y-118957715D01*
X108743289Y-118926019D01*
X108750116Y-118891543D01*
X108750127Y-118891487D01*
X108750127Y-118891485D01*
X108750600Y-118889097D01*
X108750599Y-118232606D01*
X108750598Y-118232603D01*
X109511600Y-118232603D01*
X109511601Y-118889094D01*
X109519085Y-118926438D01*
X109540025Y-118957718D01*
X110004235Y-119421928D01*
X110035931Y-119443039D01*
X110040734Y-119443990D01*
X110070463Y-119449877D01*
X110070465Y-119449877D01*
X110072853Y-119450350D01*
X110399159Y-119450350D01*
X110729344Y-119450349D01*
X110766688Y-119442865D01*
X110793480Y-119424930D01*
X110795938Y-119423284D01*
X110797968Y-119421925D01*
X111262178Y-118957715D01*
X111283289Y-118926019D01*
X111290116Y-118891543D01*
X111290127Y-118891487D01*
X111290127Y-118891485D01*
X111290600Y-118889097D01*
X111290599Y-118232606D01*
X111290598Y-118232603D01*
X113956600Y-118232603D01*
X113956601Y-118889094D01*
X113964085Y-118926438D01*
X113985025Y-118957718D01*
X114449235Y-119421928D01*
X114480931Y-119443039D01*
X114485734Y-119443990D01*
X114515463Y-119449877D01*
X114515465Y-119449877D01*
X114517853Y-119450350D01*
X114844159Y-119450350D01*
X115174344Y-119450349D01*
X115211688Y-119442865D01*
X115238480Y-119424930D01*
X115240938Y-119423284D01*
X115242968Y-119421925D01*
X115707178Y-118957715D01*
X115728289Y-118926019D01*
X115735116Y-118891543D01*
X115735127Y-118891487D01*
X115735127Y-118891485D01*
X115735600Y-118889097D01*
X115735599Y-118232606D01*
X115735598Y-118232603D01*
X116496600Y-118232603D01*
X116496601Y-118889094D01*
X116504085Y-118926438D01*
X116525025Y-118957718D01*
X116989235Y-119421928D01*
X117020931Y-119443039D01*
X117025734Y-119443990D01*
X117055463Y-119449877D01*
X117055465Y-119449877D01*
X117057853Y-119450350D01*
X117384159Y-119450350D01*
X117714344Y-119450349D01*
X117751688Y-119442865D01*
X117778480Y-119424930D01*
X117780938Y-119423284D01*
X117782968Y-119421925D01*
X118247178Y-118957715D01*
X118268289Y-118926019D01*
X118275116Y-118891543D01*
X118275127Y-118891487D01*
X118275127Y-118891485D01*
X118275600Y-118889097D01*
X118275599Y-118555201D01*
X120416228Y-118555201D01*
X120433227Y-118685200D01*
X120486030Y-118805204D01*
X120488314Y-118807921D01*
X120558582Y-118891514D01*
X120570391Y-118905563D01*
X120679529Y-118978212D01*
X120804670Y-119017309D01*
X120808214Y-119017374D01*
X120932207Y-119019646D01*
X120935754Y-119019711D01*
X120944565Y-119017309D01*
X120986240Y-119005947D01*
X121062244Y-118985226D01*
X121173971Y-118916626D01*
X121213730Y-118872701D01*
X143276228Y-118872701D01*
X143293227Y-119002700D01*
X143346030Y-119122704D01*
X143430391Y-119223063D01*
X143539529Y-119295712D01*
X143664670Y-119334809D01*
X143668214Y-119334874D01*
X143792207Y-119337146D01*
X143795754Y-119337211D01*
X143804565Y-119334809D01*
X143810329Y-119333237D01*
X143922244Y-119302726D01*
X144033971Y-119234126D01*
X144121953Y-119136925D01*
X144179117Y-119018937D01*
X144200869Y-118889648D01*
X144201007Y-118878350D01*
X144192946Y-118822058D01*
X144182924Y-118752080D01*
X144182421Y-118748568D01*
X144128156Y-118629219D01*
X144042575Y-118529897D01*
X144039600Y-118527969D01*
X144039597Y-118527966D01*
X143971401Y-118483764D01*
X143932558Y-118458587D01*
X143806948Y-118421022D01*
X143803401Y-118421000D01*
X143803399Y-118421000D01*
X143743696Y-118420636D01*
X143675844Y-118420221D01*
X143549785Y-118456249D01*
X143438905Y-118526209D01*
X143352117Y-118624478D01*
X143325260Y-118681682D01*
X143297906Y-118739942D01*
X143297905Y-118739945D01*
X143296398Y-118743155D01*
X143276228Y-118872701D01*
X121213730Y-118872701D01*
X121261953Y-118819425D01*
X121319117Y-118701437D01*
X121340869Y-118572148D01*
X121341007Y-118560850D01*
X121326217Y-118457571D01*
X121322924Y-118434580D01*
X121322421Y-118431068D01*
X121268156Y-118311719D01*
X121182575Y-118212397D01*
X121179600Y-118210469D01*
X121179597Y-118210466D01*
X121105199Y-118162244D01*
X121072558Y-118141087D01*
X120946948Y-118103522D01*
X120943401Y-118103500D01*
X120943399Y-118103500D01*
X120883696Y-118103136D01*
X120815844Y-118102721D01*
X120689785Y-118138749D01*
X120578905Y-118208709D01*
X120576556Y-118211369D01*
X120524278Y-118270563D01*
X120492117Y-118306978D01*
X120462764Y-118369497D01*
X120437906Y-118422442D01*
X120437905Y-118422445D01*
X120436398Y-118425655D01*
X120416228Y-118555201D01*
X118275599Y-118555201D01*
X118275599Y-118232606D01*
X118268115Y-118195262D01*
X118247175Y-118163982D01*
X118003394Y-117920201D01*
X123908728Y-117920201D01*
X123925727Y-118050200D01*
X123949180Y-118103500D01*
X123976696Y-118166035D01*
X123978530Y-118170204D01*
X124062891Y-118270563D01*
X124172029Y-118343212D01*
X124297170Y-118382309D01*
X124300714Y-118382374D01*
X124424707Y-118384646D01*
X124428254Y-118384711D01*
X124437065Y-118382309D01*
X124442829Y-118380737D01*
X124554744Y-118350226D01*
X124666471Y-118281626D01*
X124729134Y-118212397D01*
X124752070Y-118187058D01*
X124752071Y-118187057D01*
X124754453Y-118184425D01*
X124811617Y-118066437D01*
X124833369Y-117937148D01*
X124833507Y-117925850D01*
X124814921Y-117796068D01*
X124760656Y-117676719D01*
X124675075Y-117577397D01*
X124672100Y-117575469D01*
X124672097Y-117575466D01*
X124603901Y-117531264D01*
X124565058Y-117506087D01*
X124439448Y-117468522D01*
X124435901Y-117468500D01*
X124435899Y-117468500D01*
X124376196Y-117468136D01*
X124308344Y-117467721D01*
X124182285Y-117503749D01*
X124071405Y-117573709D01*
X123984617Y-117671978D01*
X123955264Y-117734497D01*
X123930406Y-117787442D01*
X123930405Y-117787445D01*
X123928898Y-117790655D01*
X123908728Y-117920201D01*
X118003394Y-117920201D01*
X117782965Y-117699772D01*
X117751269Y-117678661D01*
X117727902Y-117674034D01*
X117716737Y-117671823D01*
X117716735Y-117671823D01*
X117714347Y-117671350D01*
X117388041Y-117671350D01*
X117057856Y-117671351D01*
X117020512Y-117678835D01*
X116993720Y-117696770D01*
X116991276Y-117698407D01*
X116989232Y-117699775D01*
X116525022Y-118163985D01*
X116503911Y-118195681D01*
X116502960Y-118200484D01*
X116497079Y-118230186D01*
X116496600Y-118232603D01*
X115735598Y-118232603D01*
X115728115Y-118195262D01*
X115707175Y-118163982D01*
X115242965Y-117699772D01*
X115211269Y-117678661D01*
X115187902Y-117674034D01*
X115176737Y-117671823D01*
X115176735Y-117671823D01*
X115174347Y-117671350D01*
X114848041Y-117671350D01*
X114517856Y-117671351D01*
X114480512Y-117678835D01*
X114453720Y-117696770D01*
X114451276Y-117698407D01*
X114449232Y-117699775D01*
X113985022Y-118163985D01*
X113963911Y-118195681D01*
X113962960Y-118200484D01*
X113957079Y-118230186D01*
X113956600Y-118232603D01*
X111290598Y-118232603D01*
X111283115Y-118195262D01*
X111262175Y-118163982D01*
X110797965Y-117699772D01*
X110766269Y-117678661D01*
X110742902Y-117674034D01*
X110731737Y-117671823D01*
X110731735Y-117671823D01*
X110729347Y-117671350D01*
X110403041Y-117671350D01*
X110072856Y-117671351D01*
X110035512Y-117678835D01*
X110008720Y-117696770D01*
X110006276Y-117698407D01*
X110004232Y-117699775D01*
X109540022Y-118163985D01*
X109518911Y-118195681D01*
X109517960Y-118200484D01*
X109512079Y-118230186D01*
X109511600Y-118232603D01*
X108750598Y-118232603D01*
X108743115Y-118195262D01*
X108722175Y-118163982D01*
X108257965Y-117699772D01*
X108226269Y-117678661D01*
X108202902Y-117674034D01*
X108191737Y-117671823D01*
X108191735Y-117671823D01*
X108189347Y-117671350D01*
X107863041Y-117671350D01*
X107532856Y-117671351D01*
X107495512Y-117678835D01*
X107468720Y-117696770D01*
X107466276Y-117698407D01*
X107464232Y-117699775D01*
X107000022Y-118163985D01*
X106978911Y-118195681D01*
X106977960Y-118200484D01*
X106972079Y-118230186D01*
X106971600Y-118232603D01*
X104076600Y-118232603D01*
X104076600Y-115692603D01*
X106971600Y-115692603D01*
X106971601Y-116349094D01*
X106979085Y-116386438D01*
X107000025Y-116417718D01*
X107464235Y-116881928D01*
X107495931Y-116903039D01*
X107500734Y-116903990D01*
X107530463Y-116909877D01*
X107530465Y-116909877D01*
X107532853Y-116910350D01*
X107859159Y-116910350D01*
X108189344Y-116910349D01*
X108226688Y-116902865D01*
X108253480Y-116884930D01*
X108255938Y-116883284D01*
X108257968Y-116881925D01*
X108722178Y-116417715D01*
X108743289Y-116386019D01*
X108745254Y-116376095D01*
X108750127Y-116351487D01*
X108750127Y-116351485D01*
X108750600Y-116349097D01*
X108750599Y-115692606D01*
X108750598Y-115692603D01*
X109511600Y-115692603D01*
X109511601Y-116349094D01*
X109519085Y-116386438D01*
X109540025Y-116417718D01*
X110004235Y-116881928D01*
X110035931Y-116903039D01*
X110040734Y-116903990D01*
X110070463Y-116909877D01*
X110070465Y-116909877D01*
X110072853Y-116910350D01*
X110399159Y-116910350D01*
X110729344Y-116910349D01*
X110766688Y-116902865D01*
X110793480Y-116884930D01*
X110795938Y-116883284D01*
X110797968Y-116881925D01*
X111262178Y-116417715D01*
X111283289Y-116386019D01*
X111285254Y-116376095D01*
X111290127Y-116351487D01*
X111290127Y-116351485D01*
X111290600Y-116349097D01*
X111290599Y-115692606D01*
X111290598Y-115692603D01*
X113956600Y-115692603D01*
X113956601Y-116349094D01*
X113964085Y-116386438D01*
X113985025Y-116417718D01*
X114449235Y-116881928D01*
X114480931Y-116903039D01*
X114485734Y-116903990D01*
X114515463Y-116909877D01*
X114515465Y-116909877D01*
X114517853Y-116910350D01*
X114844159Y-116910350D01*
X115174344Y-116910349D01*
X115211688Y-116902865D01*
X115238480Y-116884930D01*
X115240938Y-116883284D01*
X115242968Y-116881925D01*
X115707178Y-116417715D01*
X115728289Y-116386019D01*
X115730254Y-116376095D01*
X115735127Y-116351487D01*
X115735127Y-116351485D01*
X115735600Y-116349097D01*
X115735599Y-115692606D01*
X115735598Y-115692603D01*
X116496600Y-115692603D01*
X116496601Y-116349094D01*
X116504085Y-116386438D01*
X116525025Y-116417718D01*
X116989235Y-116881928D01*
X117020931Y-116903039D01*
X117025734Y-116903990D01*
X117055463Y-116909877D01*
X117055465Y-116909877D01*
X117057853Y-116910350D01*
X117384159Y-116910350D01*
X117714344Y-116910349D01*
X117751688Y-116902865D01*
X117778480Y-116884930D01*
X117780938Y-116883284D01*
X117782968Y-116881925D01*
X118014692Y-116650201D01*
X131528728Y-116650201D01*
X131545727Y-116780200D01*
X131598530Y-116900204D01*
X131682891Y-117000563D01*
X131792029Y-117073212D01*
X131917170Y-117112309D01*
X131920714Y-117112374D01*
X132044707Y-117114646D01*
X132048254Y-117114711D01*
X132057065Y-117112309D01*
X132062829Y-117110737D01*
X132174744Y-117080226D01*
X132286471Y-117011626D01*
X132374453Y-116914425D01*
X132376657Y-116909877D01*
X132389536Y-116883293D01*
X132431617Y-116796437D01*
X132453369Y-116667148D01*
X132453507Y-116655850D01*
X132452698Y-116650201D01*
X177566228Y-116650201D01*
X177583227Y-116780200D01*
X177636030Y-116900204D01*
X177720391Y-117000563D01*
X177829529Y-117073212D01*
X177954670Y-117112309D01*
X177958214Y-117112374D01*
X178082207Y-117114646D01*
X178085754Y-117114711D01*
X178094565Y-117112309D01*
X178100329Y-117110737D01*
X178212244Y-117080226D01*
X178323971Y-117011626D01*
X178411953Y-116914425D01*
X178414157Y-116909877D01*
X178427036Y-116883293D01*
X178469117Y-116796437D01*
X178490869Y-116667148D01*
X178491007Y-116655850D01*
X178472421Y-116526068D01*
X178418156Y-116406719D01*
X178332575Y-116307397D01*
X178329600Y-116305469D01*
X178329597Y-116305466D01*
X178261401Y-116261264D01*
X178222558Y-116236087D01*
X178096948Y-116198522D01*
X178093401Y-116198500D01*
X178093399Y-116198500D01*
X178033696Y-116198136D01*
X177965844Y-116197721D01*
X177839785Y-116233749D01*
X177728905Y-116303709D01*
X177726556Y-116306369D01*
X177652612Y-116390095D01*
X177642117Y-116401978D01*
X177633911Y-116419456D01*
X177587906Y-116517442D01*
X177587905Y-116517445D01*
X177586398Y-116520655D01*
X177566228Y-116650201D01*
X132452698Y-116650201D01*
X132434921Y-116526068D01*
X132380656Y-116406719D01*
X132295075Y-116307397D01*
X132292100Y-116305469D01*
X132292097Y-116305466D01*
X132223901Y-116261264D01*
X132185058Y-116236087D01*
X132059448Y-116198522D01*
X132055901Y-116198500D01*
X132055899Y-116198500D01*
X131996196Y-116198136D01*
X131928344Y-116197721D01*
X131802285Y-116233749D01*
X131691405Y-116303709D01*
X131689056Y-116306369D01*
X131615112Y-116390095D01*
X131604617Y-116401978D01*
X131596411Y-116419456D01*
X131550406Y-116517442D01*
X131550405Y-116517445D01*
X131548898Y-116520655D01*
X131528728Y-116650201D01*
X118014692Y-116650201D01*
X118247178Y-116417715D01*
X118268289Y-116386019D01*
X118270254Y-116376095D01*
X118275127Y-116351487D01*
X118275127Y-116351485D01*
X118275600Y-116349097D01*
X118275599Y-115692606D01*
X118268115Y-115655262D01*
X118247175Y-115623982D01*
X117782965Y-115159772D01*
X117751269Y-115138661D01*
X117741345Y-115136696D01*
X117716737Y-115131823D01*
X117716735Y-115131823D01*
X117714347Y-115131350D01*
X117388041Y-115131350D01*
X117057856Y-115131351D01*
X117020512Y-115138835D01*
X116993720Y-115156770D01*
X116991276Y-115158407D01*
X116989232Y-115159775D01*
X116525022Y-115623985D01*
X116503911Y-115655681D01*
X116502960Y-115660484D01*
X116497079Y-115690186D01*
X116496600Y-115692603D01*
X115735598Y-115692603D01*
X115728115Y-115655262D01*
X115707175Y-115623982D01*
X115242965Y-115159772D01*
X115211269Y-115138661D01*
X115201345Y-115136696D01*
X115176737Y-115131823D01*
X115176735Y-115131823D01*
X115174347Y-115131350D01*
X114848041Y-115131350D01*
X114517856Y-115131351D01*
X114480512Y-115138835D01*
X114453720Y-115156770D01*
X114451276Y-115158407D01*
X114449232Y-115159775D01*
X113985022Y-115623985D01*
X113963911Y-115655681D01*
X113962960Y-115660484D01*
X113957079Y-115690186D01*
X113956600Y-115692603D01*
X111290598Y-115692603D01*
X111283115Y-115655262D01*
X111262175Y-115623982D01*
X110797965Y-115159772D01*
X110766269Y-115138661D01*
X110756345Y-115136696D01*
X110731737Y-115131823D01*
X110731735Y-115131823D01*
X110729347Y-115131350D01*
X110403041Y-115131350D01*
X110072856Y-115131351D01*
X110035512Y-115138835D01*
X110008720Y-115156770D01*
X110006276Y-115158407D01*
X110004232Y-115159775D01*
X109540022Y-115623985D01*
X109518911Y-115655681D01*
X109517960Y-115660484D01*
X109512079Y-115690186D01*
X109511600Y-115692603D01*
X108750598Y-115692603D01*
X108743115Y-115655262D01*
X108722175Y-115623982D01*
X108257965Y-115159772D01*
X108226269Y-115138661D01*
X108216345Y-115136696D01*
X108191737Y-115131823D01*
X108191735Y-115131823D01*
X108189347Y-115131350D01*
X107863041Y-115131350D01*
X107532856Y-115131351D01*
X107495512Y-115138835D01*
X107468720Y-115156770D01*
X107466276Y-115158407D01*
X107464232Y-115159775D01*
X107000022Y-115623985D01*
X106978911Y-115655681D01*
X106977960Y-115660484D01*
X106972079Y-115690186D01*
X106971600Y-115692603D01*
X104076600Y-115692603D01*
X104076600Y-114745201D01*
X134068728Y-114745201D01*
X134085727Y-114875200D01*
X134093212Y-114892211D01*
X134122621Y-114959047D01*
X134138530Y-114995204D01*
X134222891Y-115095563D01*
X134332029Y-115168212D01*
X134457170Y-115207309D01*
X134460714Y-115207374D01*
X134584707Y-115209646D01*
X134588254Y-115209711D01*
X134597065Y-115207309D01*
X134608736Y-115204127D01*
X134714744Y-115175226D01*
X134826471Y-115106626D01*
X134908238Y-115016291D01*
X134912070Y-115012058D01*
X134912071Y-115012057D01*
X134914453Y-115009425D01*
X134971617Y-114891437D01*
X134993369Y-114762148D01*
X134993507Y-114750850D01*
X134985446Y-114694558D01*
X134975424Y-114624580D01*
X134974921Y-114621068D01*
X134920656Y-114501719D01*
X134856878Y-114427701D01*
X136608728Y-114427701D01*
X136625727Y-114557700D01*
X136678530Y-114677704D01*
X136762891Y-114778063D01*
X136872029Y-114850712D01*
X136997170Y-114889809D01*
X137000714Y-114889874D01*
X137124707Y-114892146D01*
X137128254Y-114892211D01*
X137137065Y-114889809D01*
X137178740Y-114878447D01*
X137254744Y-114857726D01*
X137366471Y-114789126D01*
X137401117Y-114750850D01*
X145117903Y-114750850D01*
X145135816Y-114886910D01*
X145188333Y-115013698D01*
X145271876Y-115122574D01*
X145380751Y-115206117D01*
X145507540Y-115258634D01*
X145643600Y-115276547D01*
X145779660Y-115258634D01*
X145906449Y-115206117D01*
X146015324Y-115122574D01*
X146098867Y-115013698D01*
X146151384Y-114886910D01*
X146169297Y-114750850D01*
X146151384Y-114614790D01*
X146098867Y-114488002D01*
X146056932Y-114433350D01*
X147340403Y-114433350D01*
X147358316Y-114569410D01*
X147410833Y-114696198D01*
X147494376Y-114805074D01*
X147603251Y-114888617D01*
X147730040Y-114941134D01*
X147866100Y-114959047D01*
X148002160Y-114941134D01*
X148128949Y-114888617D01*
X148237824Y-114805074D01*
X148321367Y-114696198D01*
X148373884Y-114569410D01*
X148391797Y-114433350D01*
X148373884Y-114297290D01*
X148321367Y-114170502D01*
X148254199Y-114082966D01*
X148239813Y-114064218D01*
X148237824Y-114061626D01*
X148128949Y-113978083D01*
X148002160Y-113925566D01*
X147866100Y-113907653D01*
X147730040Y-113925566D01*
X147603252Y-113978083D01*
X147494376Y-114061626D01*
X147492387Y-114064218D01*
X147478001Y-114082966D01*
X147410833Y-114170502D01*
X147358316Y-114297290D01*
X147340403Y-114433350D01*
X146056932Y-114433350D01*
X146031699Y-114400466D01*
X146017313Y-114381718D01*
X146015324Y-114379126D01*
X145906449Y-114295583D01*
X145779660Y-114243066D01*
X145643600Y-114225153D01*
X145507540Y-114243066D01*
X145380752Y-114295583D01*
X145271876Y-114379126D01*
X145269887Y-114381718D01*
X145255501Y-114400466D01*
X145188333Y-114488002D01*
X145135816Y-114614790D01*
X145117903Y-114750850D01*
X137401117Y-114750850D01*
X137448238Y-114698791D01*
X137452070Y-114694558D01*
X137452071Y-114694557D01*
X137454453Y-114691925D01*
X137511617Y-114573937D01*
X137533369Y-114444648D01*
X137533507Y-114433350D01*
X137518717Y-114330071D01*
X137515424Y-114307080D01*
X137514921Y-114303568D01*
X137460656Y-114184219D01*
X137375075Y-114084897D01*
X137372100Y-114082969D01*
X137372097Y-114082966D01*
X137303901Y-114038764D01*
X137265058Y-114013587D01*
X137139448Y-113976022D01*
X137135901Y-113976000D01*
X137135899Y-113976000D01*
X137076196Y-113975636D01*
X137008344Y-113975221D01*
X136882285Y-114011249D01*
X136771405Y-114081209D01*
X136684617Y-114179478D01*
X136663173Y-114225153D01*
X136630406Y-114294942D01*
X136630405Y-114294945D01*
X136628898Y-114298155D01*
X136608728Y-114427701D01*
X134856878Y-114427701D01*
X134835075Y-114402397D01*
X134832100Y-114400469D01*
X134832097Y-114400466D01*
X134763901Y-114356264D01*
X134725058Y-114331087D01*
X134599448Y-114293522D01*
X134595901Y-114293500D01*
X134595899Y-114293500D01*
X134536196Y-114293136D01*
X134468344Y-114292721D01*
X134342285Y-114328749D01*
X134231405Y-114398709D01*
X134144617Y-114496978D01*
X134117760Y-114554182D01*
X134090406Y-114612442D01*
X134090405Y-114612445D01*
X134088898Y-114615655D01*
X134068728Y-114745201D01*
X104076600Y-114745201D01*
X104076600Y-112522701D01*
X117558728Y-112522701D01*
X117575727Y-112652700D01*
X117628530Y-112772704D01*
X117712891Y-112873063D01*
X117822029Y-112945712D01*
X117947170Y-112984809D01*
X117950714Y-112984874D01*
X118074707Y-112987146D01*
X118078254Y-112987211D01*
X118087065Y-112984809D01*
X118092829Y-112983237D01*
X118204744Y-112952726D01*
X118316471Y-112884126D01*
X118404453Y-112786925D01*
X118461617Y-112668937D01*
X118483369Y-112539648D01*
X118483507Y-112528350D01*
X118475446Y-112472058D01*
X118465424Y-112402080D01*
X118464921Y-112398568D01*
X118410656Y-112279219D01*
X118346878Y-112205201D01*
X119463728Y-112205201D01*
X119480727Y-112335200D01*
X119533530Y-112455204D01*
X119617891Y-112555563D01*
X119727029Y-112628212D01*
X119852170Y-112667309D01*
X119855714Y-112667374D01*
X119979707Y-112669646D01*
X119983254Y-112669711D01*
X119992065Y-112667309D01*
X120033740Y-112655947D01*
X120109744Y-112635226D01*
X120221471Y-112566626D01*
X120309453Y-112469425D01*
X120366617Y-112351437D01*
X120388369Y-112222148D01*
X120388507Y-112210850D01*
X120387698Y-112205201D01*
X123908728Y-112205201D01*
X123925727Y-112335200D01*
X123978530Y-112455204D01*
X124062891Y-112555563D01*
X124172029Y-112628212D01*
X124297170Y-112667309D01*
X124300714Y-112667374D01*
X124424707Y-112669646D01*
X124428254Y-112669711D01*
X124437065Y-112667309D01*
X124478740Y-112655947D01*
X124554744Y-112635226D01*
X124666471Y-112566626D01*
X124706230Y-112522701D01*
X174391228Y-112522701D01*
X174408227Y-112652700D01*
X174461030Y-112772704D01*
X174545391Y-112873063D01*
X174654529Y-112945712D01*
X174779670Y-112984809D01*
X174783214Y-112984874D01*
X174907207Y-112987146D01*
X174910754Y-112987211D01*
X174919565Y-112984809D01*
X174925329Y-112983237D01*
X175037244Y-112952726D01*
X175148971Y-112884126D01*
X175236953Y-112786925D01*
X175294117Y-112668937D01*
X175315869Y-112539648D01*
X175316007Y-112528350D01*
X175307946Y-112472058D01*
X175297924Y-112402080D01*
X175297421Y-112398568D01*
X175243156Y-112279219D01*
X175179378Y-112205201D01*
X183598728Y-112205201D01*
X183615727Y-112335200D01*
X183668530Y-112455204D01*
X183752891Y-112555563D01*
X183862029Y-112628212D01*
X183987170Y-112667309D01*
X183990714Y-112667374D01*
X184114707Y-112669646D01*
X184118254Y-112669711D01*
X184127065Y-112667309D01*
X184168740Y-112655947D01*
X184244744Y-112635226D01*
X184356471Y-112566626D01*
X184444453Y-112469425D01*
X184501617Y-112351437D01*
X184523369Y-112222148D01*
X184523507Y-112210850D01*
X184508717Y-112107571D01*
X184505424Y-112084580D01*
X184504921Y-112081068D01*
X184450656Y-111961719D01*
X184365075Y-111862397D01*
X184362100Y-111860469D01*
X184362097Y-111860466D01*
X184293901Y-111816264D01*
X184255058Y-111791087D01*
X184129448Y-111753522D01*
X184125901Y-111753500D01*
X184125899Y-111753500D01*
X184066196Y-111753136D01*
X183998344Y-111752721D01*
X183872285Y-111788749D01*
X183761405Y-111858709D01*
X183759056Y-111861369D01*
X183704964Y-111922617D01*
X183674617Y-111956978D01*
X183650568Y-112008201D01*
X183620406Y-112072442D01*
X183620405Y-112072445D01*
X183618898Y-112075655D01*
X183598728Y-112205201D01*
X175179378Y-112205201D01*
X175157575Y-112179897D01*
X175154600Y-112177969D01*
X175154597Y-112177966D01*
X175086401Y-112133764D01*
X175047558Y-112108587D01*
X174921948Y-112071022D01*
X174918401Y-112071000D01*
X174918399Y-112071000D01*
X174858696Y-112070636D01*
X174790844Y-112070221D01*
X174664785Y-112106249D01*
X174553905Y-112176209D01*
X174467117Y-112274478D01*
X174440260Y-112331682D01*
X174412906Y-112389942D01*
X174412905Y-112389945D01*
X174411398Y-112393155D01*
X174391228Y-112522701D01*
X124706230Y-112522701D01*
X124754453Y-112469425D01*
X124811617Y-112351437D01*
X124833369Y-112222148D01*
X124833507Y-112210850D01*
X124818717Y-112107571D01*
X124815424Y-112084580D01*
X124814921Y-112081068D01*
X124760656Y-111961719D01*
X124675075Y-111862397D01*
X124672100Y-111860469D01*
X124672097Y-111860466D01*
X124603901Y-111816264D01*
X124565058Y-111791087D01*
X124439448Y-111753522D01*
X124435901Y-111753500D01*
X124435899Y-111753500D01*
X124376196Y-111753136D01*
X124308344Y-111752721D01*
X124182285Y-111788749D01*
X124071405Y-111858709D01*
X124069056Y-111861369D01*
X124014964Y-111922617D01*
X123984617Y-111956978D01*
X123960568Y-112008201D01*
X123930406Y-112072442D01*
X123930405Y-112072445D01*
X123928898Y-112075655D01*
X123908728Y-112205201D01*
X120387698Y-112205201D01*
X120373717Y-112107571D01*
X120370424Y-112084580D01*
X120369921Y-112081068D01*
X120315656Y-111961719D01*
X120230075Y-111862397D01*
X120227100Y-111860469D01*
X120227097Y-111860466D01*
X120158901Y-111816264D01*
X120120058Y-111791087D01*
X119994448Y-111753522D01*
X119990901Y-111753500D01*
X119990899Y-111753500D01*
X119931196Y-111753136D01*
X119863344Y-111752721D01*
X119737285Y-111788749D01*
X119626405Y-111858709D01*
X119624056Y-111861369D01*
X119569964Y-111922617D01*
X119539617Y-111956978D01*
X119515568Y-112008201D01*
X119485406Y-112072442D01*
X119485405Y-112072445D01*
X119483898Y-112075655D01*
X119463728Y-112205201D01*
X118346878Y-112205201D01*
X118325075Y-112179897D01*
X118322100Y-112177969D01*
X118322097Y-112177966D01*
X118253901Y-112133764D01*
X118215058Y-112108587D01*
X118089448Y-112071022D01*
X118085901Y-112071000D01*
X118085899Y-112071000D01*
X118026196Y-112070636D01*
X117958344Y-112070221D01*
X117832285Y-112106249D01*
X117721405Y-112176209D01*
X117634617Y-112274478D01*
X117607760Y-112331682D01*
X117580406Y-112389942D01*
X117580405Y-112389945D01*
X117578898Y-112393155D01*
X117558728Y-112522701D01*
X104076600Y-112522701D01*
X104076600Y-111252701D01*
X128988728Y-111252701D01*
X129005727Y-111382700D01*
X129058530Y-111502704D01*
X129142891Y-111603063D01*
X129252029Y-111675712D01*
X129377170Y-111714809D01*
X129380714Y-111714874D01*
X129504707Y-111717146D01*
X129508254Y-111717211D01*
X129517065Y-111714809D01*
X129558740Y-111703447D01*
X129634744Y-111682726D01*
X129746471Y-111614126D01*
X129786230Y-111570201D01*
X140101228Y-111570201D01*
X140118227Y-111700200D01*
X140171030Y-111820204D01*
X140255391Y-111920563D01*
X140364529Y-111993212D01*
X140489670Y-112032309D01*
X140493214Y-112032374D01*
X140617207Y-112034646D01*
X140620754Y-112034711D01*
X140629565Y-112032309D01*
X140671060Y-112020996D01*
X140747244Y-112000226D01*
X140858971Y-111931626D01*
X140921634Y-111862397D01*
X140944570Y-111837058D01*
X140944571Y-111837057D01*
X140946953Y-111834425D01*
X141004117Y-111716437D01*
X141025869Y-111587148D01*
X141026007Y-111575850D01*
X141025198Y-111570201D01*
X150578728Y-111570201D01*
X150595727Y-111700200D01*
X150648530Y-111820204D01*
X150732891Y-111920563D01*
X150842029Y-111993212D01*
X150967170Y-112032309D01*
X150970714Y-112032374D01*
X151094707Y-112034646D01*
X151098254Y-112034711D01*
X151107065Y-112032309D01*
X151148560Y-112020996D01*
X151224744Y-112000226D01*
X151336471Y-111931626D01*
X151399134Y-111862397D01*
X151422070Y-111837058D01*
X151422071Y-111837057D01*
X151424453Y-111834425D01*
X151481617Y-111716437D01*
X151503369Y-111587148D01*
X151503507Y-111575850D01*
X151502698Y-111570201D01*
X179153728Y-111570201D01*
X179170727Y-111700200D01*
X179223530Y-111820204D01*
X179307891Y-111920563D01*
X179417029Y-111993212D01*
X179542170Y-112032309D01*
X179545714Y-112032374D01*
X179669707Y-112034646D01*
X179673254Y-112034711D01*
X179682065Y-112032309D01*
X179723560Y-112020996D01*
X179799744Y-112000226D01*
X179911471Y-111931626D01*
X179974134Y-111862397D01*
X179997070Y-111837058D01*
X179997071Y-111837057D01*
X179999453Y-111834425D01*
X180056617Y-111716437D01*
X180078369Y-111587148D01*
X180078507Y-111575850D01*
X180070446Y-111519558D01*
X180060424Y-111449580D01*
X180059921Y-111446068D01*
X180005656Y-111326719D01*
X179920075Y-111227397D01*
X179917100Y-111225469D01*
X179917097Y-111225466D01*
X179848901Y-111181264D01*
X179810058Y-111156087D01*
X179684448Y-111118522D01*
X179680901Y-111118500D01*
X179680899Y-111118500D01*
X179621196Y-111118136D01*
X179553344Y-111117721D01*
X179427285Y-111153749D01*
X179316405Y-111223709D01*
X179229617Y-111321978D01*
X179202760Y-111379182D01*
X179175406Y-111437442D01*
X179175405Y-111437445D01*
X179173898Y-111440655D01*
X179153728Y-111570201D01*
X151502698Y-111570201D01*
X151495446Y-111519558D01*
X151485424Y-111449580D01*
X151484921Y-111446068D01*
X151430656Y-111326719D01*
X151345075Y-111227397D01*
X151342100Y-111225469D01*
X151342097Y-111225466D01*
X151273901Y-111181264D01*
X151235058Y-111156087D01*
X151109448Y-111118522D01*
X151105901Y-111118500D01*
X151105899Y-111118500D01*
X151046196Y-111118136D01*
X150978344Y-111117721D01*
X150852285Y-111153749D01*
X150741405Y-111223709D01*
X150654617Y-111321978D01*
X150627760Y-111379182D01*
X150600406Y-111437442D01*
X150600405Y-111437445D01*
X150598898Y-111440655D01*
X150578728Y-111570201D01*
X141025198Y-111570201D01*
X141017946Y-111519558D01*
X141007924Y-111449580D01*
X141007421Y-111446068D01*
X140953156Y-111326719D01*
X140867575Y-111227397D01*
X140864600Y-111225469D01*
X140864597Y-111225466D01*
X140796401Y-111181264D01*
X140757558Y-111156087D01*
X140631948Y-111118522D01*
X140628401Y-111118500D01*
X140628399Y-111118500D01*
X140568696Y-111118136D01*
X140500844Y-111117721D01*
X140374785Y-111153749D01*
X140263905Y-111223709D01*
X140177117Y-111321978D01*
X140150260Y-111379182D01*
X140122906Y-111437442D01*
X140122905Y-111437445D01*
X140121398Y-111440655D01*
X140101228Y-111570201D01*
X129786230Y-111570201D01*
X129834453Y-111516925D01*
X129891617Y-111398937D01*
X129913369Y-111269648D01*
X129913507Y-111258350D01*
X129898717Y-111155071D01*
X129895424Y-111132080D01*
X129894921Y-111128568D01*
X129840656Y-111009219D01*
X129755075Y-110909897D01*
X129752100Y-110907969D01*
X129752097Y-110907966D01*
X129683901Y-110863764D01*
X129645058Y-110838587D01*
X129519448Y-110801022D01*
X129515901Y-110801000D01*
X129515899Y-110801000D01*
X129456196Y-110800636D01*
X129388344Y-110800221D01*
X129262285Y-110836249D01*
X129151405Y-110906209D01*
X129149056Y-110908869D01*
X129096778Y-110968063D01*
X129064617Y-111004478D01*
X129035264Y-111066997D01*
X129010406Y-111119942D01*
X129010405Y-111119945D01*
X129008898Y-111123155D01*
X128988728Y-111252701D01*
X104076600Y-111252701D01*
X104076600Y-110617701D01*
X115336228Y-110617701D01*
X115353227Y-110747700D01*
X115406030Y-110867704D01*
X115490391Y-110968063D01*
X115599529Y-111040712D01*
X115724670Y-111079809D01*
X115728214Y-111079874D01*
X115852207Y-111082146D01*
X115855754Y-111082211D01*
X115864565Y-111079809D01*
X115870329Y-111078237D01*
X115982244Y-111047726D01*
X116093971Y-110979126D01*
X116156634Y-110909897D01*
X116179570Y-110884558D01*
X116179571Y-110884557D01*
X116181953Y-110881925D01*
X116239117Y-110763937D01*
X116260869Y-110634648D01*
X116261007Y-110623350D01*
X116252946Y-110567058D01*
X116242924Y-110497080D01*
X116242421Y-110493568D01*
X116188156Y-110374219D01*
X116102575Y-110274897D01*
X116099600Y-110272969D01*
X116099597Y-110272966D01*
X116031401Y-110228764D01*
X115992558Y-110203587D01*
X115866948Y-110166022D01*
X115863401Y-110166000D01*
X115863399Y-110166000D01*
X115803696Y-110165636D01*
X115735844Y-110165221D01*
X115609785Y-110201249D01*
X115498905Y-110271209D01*
X115496556Y-110273869D01*
X115444278Y-110333063D01*
X115412117Y-110369478D01*
X115385260Y-110426682D01*
X115357906Y-110484942D01*
X115357905Y-110484945D01*
X115356398Y-110488155D01*
X115336228Y-110617701D01*
X104076600Y-110617701D01*
X104076600Y-109665201D01*
X118828728Y-109665201D01*
X118845727Y-109795200D01*
X118898530Y-109915204D01*
X118982891Y-110015563D01*
X119092029Y-110088212D01*
X119217170Y-110127309D01*
X119220714Y-110127374D01*
X119344707Y-110129646D01*
X119348254Y-110129711D01*
X119357065Y-110127309D01*
X119398740Y-110115947D01*
X119474744Y-110095226D01*
X119586471Y-110026626D01*
X119626230Y-109982701D01*
X143911228Y-109982701D01*
X143928227Y-110112700D01*
X143981030Y-110232704D01*
X144065391Y-110333063D01*
X144174529Y-110405712D01*
X144299670Y-110444809D01*
X144303214Y-110444874D01*
X144427207Y-110447146D01*
X144430754Y-110447211D01*
X144439565Y-110444809D01*
X144481240Y-110433447D01*
X144557244Y-110412726D01*
X144668971Y-110344126D01*
X144731634Y-110274897D01*
X144754570Y-110249558D01*
X144754571Y-110249557D01*
X144756953Y-110246925D01*
X144814117Y-110128937D01*
X144835869Y-109999648D01*
X144836007Y-109988350D01*
X144835198Y-109982701D01*
X146768728Y-109982701D01*
X146785727Y-110112700D01*
X146838530Y-110232704D01*
X146922891Y-110333063D01*
X147032029Y-110405712D01*
X147157170Y-110444809D01*
X147160714Y-110444874D01*
X147284707Y-110447146D01*
X147288254Y-110447211D01*
X147297065Y-110444809D01*
X147338740Y-110433447D01*
X147414744Y-110412726D01*
X147526471Y-110344126D01*
X147566230Y-110300201D01*
X160421228Y-110300201D01*
X160438227Y-110430200D01*
X160491030Y-110550204D01*
X160575391Y-110650563D01*
X160684529Y-110723212D01*
X160809670Y-110762309D01*
X160813214Y-110762374D01*
X160937207Y-110764646D01*
X160940754Y-110764711D01*
X160949565Y-110762309D01*
X160991240Y-110750947D01*
X161067244Y-110730226D01*
X161178971Y-110661626D01*
X161266953Y-110564425D01*
X161324117Y-110446437D01*
X161345869Y-110317148D01*
X161346007Y-110305850D01*
X161345198Y-110300201D01*
X186138728Y-110300201D01*
X186155727Y-110430200D01*
X186208530Y-110550204D01*
X186292891Y-110650563D01*
X186402029Y-110723212D01*
X186527170Y-110762309D01*
X186530714Y-110762374D01*
X186654707Y-110764646D01*
X186658254Y-110764711D01*
X186667065Y-110762309D01*
X186708740Y-110750947D01*
X186784744Y-110730226D01*
X186896471Y-110661626D01*
X186984453Y-110564425D01*
X187041617Y-110446437D01*
X187063369Y-110317148D01*
X187063507Y-110305850D01*
X187055446Y-110249558D01*
X187045424Y-110179580D01*
X187044921Y-110176068D01*
X186990656Y-110056719D01*
X186905075Y-109957397D01*
X186902100Y-109955469D01*
X186902097Y-109955466D01*
X186833901Y-109911264D01*
X186795058Y-109886087D01*
X186669448Y-109848522D01*
X186665901Y-109848500D01*
X186665899Y-109848500D01*
X186606197Y-109848136D01*
X186538344Y-109847721D01*
X186412285Y-109883749D01*
X186301405Y-109953709D01*
X186299056Y-109956369D01*
X186246778Y-110015563D01*
X186214617Y-110051978D01*
X186187760Y-110109182D01*
X186160406Y-110167442D01*
X186160405Y-110167445D01*
X186158898Y-110170655D01*
X186138728Y-110300201D01*
X161345198Y-110300201D01*
X161337946Y-110249558D01*
X161327924Y-110179580D01*
X161327421Y-110176068D01*
X161273156Y-110056719D01*
X161187575Y-109957397D01*
X161184600Y-109955469D01*
X161184597Y-109955466D01*
X161116401Y-109911264D01*
X161077558Y-109886087D01*
X160951948Y-109848522D01*
X160948401Y-109848500D01*
X160948399Y-109848500D01*
X160888697Y-109848136D01*
X160820844Y-109847721D01*
X160694785Y-109883749D01*
X160583905Y-109953709D01*
X160581556Y-109956369D01*
X160529278Y-110015563D01*
X160497117Y-110051978D01*
X160470260Y-110109182D01*
X160442906Y-110167442D01*
X160442905Y-110167445D01*
X160441398Y-110170655D01*
X160421228Y-110300201D01*
X147566230Y-110300201D01*
X147589134Y-110274897D01*
X147612070Y-110249558D01*
X147612071Y-110249557D01*
X147614453Y-110246925D01*
X147671617Y-110128937D01*
X147693369Y-109999648D01*
X147693507Y-109988350D01*
X147685446Y-109932058D01*
X147675424Y-109862080D01*
X147674921Y-109858568D01*
X147620656Y-109739219D01*
X147535075Y-109639897D01*
X147532100Y-109637969D01*
X147532097Y-109637966D01*
X147463901Y-109593764D01*
X147425058Y-109568587D01*
X147299448Y-109531022D01*
X147295901Y-109531000D01*
X147295899Y-109531000D01*
X147236196Y-109530636D01*
X147168344Y-109530221D01*
X147042285Y-109566249D01*
X146931405Y-109636209D01*
X146929056Y-109638869D01*
X146876778Y-109698063D01*
X146844617Y-109734478D01*
X146817760Y-109791682D01*
X146790406Y-109849942D01*
X146790405Y-109849945D01*
X146788898Y-109853155D01*
X146768728Y-109982701D01*
X144835198Y-109982701D01*
X144827946Y-109932058D01*
X144817924Y-109862080D01*
X144817421Y-109858568D01*
X144763156Y-109739219D01*
X144677575Y-109639897D01*
X144674600Y-109637969D01*
X144674597Y-109637966D01*
X144606401Y-109593764D01*
X144567558Y-109568587D01*
X144441948Y-109531022D01*
X144438401Y-109531000D01*
X144438399Y-109531000D01*
X144378696Y-109530636D01*
X144310844Y-109530221D01*
X144184785Y-109566249D01*
X144073905Y-109636209D01*
X144071556Y-109638869D01*
X144019278Y-109698063D01*
X143987117Y-109734478D01*
X143960260Y-109791682D01*
X143932906Y-109849942D01*
X143932905Y-109849945D01*
X143931398Y-109853155D01*
X143911228Y-109982701D01*
X119626230Y-109982701D01*
X119649134Y-109957397D01*
X119672070Y-109932058D01*
X119672071Y-109932057D01*
X119674453Y-109929425D01*
X119731617Y-109811437D01*
X119753369Y-109682148D01*
X119753507Y-109670850D01*
X119745446Y-109614558D01*
X119735424Y-109544580D01*
X119734921Y-109541068D01*
X119680656Y-109421719D01*
X119616878Y-109347701D01*
X132798728Y-109347701D01*
X132815727Y-109477700D01*
X132868530Y-109597704D01*
X132952891Y-109698063D01*
X133062029Y-109770712D01*
X133187170Y-109809809D01*
X133190714Y-109809874D01*
X133314707Y-109812146D01*
X133318254Y-109812211D01*
X133327065Y-109809809D01*
X133368740Y-109798447D01*
X133444744Y-109777726D01*
X133556471Y-109709126D01*
X133619134Y-109639897D01*
X133642070Y-109614558D01*
X133642071Y-109614557D01*
X133644453Y-109611925D01*
X133701617Y-109493937D01*
X133723369Y-109364648D01*
X133723507Y-109353350D01*
X133722698Y-109347701D01*
X135338728Y-109347701D01*
X135355727Y-109477700D01*
X135408530Y-109597704D01*
X135492891Y-109698063D01*
X135602029Y-109770712D01*
X135727170Y-109809809D01*
X135730714Y-109809874D01*
X135854707Y-109812146D01*
X135858254Y-109812211D01*
X135867065Y-109809809D01*
X135908740Y-109798447D01*
X135984744Y-109777726D01*
X136096471Y-109709126D01*
X136159134Y-109639897D01*
X136182070Y-109614558D01*
X136182071Y-109614557D01*
X136184453Y-109611925D01*
X136241617Y-109493937D01*
X136263369Y-109364648D01*
X136263507Y-109353350D01*
X136262698Y-109347701D01*
X184868728Y-109347701D01*
X184885727Y-109477700D01*
X184938530Y-109597704D01*
X185022891Y-109698063D01*
X185132029Y-109770712D01*
X185257170Y-109809809D01*
X185260714Y-109809874D01*
X185384707Y-109812146D01*
X185388254Y-109812211D01*
X185397065Y-109809809D01*
X185438740Y-109798447D01*
X185514744Y-109777726D01*
X185626471Y-109709126D01*
X185689134Y-109639897D01*
X185712070Y-109614558D01*
X185712071Y-109614557D01*
X185714453Y-109611925D01*
X185771617Y-109493937D01*
X185793369Y-109364648D01*
X185793507Y-109353350D01*
X185778717Y-109250071D01*
X185775424Y-109227080D01*
X185774921Y-109223568D01*
X185720656Y-109104219D01*
X185635075Y-109004897D01*
X185632100Y-109002969D01*
X185632097Y-109002966D01*
X185563901Y-108958764D01*
X185525058Y-108933587D01*
X185399448Y-108896022D01*
X185395901Y-108896000D01*
X185395899Y-108896000D01*
X185336196Y-108895636D01*
X185268344Y-108895221D01*
X185142285Y-108931249D01*
X185031405Y-109001209D01*
X184944617Y-109099478D01*
X184915264Y-109161997D01*
X184890406Y-109214942D01*
X184890405Y-109214945D01*
X184888898Y-109218155D01*
X184868728Y-109347701D01*
X136262698Y-109347701D01*
X136248717Y-109250071D01*
X136245424Y-109227080D01*
X136244921Y-109223568D01*
X136190656Y-109104219D01*
X136105075Y-109004897D01*
X136102100Y-109002969D01*
X136102097Y-109002966D01*
X136033901Y-108958764D01*
X135995058Y-108933587D01*
X135869448Y-108896022D01*
X135865901Y-108896000D01*
X135865899Y-108896000D01*
X135806196Y-108895636D01*
X135738344Y-108895221D01*
X135612285Y-108931249D01*
X135501405Y-109001209D01*
X135414617Y-109099478D01*
X135385264Y-109161997D01*
X135360406Y-109214942D01*
X135360405Y-109214945D01*
X135358898Y-109218155D01*
X135338728Y-109347701D01*
X133722698Y-109347701D01*
X133708717Y-109250071D01*
X133705424Y-109227080D01*
X133704921Y-109223568D01*
X133650656Y-109104219D01*
X133565075Y-109004897D01*
X133562100Y-109002969D01*
X133562097Y-109002966D01*
X133493901Y-108958764D01*
X133455058Y-108933587D01*
X133329448Y-108896022D01*
X133325901Y-108896000D01*
X133325899Y-108896000D01*
X133266196Y-108895636D01*
X133198344Y-108895221D01*
X133072285Y-108931249D01*
X132961405Y-109001209D01*
X132874617Y-109099478D01*
X132845264Y-109161997D01*
X132820406Y-109214942D01*
X132820405Y-109214945D01*
X132818898Y-109218155D01*
X132798728Y-109347701D01*
X119616878Y-109347701D01*
X119595075Y-109322397D01*
X119592100Y-109320469D01*
X119592097Y-109320466D01*
X119523901Y-109276264D01*
X119485058Y-109251087D01*
X119359448Y-109213522D01*
X119355901Y-109213500D01*
X119355899Y-109213500D01*
X119296196Y-109213136D01*
X119228344Y-109212721D01*
X119102285Y-109248749D01*
X118991405Y-109318709D01*
X118904617Y-109416978D01*
X118877760Y-109474182D01*
X118850406Y-109532442D01*
X118850405Y-109532445D01*
X118848898Y-109535655D01*
X118828728Y-109665201D01*
X104076600Y-109665201D01*
X104076600Y-108083350D01*
X115272903Y-108083350D01*
X115290816Y-108219410D01*
X115343333Y-108346198D01*
X115426876Y-108455074D01*
X115535751Y-108538617D01*
X115662540Y-108591134D01*
X115798600Y-108609047D01*
X115934660Y-108591134D01*
X116061449Y-108538617D01*
X116170324Y-108455074D01*
X116216266Y-108395201D01*
X122638728Y-108395201D01*
X122655727Y-108525200D01*
X122664276Y-108544629D01*
X122692621Y-108609047D01*
X122708530Y-108645204D01*
X122792891Y-108745563D01*
X122902029Y-108818212D01*
X123027170Y-108857309D01*
X123030714Y-108857374D01*
X123154707Y-108859646D01*
X123158254Y-108859711D01*
X123167065Y-108857309D01*
X123172829Y-108855737D01*
X123284744Y-108825226D01*
X123396471Y-108756626D01*
X123484453Y-108659425D01*
X123541617Y-108541437D01*
X123563369Y-108412148D01*
X123563507Y-108400850D01*
X123562698Y-108395201D01*
X130258728Y-108395201D01*
X130275727Y-108525200D01*
X130284276Y-108544629D01*
X130312621Y-108609047D01*
X130328530Y-108645204D01*
X130412891Y-108745563D01*
X130522029Y-108818212D01*
X130647170Y-108857309D01*
X130650714Y-108857374D01*
X130774707Y-108859646D01*
X130778254Y-108859711D01*
X130787065Y-108857309D01*
X130792829Y-108855737D01*
X130904744Y-108825226D01*
X131016471Y-108756626D01*
X131104453Y-108659425D01*
X131161617Y-108541437D01*
X131183369Y-108412148D01*
X131183507Y-108400850D01*
X131164921Y-108271068D01*
X131110656Y-108151719D01*
X131025075Y-108052397D01*
X131022100Y-108050469D01*
X131022097Y-108050466D01*
X130953901Y-108006264D01*
X130915058Y-107981087D01*
X130789448Y-107943522D01*
X130785901Y-107943500D01*
X130785899Y-107943500D01*
X130726196Y-107943136D01*
X130658344Y-107942721D01*
X130532285Y-107978749D01*
X130421405Y-108048709D01*
X130334617Y-108146978D01*
X130305264Y-108209497D01*
X130280406Y-108262442D01*
X130280405Y-108262445D01*
X130278898Y-108265655D01*
X130258728Y-108395201D01*
X123562698Y-108395201D01*
X123544921Y-108271068D01*
X123490656Y-108151719D01*
X123405075Y-108052397D01*
X123402100Y-108050469D01*
X123402097Y-108050466D01*
X123333901Y-108006264D01*
X123295058Y-107981087D01*
X123169448Y-107943522D01*
X123165901Y-107943500D01*
X123165899Y-107943500D01*
X123106196Y-107943136D01*
X123038344Y-107942721D01*
X122912285Y-107978749D01*
X122801405Y-108048709D01*
X122714617Y-108146978D01*
X122685264Y-108209497D01*
X122660406Y-108262442D01*
X122660405Y-108262445D01*
X122658898Y-108265655D01*
X122638728Y-108395201D01*
X116216266Y-108395201D01*
X116253867Y-108346198D01*
X116306384Y-108219410D01*
X116324297Y-108083350D01*
X116306384Y-107947290D01*
X116253867Y-107820502D01*
X116170324Y-107711626D01*
X116061449Y-107628083D01*
X115934660Y-107575566D01*
X115798600Y-107557653D01*
X115662540Y-107575566D01*
X115535752Y-107628083D01*
X115426876Y-107711626D01*
X115343333Y-107820502D01*
X115290816Y-107947290D01*
X115272903Y-108083350D01*
X104076600Y-108083350D01*
X104076600Y-107442701D01*
X120416228Y-107442701D01*
X120433227Y-107572700D01*
X120486030Y-107692704D01*
X120570391Y-107793063D01*
X120679529Y-107865712D01*
X120804670Y-107904809D01*
X120808214Y-107904874D01*
X120932207Y-107907146D01*
X120935754Y-107907211D01*
X120944565Y-107904809D01*
X120950329Y-107903237D01*
X121062244Y-107872726D01*
X121173971Y-107804126D01*
X121261953Y-107706925D01*
X121319117Y-107588937D01*
X121340869Y-107459648D01*
X121341007Y-107448350D01*
X121340198Y-107442701D01*
X121686228Y-107442701D01*
X121703227Y-107572700D01*
X121756030Y-107692704D01*
X121840391Y-107793063D01*
X121949529Y-107865712D01*
X122074670Y-107904809D01*
X122078214Y-107904874D01*
X122202207Y-107907146D01*
X122205754Y-107907211D01*
X122214565Y-107904809D01*
X122220329Y-107903237D01*
X122332244Y-107872726D01*
X122443971Y-107804126D01*
X122531953Y-107706925D01*
X122589117Y-107588937D01*
X122610869Y-107459648D01*
X122611007Y-107448350D01*
X122592421Y-107318568D01*
X122538156Y-107199219D01*
X122452575Y-107099897D01*
X122449600Y-107097969D01*
X122449597Y-107097966D01*
X122368647Y-107045497D01*
X122342558Y-107028587D01*
X122216948Y-106991022D01*
X122213401Y-106991000D01*
X122213399Y-106991000D01*
X122153696Y-106990636D01*
X122085844Y-106990221D01*
X121959785Y-107026249D01*
X121848905Y-107096209D01*
X121762117Y-107194478D01*
X121757623Y-107204050D01*
X121707906Y-107309942D01*
X121707905Y-107309945D01*
X121706398Y-107313155D01*
X121686228Y-107442701D01*
X121340198Y-107442701D01*
X121322421Y-107318568D01*
X121268156Y-107199219D01*
X121182575Y-107099897D01*
X121179600Y-107097969D01*
X121179597Y-107097966D01*
X121098647Y-107045497D01*
X121072558Y-107028587D01*
X120946948Y-106991022D01*
X120943401Y-106991000D01*
X120943399Y-106991000D01*
X120883696Y-106990636D01*
X120815844Y-106990221D01*
X120689785Y-107026249D01*
X120578905Y-107096209D01*
X120492117Y-107194478D01*
X120487623Y-107204050D01*
X120437906Y-107309942D01*
X120437905Y-107309945D01*
X120436398Y-107313155D01*
X120416228Y-107442701D01*
X104076600Y-107442701D01*
X104076600Y-106172701D01*
X115336228Y-106172701D01*
X115353227Y-106302700D01*
X115406030Y-106422704D01*
X115490391Y-106523063D01*
X115599529Y-106595712D01*
X115724670Y-106634809D01*
X115728214Y-106634874D01*
X115852207Y-106637146D01*
X115855754Y-106637211D01*
X115864565Y-106634809D01*
X115870329Y-106633237D01*
X115982244Y-106602726D01*
X116093971Y-106534126D01*
X116181953Y-106436925D01*
X116239117Y-106318937D01*
X116260869Y-106189648D01*
X116261007Y-106178350D01*
X116245684Y-106071349D01*
X116242924Y-106052080D01*
X116242421Y-106048568D01*
X116188156Y-105929219D01*
X116143656Y-105877574D01*
X123493600Y-105877574D01*
X123493601Y-106524123D01*
X123501085Y-106561467D01*
X123522025Y-106592747D01*
X123979206Y-107049928D01*
X124010902Y-107071039D01*
X124015705Y-107071990D01*
X124045434Y-107077877D01*
X124045436Y-107077877D01*
X124047824Y-107078350D01*
X124369188Y-107078350D01*
X124694373Y-107078349D01*
X124731717Y-107070865D01*
X124758509Y-107052930D01*
X124760967Y-107051284D01*
X124762997Y-107049925D01*
X125220178Y-106592744D01*
X125241289Y-106561048D01*
X125247141Y-106531493D01*
X125248127Y-106526516D01*
X125248127Y-106526514D01*
X125248600Y-106524126D01*
X125248599Y-105877577D01*
X125248598Y-105877574D01*
X126033600Y-105877574D01*
X126033601Y-106524123D01*
X126041085Y-106561467D01*
X126062025Y-106592747D01*
X126519206Y-107049928D01*
X126550902Y-107071039D01*
X126555705Y-107071990D01*
X126585434Y-107077877D01*
X126585436Y-107077877D01*
X126587824Y-107078350D01*
X126909188Y-107078350D01*
X127234373Y-107078349D01*
X127271717Y-107070865D01*
X127298509Y-107052930D01*
X127300967Y-107051284D01*
X127302997Y-107049925D01*
X127760178Y-106592744D01*
X127781289Y-106561048D01*
X127787141Y-106531493D01*
X127788127Y-106526516D01*
X127788127Y-106526514D01*
X127788600Y-106524126D01*
X127788599Y-105877577D01*
X127788598Y-105877574D01*
X128573600Y-105877574D01*
X128573601Y-106524123D01*
X128581085Y-106561467D01*
X128602025Y-106592747D01*
X129059206Y-107049928D01*
X129090902Y-107071039D01*
X129095705Y-107071990D01*
X129125434Y-107077877D01*
X129125436Y-107077877D01*
X129127824Y-107078350D01*
X129449188Y-107078350D01*
X129774373Y-107078349D01*
X129811717Y-107070865D01*
X129838509Y-107052930D01*
X129840967Y-107051284D01*
X129842997Y-107049925D01*
X130300178Y-106592744D01*
X130321289Y-106561048D01*
X130327141Y-106531493D01*
X130328127Y-106526516D01*
X130328127Y-106526514D01*
X130328600Y-106524126D01*
X130328599Y-105877577D01*
X130328598Y-105877574D01*
X131113600Y-105877574D01*
X131113601Y-106524123D01*
X131121085Y-106561467D01*
X131142025Y-106592747D01*
X131599206Y-107049928D01*
X131630902Y-107071039D01*
X131635705Y-107071990D01*
X131665434Y-107077877D01*
X131665436Y-107077877D01*
X131667824Y-107078350D01*
X131989188Y-107078350D01*
X132314373Y-107078349D01*
X132351717Y-107070865D01*
X132378509Y-107052930D01*
X132380967Y-107051284D01*
X132382997Y-107049925D01*
X132840178Y-106592744D01*
X132861289Y-106561048D01*
X132867141Y-106531493D01*
X132868127Y-106526516D01*
X132868127Y-106526514D01*
X132868600Y-106524126D01*
X132868599Y-105877577D01*
X132868598Y-105877574D01*
X133653600Y-105877574D01*
X133653601Y-106524123D01*
X133661085Y-106561467D01*
X133682025Y-106592747D01*
X134139206Y-107049928D01*
X134170902Y-107071039D01*
X134175705Y-107071990D01*
X134205434Y-107077877D01*
X134205436Y-107077877D01*
X134207824Y-107078350D01*
X134529188Y-107078350D01*
X134854373Y-107078349D01*
X134891717Y-107070865D01*
X134918509Y-107052930D01*
X134920967Y-107051284D01*
X134922997Y-107049925D01*
X135380178Y-106592744D01*
X135401289Y-106561048D01*
X135407141Y-106531493D01*
X135408127Y-106526516D01*
X135408127Y-106526514D01*
X135408600Y-106524126D01*
X135408599Y-105877577D01*
X135408598Y-105877574D01*
X136193600Y-105877574D01*
X136193601Y-106524123D01*
X136201085Y-106561467D01*
X136222025Y-106592747D01*
X136679206Y-107049928D01*
X136710902Y-107071039D01*
X136715705Y-107071990D01*
X136745434Y-107077877D01*
X136745436Y-107077877D01*
X136747824Y-107078350D01*
X137069188Y-107078350D01*
X137394373Y-107078349D01*
X137431717Y-107070865D01*
X137458509Y-107052930D01*
X137460967Y-107051284D01*
X137462997Y-107049925D01*
X137920178Y-106592744D01*
X137941289Y-106561048D01*
X137947141Y-106531493D01*
X137948127Y-106526516D01*
X137948127Y-106526514D01*
X137948600Y-106524126D01*
X137948599Y-105877577D01*
X137948598Y-105877574D01*
X138733600Y-105877574D01*
X138733601Y-106524123D01*
X138741085Y-106561467D01*
X138762025Y-106592747D01*
X139219206Y-107049928D01*
X139250902Y-107071039D01*
X139255705Y-107071990D01*
X139285434Y-107077877D01*
X139285436Y-107077877D01*
X139287824Y-107078350D01*
X139609188Y-107078350D01*
X139934373Y-107078349D01*
X139971717Y-107070865D01*
X139998509Y-107052930D01*
X140000967Y-107051284D01*
X140002997Y-107049925D01*
X140460178Y-106592744D01*
X140481289Y-106561048D01*
X140487141Y-106531493D01*
X140488127Y-106526516D01*
X140488127Y-106526514D01*
X140488600Y-106524126D01*
X140488599Y-105877577D01*
X140488598Y-105877574D01*
X141273600Y-105877574D01*
X141273601Y-106524123D01*
X141281085Y-106561467D01*
X141302025Y-106592747D01*
X141759206Y-107049928D01*
X141790902Y-107071039D01*
X141795705Y-107071990D01*
X141825434Y-107077877D01*
X141825436Y-107077877D01*
X141827824Y-107078350D01*
X142149188Y-107078350D01*
X142474373Y-107078349D01*
X142511717Y-107070865D01*
X142538509Y-107052930D01*
X142540967Y-107051284D01*
X142542997Y-107049925D01*
X143000178Y-106592744D01*
X143021289Y-106561048D01*
X143027141Y-106531493D01*
X143028127Y-106526516D01*
X143028127Y-106526514D01*
X143028600Y-106524126D01*
X143028599Y-105877577D01*
X143028598Y-105877574D01*
X143813600Y-105877574D01*
X143813601Y-106524123D01*
X143821085Y-106561467D01*
X143842025Y-106592747D01*
X144299206Y-107049928D01*
X144330902Y-107071039D01*
X144335705Y-107071990D01*
X144365434Y-107077877D01*
X144365436Y-107077877D01*
X144367824Y-107078350D01*
X144689188Y-107078350D01*
X145014373Y-107078349D01*
X145051717Y-107070865D01*
X145078509Y-107052930D01*
X145080967Y-107051284D01*
X145082997Y-107049925D01*
X145540178Y-106592744D01*
X145561289Y-106561048D01*
X145567141Y-106531493D01*
X145568127Y-106526516D01*
X145568127Y-106526514D01*
X145568600Y-106524126D01*
X145568599Y-105877577D01*
X145568598Y-105877574D01*
X146353600Y-105877574D01*
X146353601Y-106524123D01*
X146361085Y-106561467D01*
X146382025Y-106592747D01*
X146839206Y-107049928D01*
X146870902Y-107071039D01*
X146875705Y-107071990D01*
X146905434Y-107077877D01*
X146905436Y-107077877D01*
X146907824Y-107078350D01*
X147229188Y-107078350D01*
X147554373Y-107078349D01*
X147591717Y-107070865D01*
X147618509Y-107052930D01*
X147620967Y-107051284D01*
X147622997Y-107049925D01*
X148080178Y-106592744D01*
X148101289Y-106561048D01*
X148107141Y-106531493D01*
X148108127Y-106526516D01*
X148108127Y-106526514D01*
X148108600Y-106524126D01*
X148108599Y-105877577D01*
X148108598Y-105877574D01*
X148893600Y-105877574D01*
X148893601Y-106524123D01*
X148901085Y-106561467D01*
X148922025Y-106592747D01*
X149379206Y-107049928D01*
X149410902Y-107071039D01*
X149415705Y-107071990D01*
X149445434Y-107077877D01*
X149445436Y-107077877D01*
X149447824Y-107078350D01*
X149769188Y-107078350D01*
X150094373Y-107078349D01*
X150131717Y-107070865D01*
X150158509Y-107052930D01*
X150160967Y-107051284D01*
X150162997Y-107049925D01*
X150620178Y-106592744D01*
X150641289Y-106561048D01*
X150647141Y-106531493D01*
X150648127Y-106526516D01*
X150648127Y-106526514D01*
X150648600Y-106524126D01*
X150648599Y-105877577D01*
X150648598Y-105877574D01*
X151433600Y-105877574D01*
X151433601Y-106524123D01*
X151441085Y-106561467D01*
X151462025Y-106592747D01*
X151919206Y-107049928D01*
X151950902Y-107071039D01*
X151955705Y-107071990D01*
X151985434Y-107077877D01*
X151985436Y-107077877D01*
X151987824Y-107078350D01*
X152309188Y-107078350D01*
X152634373Y-107078349D01*
X152671717Y-107070865D01*
X152698509Y-107052930D01*
X152700967Y-107051284D01*
X152702997Y-107049925D01*
X153160178Y-106592744D01*
X153181289Y-106561048D01*
X153187141Y-106531493D01*
X153188127Y-106526516D01*
X153188127Y-106526514D01*
X153188600Y-106524126D01*
X153188599Y-105877577D01*
X153188598Y-105877574D01*
X153973600Y-105877574D01*
X153973601Y-106524123D01*
X153981085Y-106561467D01*
X154002025Y-106592747D01*
X154459206Y-107049928D01*
X154490902Y-107071039D01*
X154495705Y-107071990D01*
X154525434Y-107077877D01*
X154525436Y-107077877D01*
X154527824Y-107078350D01*
X154849188Y-107078350D01*
X155174373Y-107078349D01*
X155211717Y-107070865D01*
X155238509Y-107052930D01*
X155240967Y-107051284D01*
X155242997Y-107049925D01*
X155700178Y-106592744D01*
X155721289Y-106561048D01*
X155727141Y-106531493D01*
X155728127Y-106526516D01*
X155728127Y-106526514D01*
X155728600Y-106524126D01*
X155728599Y-105877577D01*
X155728598Y-105877574D01*
X156513600Y-105877574D01*
X156513601Y-106524123D01*
X156521085Y-106561467D01*
X156542025Y-106592747D01*
X156999206Y-107049928D01*
X157030902Y-107071039D01*
X157035705Y-107071990D01*
X157065434Y-107077877D01*
X157065436Y-107077877D01*
X157067824Y-107078350D01*
X157389188Y-107078350D01*
X157714373Y-107078349D01*
X157751717Y-107070865D01*
X157778509Y-107052930D01*
X157780967Y-107051284D01*
X157782997Y-107049925D01*
X158240178Y-106592744D01*
X158261289Y-106561048D01*
X158267141Y-106531493D01*
X158268127Y-106526516D01*
X158268127Y-106526514D01*
X158268600Y-106524126D01*
X158268599Y-105877577D01*
X158268598Y-105877574D01*
X159053600Y-105877574D01*
X159053601Y-106524123D01*
X159061085Y-106561467D01*
X159082025Y-106592747D01*
X159539206Y-107049928D01*
X159570902Y-107071039D01*
X159575705Y-107071990D01*
X159605434Y-107077877D01*
X159605436Y-107077877D01*
X159607824Y-107078350D01*
X159929188Y-107078350D01*
X160254373Y-107078349D01*
X160291717Y-107070865D01*
X160318509Y-107052930D01*
X160320967Y-107051284D01*
X160322997Y-107049925D01*
X160780178Y-106592744D01*
X160801289Y-106561048D01*
X160807141Y-106531493D01*
X160808127Y-106526516D01*
X160808127Y-106526514D01*
X160808600Y-106524126D01*
X160808599Y-105877577D01*
X160808598Y-105877574D01*
X161593600Y-105877574D01*
X161593601Y-106524123D01*
X161601085Y-106561467D01*
X161622025Y-106592747D01*
X162079206Y-107049928D01*
X162110902Y-107071039D01*
X162115705Y-107071990D01*
X162145434Y-107077877D01*
X162145436Y-107077877D01*
X162147824Y-107078350D01*
X162469188Y-107078350D01*
X162794373Y-107078349D01*
X162831717Y-107070865D01*
X162858509Y-107052930D01*
X162860967Y-107051284D01*
X162862997Y-107049925D01*
X163320178Y-106592744D01*
X163341289Y-106561048D01*
X163347141Y-106531493D01*
X163348127Y-106526516D01*
X163348127Y-106526514D01*
X163348600Y-106524126D01*
X163348599Y-105877577D01*
X163348598Y-105877574D01*
X164133600Y-105877574D01*
X164133601Y-106524123D01*
X164141085Y-106561467D01*
X164162025Y-106592747D01*
X164619206Y-107049928D01*
X164650902Y-107071039D01*
X164655705Y-107071990D01*
X164685434Y-107077877D01*
X164685436Y-107077877D01*
X164687824Y-107078350D01*
X165009188Y-107078350D01*
X165334373Y-107078349D01*
X165371717Y-107070865D01*
X165398509Y-107052930D01*
X165400967Y-107051284D01*
X165402997Y-107049925D01*
X165860178Y-106592744D01*
X165881289Y-106561048D01*
X165887141Y-106531493D01*
X165888127Y-106526516D01*
X165888127Y-106526514D01*
X165888600Y-106524126D01*
X165888599Y-105877577D01*
X165888598Y-105877574D01*
X166673600Y-105877574D01*
X166673601Y-106524123D01*
X166681085Y-106561467D01*
X166702025Y-106592747D01*
X167159206Y-107049928D01*
X167190902Y-107071039D01*
X167195705Y-107071990D01*
X167225434Y-107077877D01*
X167225436Y-107077877D01*
X167227824Y-107078350D01*
X167549188Y-107078350D01*
X167874373Y-107078349D01*
X167911717Y-107070865D01*
X167938509Y-107052930D01*
X167940967Y-107051284D01*
X167942997Y-107049925D01*
X168400178Y-106592744D01*
X168421289Y-106561048D01*
X168426627Y-106534090D01*
X169087900Y-106534090D01*
X169088385Y-106538977D01*
X169101803Y-106605918D01*
X169105489Y-106614788D01*
X169142996Y-106670815D01*
X169146072Y-106674560D01*
X169617373Y-107145863D01*
X169621164Y-107148969D01*
X169677987Y-107186816D01*
X169686866Y-107190482D01*
X169753000Y-107203577D01*
X169757829Y-107204050D01*
X169954594Y-107204050D01*
X169961599Y-107201149D01*
X169964500Y-107194144D01*
X170217700Y-107194144D01*
X170220601Y-107201149D01*
X170227606Y-107204050D01*
X170424340Y-107204050D01*
X170429227Y-107203565D01*
X170496168Y-107190147D01*
X170505038Y-107186461D01*
X170561065Y-107148954D01*
X170564810Y-107145878D01*
X170747281Y-106963408D01*
X171753600Y-106963408D01*
X171754077Y-106965806D01*
X171759128Y-106991195D01*
X171760998Y-107000598D01*
X171789178Y-107042772D01*
X171793256Y-107045497D01*
X171801917Y-107051284D01*
X171831352Y-107070952D01*
X171836161Y-107071909D01*
X171836162Y-107071909D01*
X171866099Y-107077864D01*
X171868542Y-107078350D01*
X173393658Y-107078350D01*
X173396101Y-107077864D01*
X173426038Y-107071909D01*
X173426039Y-107071909D01*
X173430848Y-107070952D01*
X173460283Y-107051284D01*
X173468944Y-107045497D01*
X173473022Y-107042772D01*
X173501202Y-107000598D01*
X173503073Y-106991195D01*
X173508123Y-106965806D01*
X173508600Y-106963408D01*
X173508600Y-105438292D01*
X173501202Y-105401102D01*
X173473022Y-105358928D01*
X173464899Y-105353500D01*
X173434926Y-105333473D01*
X173434927Y-105333473D01*
X173430848Y-105330748D01*
X173426039Y-105329791D01*
X173426038Y-105329791D01*
X173396056Y-105323827D01*
X173393658Y-105323350D01*
X171868542Y-105323350D01*
X171866144Y-105323827D01*
X171836162Y-105329791D01*
X171836161Y-105329791D01*
X171831352Y-105330748D01*
X171827273Y-105333473D01*
X171827274Y-105333473D01*
X171797302Y-105353500D01*
X171789178Y-105358928D01*
X171760998Y-105401102D01*
X171753600Y-105438292D01*
X171753600Y-106963408D01*
X170747281Y-106963408D01*
X171036113Y-106674577D01*
X171039219Y-106670786D01*
X171077066Y-106613963D01*
X171080732Y-106605084D01*
X171093827Y-106538950D01*
X171094300Y-106534121D01*
X171094300Y-106337356D01*
X171091399Y-106330351D01*
X171084394Y-106327450D01*
X170227606Y-106327450D01*
X170220601Y-106330351D01*
X170217700Y-106337356D01*
X170217700Y-107194144D01*
X169964500Y-107194144D01*
X169964500Y-106337356D01*
X169961599Y-106330351D01*
X169954594Y-106327450D01*
X169097806Y-106327450D01*
X169090801Y-106330351D01*
X169087900Y-106337356D01*
X169087900Y-106534090D01*
X168426627Y-106534090D01*
X168427141Y-106531493D01*
X168428127Y-106526516D01*
X168428127Y-106526514D01*
X168428600Y-106524126D01*
X168428599Y-106064344D01*
X169087900Y-106064344D01*
X169090801Y-106071349D01*
X169097806Y-106074250D01*
X169954594Y-106074250D01*
X169961599Y-106071349D01*
X169964500Y-106064344D01*
X170217700Y-106064344D01*
X170220601Y-106071349D01*
X170227606Y-106074250D01*
X171084394Y-106074250D01*
X171091399Y-106071349D01*
X171094300Y-106064344D01*
X171094300Y-105867610D01*
X171093815Y-105862723D01*
X171080397Y-105795782D01*
X171076711Y-105786912D01*
X171039204Y-105730885D01*
X171036128Y-105727140D01*
X170564827Y-105255837D01*
X170561036Y-105252731D01*
X170504213Y-105214884D01*
X170495334Y-105211218D01*
X170429200Y-105198123D01*
X170424371Y-105197650D01*
X170227606Y-105197650D01*
X170220601Y-105200551D01*
X170217700Y-105207556D01*
X170217700Y-106064344D01*
X169964500Y-106064344D01*
X169964500Y-105207556D01*
X169961599Y-105200551D01*
X169954594Y-105197650D01*
X169757860Y-105197650D01*
X169752973Y-105198135D01*
X169686032Y-105211553D01*
X169677162Y-105215239D01*
X169621135Y-105252746D01*
X169617390Y-105255822D01*
X169146087Y-105727123D01*
X169142981Y-105730914D01*
X169105134Y-105787737D01*
X169101468Y-105796616D01*
X169088373Y-105862750D01*
X169087900Y-105867579D01*
X169087900Y-106064344D01*
X168428599Y-106064344D01*
X168428599Y-105877577D01*
X168421115Y-105840233D01*
X168400175Y-105808953D01*
X167942994Y-105351772D01*
X167911298Y-105330661D01*
X167901374Y-105328696D01*
X167876766Y-105323823D01*
X167876764Y-105323823D01*
X167874376Y-105323350D01*
X167553012Y-105323350D01*
X167227827Y-105323351D01*
X167190483Y-105330835D01*
X167163691Y-105348770D01*
X167161247Y-105350407D01*
X167159203Y-105351775D01*
X166702022Y-105808956D01*
X166680911Y-105840652D01*
X166679960Y-105845455D01*
X166674079Y-105875157D01*
X166673600Y-105877574D01*
X165888598Y-105877574D01*
X165881115Y-105840233D01*
X165860175Y-105808953D01*
X165402994Y-105351772D01*
X165371298Y-105330661D01*
X165361374Y-105328696D01*
X165336766Y-105323823D01*
X165336764Y-105323823D01*
X165334376Y-105323350D01*
X165013012Y-105323350D01*
X164687827Y-105323351D01*
X164650483Y-105330835D01*
X164623691Y-105348770D01*
X164621247Y-105350407D01*
X164619203Y-105351775D01*
X164162022Y-105808956D01*
X164140911Y-105840652D01*
X164139960Y-105845455D01*
X164134079Y-105875157D01*
X164133600Y-105877574D01*
X163348598Y-105877574D01*
X163341115Y-105840233D01*
X163320175Y-105808953D01*
X162862994Y-105351772D01*
X162831298Y-105330661D01*
X162821374Y-105328696D01*
X162796766Y-105323823D01*
X162796764Y-105323823D01*
X162794376Y-105323350D01*
X162473012Y-105323350D01*
X162147827Y-105323351D01*
X162110483Y-105330835D01*
X162083691Y-105348770D01*
X162081247Y-105350407D01*
X162079203Y-105351775D01*
X161622022Y-105808956D01*
X161600911Y-105840652D01*
X161599960Y-105845455D01*
X161594079Y-105875157D01*
X161593600Y-105877574D01*
X160808598Y-105877574D01*
X160801115Y-105840233D01*
X160780175Y-105808953D01*
X160322994Y-105351772D01*
X160291298Y-105330661D01*
X160281374Y-105328696D01*
X160256766Y-105323823D01*
X160256764Y-105323823D01*
X160254376Y-105323350D01*
X159933012Y-105323350D01*
X159607827Y-105323351D01*
X159570483Y-105330835D01*
X159543691Y-105348770D01*
X159541247Y-105350407D01*
X159539203Y-105351775D01*
X159082022Y-105808956D01*
X159060911Y-105840652D01*
X159059960Y-105845455D01*
X159054079Y-105875157D01*
X159053600Y-105877574D01*
X158268598Y-105877574D01*
X158261115Y-105840233D01*
X158240175Y-105808953D01*
X157782994Y-105351772D01*
X157751298Y-105330661D01*
X157741374Y-105328696D01*
X157716766Y-105323823D01*
X157716764Y-105323823D01*
X157714376Y-105323350D01*
X157393012Y-105323350D01*
X157067827Y-105323351D01*
X157030483Y-105330835D01*
X157003691Y-105348770D01*
X157001247Y-105350407D01*
X156999203Y-105351775D01*
X156542022Y-105808956D01*
X156520911Y-105840652D01*
X156519960Y-105845455D01*
X156514079Y-105875157D01*
X156513600Y-105877574D01*
X155728598Y-105877574D01*
X155721115Y-105840233D01*
X155700175Y-105808953D01*
X155242994Y-105351772D01*
X155211298Y-105330661D01*
X155201374Y-105328696D01*
X155176766Y-105323823D01*
X155176764Y-105323823D01*
X155174376Y-105323350D01*
X154853012Y-105323350D01*
X154527827Y-105323351D01*
X154490483Y-105330835D01*
X154463691Y-105348770D01*
X154461247Y-105350407D01*
X154459203Y-105351775D01*
X154002022Y-105808956D01*
X153980911Y-105840652D01*
X153979960Y-105845455D01*
X153974079Y-105875157D01*
X153973600Y-105877574D01*
X153188598Y-105877574D01*
X153181115Y-105840233D01*
X153160175Y-105808953D01*
X152702994Y-105351772D01*
X152671298Y-105330661D01*
X152661374Y-105328696D01*
X152636766Y-105323823D01*
X152636764Y-105323823D01*
X152634376Y-105323350D01*
X152313012Y-105323350D01*
X151987827Y-105323351D01*
X151950483Y-105330835D01*
X151923691Y-105348770D01*
X151921247Y-105350407D01*
X151919203Y-105351775D01*
X151462022Y-105808956D01*
X151440911Y-105840652D01*
X151439960Y-105845455D01*
X151434079Y-105875157D01*
X151433600Y-105877574D01*
X150648598Y-105877574D01*
X150641115Y-105840233D01*
X150620175Y-105808953D01*
X150162994Y-105351772D01*
X150131298Y-105330661D01*
X150121374Y-105328696D01*
X150096766Y-105323823D01*
X150096764Y-105323823D01*
X150094376Y-105323350D01*
X149773012Y-105323350D01*
X149447827Y-105323351D01*
X149410483Y-105330835D01*
X149383691Y-105348770D01*
X149381247Y-105350407D01*
X149379203Y-105351775D01*
X148922022Y-105808956D01*
X148900911Y-105840652D01*
X148899960Y-105845455D01*
X148894079Y-105875157D01*
X148893600Y-105877574D01*
X148108598Y-105877574D01*
X148101115Y-105840233D01*
X148080175Y-105808953D01*
X147622994Y-105351772D01*
X147591298Y-105330661D01*
X147581374Y-105328696D01*
X147556766Y-105323823D01*
X147556764Y-105323823D01*
X147554376Y-105323350D01*
X147233012Y-105323350D01*
X146907827Y-105323351D01*
X146870483Y-105330835D01*
X146843691Y-105348770D01*
X146841247Y-105350407D01*
X146839203Y-105351775D01*
X146382022Y-105808956D01*
X146360911Y-105840652D01*
X146359960Y-105845455D01*
X146354079Y-105875157D01*
X146353600Y-105877574D01*
X145568598Y-105877574D01*
X145561115Y-105840233D01*
X145540175Y-105808953D01*
X145082994Y-105351772D01*
X145051298Y-105330661D01*
X145041374Y-105328696D01*
X145016766Y-105323823D01*
X145016764Y-105323823D01*
X145014376Y-105323350D01*
X144693012Y-105323350D01*
X144367827Y-105323351D01*
X144330483Y-105330835D01*
X144303691Y-105348770D01*
X144301247Y-105350407D01*
X144299203Y-105351775D01*
X143842022Y-105808956D01*
X143820911Y-105840652D01*
X143819960Y-105845455D01*
X143814079Y-105875157D01*
X143813600Y-105877574D01*
X143028598Y-105877574D01*
X143021115Y-105840233D01*
X143000175Y-105808953D01*
X142542994Y-105351772D01*
X142511298Y-105330661D01*
X142501374Y-105328696D01*
X142476766Y-105323823D01*
X142476764Y-105323823D01*
X142474376Y-105323350D01*
X142153012Y-105323350D01*
X141827827Y-105323351D01*
X141790483Y-105330835D01*
X141763691Y-105348770D01*
X141761247Y-105350407D01*
X141759203Y-105351775D01*
X141302022Y-105808956D01*
X141280911Y-105840652D01*
X141279960Y-105845455D01*
X141274079Y-105875157D01*
X141273600Y-105877574D01*
X140488598Y-105877574D01*
X140481115Y-105840233D01*
X140460175Y-105808953D01*
X140002994Y-105351772D01*
X139971298Y-105330661D01*
X139961374Y-105328696D01*
X139936766Y-105323823D01*
X139936764Y-105323823D01*
X139934376Y-105323350D01*
X139613012Y-105323350D01*
X139287827Y-105323351D01*
X139250483Y-105330835D01*
X139223691Y-105348770D01*
X139221247Y-105350407D01*
X139219203Y-105351775D01*
X138762022Y-105808956D01*
X138740911Y-105840652D01*
X138739960Y-105845455D01*
X138734079Y-105875157D01*
X138733600Y-105877574D01*
X137948598Y-105877574D01*
X137941115Y-105840233D01*
X137920175Y-105808953D01*
X137462994Y-105351772D01*
X137431298Y-105330661D01*
X137421374Y-105328696D01*
X137396766Y-105323823D01*
X137396764Y-105323823D01*
X137394376Y-105323350D01*
X137073012Y-105323350D01*
X136747827Y-105323351D01*
X136710483Y-105330835D01*
X136683691Y-105348770D01*
X136681247Y-105350407D01*
X136679203Y-105351775D01*
X136222022Y-105808956D01*
X136200911Y-105840652D01*
X136199960Y-105845455D01*
X136194079Y-105875157D01*
X136193600Y-105877574D01*
X135408598Y-105877574D01*
X135401115Y-105840233D01*
X135380175Y-105808953D01*
X134922994Y-105351772D01*
X134891298Y-105330661D01*
X134881374Y-105328696D01*
X134856766Y-105323823D01*
X134856764Y-105323823D01*
X134854376Y-105323350D01*
X134533012Y-105323350D01*
X134207827Y-105323351D01*
X134170483Y-105330835D01*
X134143691Y-105348770D01*
X134141247Y-105350407D01*
X134139203Y-105351775D01*
X133682022Y-105808956D01*
X133660911Y-105840652D01*
X133659960Y-105845455D01*
X133654079Y-105875157D01*
X133653600Y-105877574D01*
X132868598Y-105877574D01*
X132861115Y-105840233D01*
X132840175Y-105808953D01*
X132382994Y-105351772D01*
X132351298Y-105330661D01*
X132341374Y-105328696D01*
X132316766Y-105323823D01*
X132316764Y-105323823D01*
X132314376Y-105323350D01*
X131993012Y-105323350D01*
X131667827Y-105323351D01*
X131630483Y-105330835D01*
X131603691Y-105348770D01*
X131601247Y-105350407D01*
X131599203Y-105351775D01*
X131142022Y-105808956D01*
X131120911Y-105840652D01*
X131119960Y-105845455D01*
X131114079Y-105875157D01*
X131113600Y-105877574D01*
X130328598Y-105877574D01*
X130321115Y-105840233D01*
X130300175Y-105808953D01*
X129842994Y-105351772D01*
X129811298Y-105330661D01*
X129801374Y-105328696D01*
X129776766Y-105323823D01*
X129776764Y-105323823D01*
X129774376Y-105323350D01*
X129453012Y-105323350D01*
X129127827Y-105323351D01*
X129090483Y-105330835D01*
X129063691Y-105348770D01*
X129061247Y-105350407D01*
X129059203Y-105351775D01*
X128602022Y-105808956D01*
X128580911Y-105840652D01*
X128579960Y-105845455D01*
X128574079Y-105875157D01*
X128573600Y-105877574D01*
X127788598Y-105877574D01*
X127781115Y-105840233D01*
X127760175Y-105808953D01*
X127302994Y-105351772D01*
X127271298Y-105330661D01*
X127261374Y-105328696D01*
X127236766Y-105323823D01*
X127236764Y-105323823D01*
X127234376Y-105323350D01*
X126913012Y-105323350D01*
X126587827Y-105323351D01*
X126550483Y-105330835D01*
X126523691Y-105348770D01*
X126521247Y-105350407D01*
X126519203Y-105351775D01*
X126062022Y-105808956D01*
X126040911Y-105840652D01*
X126039960Y-105845455D01*
X126034079Y-105875157D01*
X126033600Y-105877574D01*
X125248598Y-105877574D01*
X125241115Y-105840233D01*
X125220175Y-105808953D01*
X124762994Y-105351772D01*
X124731298Y-105330661D01*
X124721374Y-105328696D01*
X124696766Y-105323823D01*
X124696764Y-105323823D01*
X124694376Y-105323350D01*
X124373012Y-105323350D01*
X124047827Y-105323351D01*
X124010483Y-105330835D01*
X123983691Y-105348770D01*
X123981247Y-105350407D01*
X123979203Y-105351775D01*
X123522022Y-105808956D01*
X123500911Y-105840652D01*
X123499960Y-105845455D01*
X123494079Y-105875157D01*
X123493600Y-105877574D01*
X116143656Y-105877574D01*
X116102575Y-105829897D01*
X116099600Y-105827969D01*
X116099597Y-105827966D01*
X116031401Y-105783764D01*
X115992558Y-105758587D01*
X115866948Y-105721022D01*
X115863401Y-105721000D01*
X115863399Y-105721000D01*
X115803696Y-105720636D01*
X115735844Y-105720221D01*
X115609785Y-105756249D01*
X115498905Y-105826209D01*
X115412117Y-105924478D01*
X115382764Y-105986997D01*
X115357906Y-106039942D01*
X115357905Y-106039945D01*
X115356398Y-106043155D01*
X115336228Y-106172701D01*
X104076600Y-106172701D01*
X104076600Y-104267701D01*
X179153728Y-104267701D01*
X179170727Y-104397700D01*
X179223530Y-104517704D01*
X179307891Y-104618063D01*
X179417029Y-104690712D01*
X179542170Y-104729809D01*
X179545714Y-104729874D01*
X179669707Y-104732146D01*
X179673254Y-104732211D01*
X179682065Y-104729809D01*
X179687829Y-104728237D01*
X179799744Y-104697726D01*
X179911471Y-104629126D01*
X179999453Y-104531925D01*
X180056617Y-104413937D01*
X180078369Y-104284648D01*
X180078507Y-104273350D01*
X180059921Y-104143568D01*
X180005656Y-104024219D01*
X179920075Y-103924897D01*
X179917100Y-103922969D01*
X179917097Y-103922966D01*
X179848901Y-103878764D01*
X179810058Y-103853587D01*
X179684448Y-103816022D01*
X179680901Y-103816000D01*
X179680899Y-103816000D01*
X179621196Y-103815636D01*
X179553344Y-103815221D01*
X179427285Y-103851249D01*
X179316405Y-103921209D01*
X179229617Y-104019478D01*
X179200264Y-104081997D01*
X179175406Y-104134942D01*
X179175405Y-104134945D01*
X179173898Y-104138155D01*
X179153728Y-104267701D01*
X104076600Y-104267701D01*
X104076600Y-103586550D01*
X104091186Y-103551336D01*
X104126400Y-103536750D01*
X143851324Y-103536750D01*
X143886538Y-103551336D01*
G37*
%TD.AperFunction*%
%TD*%
M02*
