M48
; DRILL file {KiCad 6.0.11} date Mon 20 Mar 2023 20:23:47
; FORMAT={-:-/ absolute / inch / decimal}
; #@! TF.CreationDate,2023-03-20T20:23:47+01:00
; #@! TF.GenerationSoftware,Kicad,Pcbnew,6.0.11
; #@! TF.FileFunction,Plated,1,4,PTH
FMAT,2
INCH
; #@! TA.AperFunction,Plated,PTH,ViaDrill
T1C0.0100
; #@! TA.AperFunction,Plated,PTH,ViaDrill
T2C0.0150
; #@! TA.AperFunction,Plated,PTH,ViaDrill
T3C0.0197
; #@! TA.AperFunction,Plated,PTH,ViaDrill
T4C0.0236
; #@! TA.AperFunction,Plated,PTH,ViaDrill
T5C0.0315
; #@! TA.AperFunction,Plated,PTH,ComponentDrill
T6C0.0354
; #@! TA.AperFunction,Plated,PTH,ComponentDrill
T7C0.0394
; #@! TA.AperFunction,Plated,PTH,ComponentDrill
T8C0.0400
; #@! TA.AperFunction,Plated,PTH,ComponentDrill
T9C0.0866
%
G90
G05
T1
X4.2465Y-3.1927
X4.2465Y-3.2428
X4.2465Y-3.2927
X4.2465Y-3.3428
X4.2465Y-3.3927
X4.4465Y-5.6178
X4.4715Y-3.2428
X4.4715Y-3.2927
X4.4715Y-3.3428
X4.4715Y-3.3927
X4.5215Y-5.5427
X4.559Y-4.1803
X4.559Y-4.3552
X4.559Y-4.9677
X4.559Y-5.0427
X4.559Y-5.2428
X4.559Y-5.3427
X4.5715Y-2.1178
X4.5715Y-3.2927
X4.584Y-5.5427
X4.6465Y-4.4303
X4.6715Y-2.3177
X4.684Y-3.2927
X4.6965Y-2.0928
X4.6965Y-4.3178
X4.7215Y-4.4177
X4.759Y-4.2302
X4.759Y-4.6677
X4.7715Y-5.1677
X4.809Y-3.2428
X4.809Y-3.3428
X4.809Y-3.4427
X4.809Y-4.2302
X4.809Y-4.7677
X4.8215Y-3.7927
X4.8215Y-5.2428
X4.8465Y-2.6427
X4.8465Y-3.0928
X4.8465Y-4.2677
X4.8465Y-4.8678
X4.884Y-3.2428
X4.884Y-3.3428
X4.8965Y-3.8927
X4.8965Y-4.4177
X4.8965Y-4.6427
X4.934Y-2.8428
X4.934Y-3.7927
X4.9465Y-2.6178
X4.959Y-5.6427
X4.984Y-5.2052
X5.009Y-3.2927
X5.0465Y-3.6427
X5.059Y-3.8428
X5.0965Y-2.1178
X5.0965Y-3.7803
X5.0965Y-4.3803
X5.109Y-5.8803
X5.109Y-6.0053
X5.1215Y-3.2927
X5.134Y-3.7428
X5.134Y-3.8428
X5.1465Y-4.2677
X5.1465Y-5.9677
X5.1965Y-2.3177
X5.1965Y-4.5927
X5.209Y-5.8927
X5.2215Y-2.0928
X5.2215Y-3.1927
X5.2215Y-3.4177
X5.2465Y-4.3053
X5.259Y-3.7927
X5.2715Y-3.6427
X5.2965Y-4.5177
X5.3215Y-3.9928
X5.334Y-3.6052
X5.334Y-5.9303
X5.3465Y-4.3053
X5.359Y-4.7302
X5.3715Y-2.6427
X5.3715Y-3.7927
X5.3965Y-4.5053
X5.3965Y-5.7927
X5.409Y-3.6302
X5.4215Y-5.4928
X5.4465Y-4.6803
X5.459Y-2.8428
X5.4715Y-2.6178
X5.4715Y-5.8927
X5.484Y-5.324
X5.4965Y-5.6677
X5.5215Y-3.7927
X5.5215Y-5.8178
X5.5215Y-5.8927
X5.534Y-4.3927
X5.5715Y-4.8053
X5.5965Y-5.0427
X5.5965Y-5.1928
X5.5965Y-5.7677
X5.609Y-5.5553
X5.609Y-5.6052
X5.6215Y-2.1178
X5.6215Y-5.6552
X5.634Y-4.7302
X5.634Y-4.8302
X5.659Y-3.0802
X5.659Y-4.6803
X5.659Y-5.6178
X5.684Y-3.3302
X5.684Y-4.3302
X5.684Y-5.7802
X5.6965Y-5.5427
X5.6965Y-5.5927
X5.6965Y-5.6427
X5.709Y-5.9303
X5.7215Y-2.3177
X5.7215Y-5.0427
X5.7215Y-5.1928
X5.734Y-5.3803
X5.734Y-5.5177
X5.7465Y-2.0928
X5.7465Y-4.8678
X5.7715Y-5.7802
X5.784Y-4.7177
X5.7965Y-4.3302
X5.7965Y-5.4303
X5.834Y-5.6052
X5.834Y-5.7802
X5.8465Y-5.0427
X5.8465Y-5.1928
X5.8465Y-5.324
X5.8465Y-5.4303
X5.859Y-4.6803
X5.8715Y-5.5302
X5.8715Y-5.5802
X5.8965Y-2.6427
X5.8965Y-5.4303
X5.8965Y-5.6552
X5.909Y-4.7553
X5.909Y-5.7802
X5.9215Y-4.9677
X5.9215Y-5.5177
X5.934Y-5.4052
X5.9465Y-3.8428
X5.9465Y-4.3927
X5.9465Y-5.249
X5.959Y-5.7802
X5.959Y-5.9303
X5.9715Y-5.0427
X5.984Y-2.8428
X5.9965Y-2.6178
X5.9965Y-5.7302
X6.034Y-5.2052
X6.0465Y-5.6677
X6.059Y-3.5427
X6.059Y-5.3302
X6.059Y-5.4928
X6.1215Y-5.2553
X6.134Y-5.0427
X6.1465Y-2.1178
X6.1715Y-5.8427
X6.184Y-3.0802
X6.1965Y-5.0427
X6.209Y-3.3302
X6.209Y-5.4677
X6.2465Y-2.3177
X6.2715Y-2.0928
X6.334Y-4.3427
X6.4215Y-2.6427
X6.4715Y-3.8428
X6.509Y-2.8428
X6.5215Y-2.6178
X6.584Y-3.5427
X6.684Y-2.1677
X6.709Y-3.0802
X6.734Y-3.3302
X6.884Y-4.4303
X6.9965Y-3.8428
X7.009Y-4.5927
X7.0715Y-4.1052
X7.0715Y-4.3927
X7.109Y-3.5427
X7.1715Y-4.6427
X7.1965Y-4.2927
X7.234Y-3.0802
X7.2465Y-4.4177
X7.259Y-3.3302
X7.2965Y-3.5427
X7.2965Y-4.3053
X7.3465Y-3.2927
X7.3465Y-4.3427
X7.3965Y-3.4427
T2
X4.559Y-4.2553
X4.5965Y-5.7177
X5.0465Y-5.8927
X5.2965Y-6.1552
X5.409Y-6.1178
X5.4715Y-6.0802
X5.509Y-6.1178
X5.734Y-4.5177
X5.8215Y-4.5053
X6.4465Y-5.3302
T3
X4.7965Y-5.7428
X4.7965Y-5.7927
X4.7965Y-5.8552
X4.9715Y-5.8678
X6.284Y-5.1928
X6.6465Y-4.8552
X6.8215Y-2.0802
X6.8965Y-5.1178
X6.8965Y-5.1803
X6.8965Y-5.3178
X6.9715Y-2.0802
X7.0465Y-5.1303
X7.0715Y-4.9428
X7.4715Y-4.6303
X7.4715Y-4.7802
T4
X4.1965Y-5.5427
T5
X4.3965Y-5.6928
X5.2715Y-6.2428
X5.3465Y-6.2428
T6
X4.3087Y-6.2426
X4.4071Y-6.2426
X4.4859Y-6.2426
X4.5843Y-6.2426
T7
X4.8965Y-4.1811
X4.9965Y-4.1811
X5.0965Y-4.1811
X5.1965Y-4.1811
X5.2965Y-4.1811
X5.3965Y-4.1811
X5.4965Y-4.1811
X5.5965Y-4.1811
X5.6965Y-4.1811
X5.7965Y-4.1811
X5.8965Y-4.1811
X5.9965Y-4.1811
X6.0965Y-4.1811
X6.1965Y-4.1811
X6.2965Y-4.1811
X6.3965Y-4.1811
X6.4965Y-4.1811
X6.5965Y-4.1811
X6.6965Y-4.1811
X6.7965Y-4.1811
X7.0231Y-2.769
X7.1215Y-2.769
X7.2199Y-2.769
X7.2996Y-4.9253
X7.2996Y-5.0253
X7.2996Y-5.1253
X7.2996Y-5.2253
X7.2996Y-5.3253
X7.3996Y-4.9253
X7.3996Y-5.0253
X7.3996Y-5.1253
X7.3996Y-5.2253
X7.3996Y-5.3253
T8
X4.2465Y-4.5678
X4.2465Y-4.6677
X4.2465Y-4.7677
X4.3465Y-4.5678
X4.3465Y-4.6677
X4.3465Y-4.7677
X4.3715Y-2.049
X4.3715Y-2.3758
X4.3715Y-2.4644
X4.5215Y-4.5678
X4.5215Y-4.6677
X4.5215Y-4.7677
X4.6215Y-4.5678
X4.6215Y-4.6677
X4.6215Y-4.7677
X4.634Y-2.574
X4.634Y-2.9008
X4.634Y-2.9894
X4.8435Y-6.0787
X4.8435Y-6.2568
X4.8965Y-2.049
X4.8965Y-2.3758
X4.8965Y-2.4644
X5.0995Y-6.0787
X5.0995Y-6.2568
X5.159Y-2.574
X5.159Y-2.9008
X5.159Y-2.9894
X5.4215Y-2.049
X5.4215Y-2.3758
X5.4215Y-2.4644
X5.4215Y-3.099
X5.4215Y-3.4258
X5.4215Y-3.5144
X5.684Y-2.574
X5.684Y-2.9008
X5.684Y-2.9894
X5.684Y-3.624
X5.684Y-3.9508
X5.684Y-4.0394
X5.9465Y-2.049
X5.9465Y-2.3758
X5.9465Y-2.4644
X5.9465Y-3.099
X5.9465Y-3.4258
X5.9465Y-3.5144
X6.209Y-2.574
X6.209Y-2.9008
X6.209Y-2.9894
X6.209Y-3.624
X6.209Y-3.9508
X6.209Y-4.0394
X6.4215Y-6.1677
X6.4715Y-2.049
X6.4715Y-2.3758
X6.4715Y-2.4644
X6.4715Y-3.099
X6.4715Y-3.4258
X6.4715Y-3.5144
X6.5215Y-6.1677
X6.6215Y-6.1677
X6.734Y-3.624
X6.734Y-3.9508
X6.734Y-4.0394
X6.9965Y-3.099
X6.9965Y-3.4258
X6.9965Y-3.5144
X7.259Y-3.624
X7.259Y-3.9508
X7.259Y-4.0394
T9
X4.1876Y-6.2187
X4.4465Y-6.0544
X4.7054Y-6.2191
X6.9483Y-2.5052
X7.2947Y-2.5052
T0
M30
